<?xml version="1.0" encoding="UTF-8"?>
<svg id="a" data-name="Слой 1" xmlns="http://www.w3.org/2000/svg" width="407.58" height="461.07" viewBox="0 0 407.58 461.07">
  <g>
    <path d="m371.46,417.99h-94.59c-9.48,0-17.83-5.31-21.75-13.27-1.77-3.16-2.78-6.84-2.91-10.75v-.63c0-6.71,2.79-12.9,7.22-17.46,3.16-3.16,7.2-5.56,11.89-6.57,1.75-.37,3.65-.63,5.55-.63h94.59c13.66,0,24.65-39.45,24.65-25.92l11.39,27.19v.12c0,13.52,3.68,49.18-36.04,47.91Z" fill="#704429"/>
    <path d="m209.26,393.35c0,13.62-11.04,24.65-24.64,24.65h-59.28c-26.31-1.14-24.59-34.14-24.59-47.76l20.62-17.4c0-13.6-9.65,15.87,3.98,15.87h59.28c13.6,0,24.64,11.03,24.64,24.64h0Z" fill="#7d4c2e"/>
    <path d="m407.07,342.8c.26,1.52.38,3.03.38,4.55v22.76c-.76,13.41-11.76,23.9-25.29,23.9H125.98c-1.78,0-3.42-.13-5.19-.51-1.13-.37-2.4-.62-3.53-1-.39-.14-.76-.26-1.14-.51-1.14-.38-2.15-1.01-3.29-1.65-.39-.12-.64-.38-1-.63-1.14-.76-2.29-1.64-3.29-2.65-1.01-1.01-2.02-2.14-2.91-3.3-1.14-1.64-2.15-3.28-2.91-5.17-1.13-2.54-1.76-5.44-1.9-8.35v-.13c-.11-.51-.11-.88-.11-1.4l-2.53-33.63-3.03-42.11L75.39,25.29c0-13.91,11.26-25.29,25.3-25.29h126.19c13.91,0,25.29,11.38,25.29,25.29v254.03l31.11,10.25,35.78,11.76,33.76,11.14c4.43-1.26,9.23-2.02,14.28-2.02,22.25,0,40.34,13.14,40.34,29.21,0,1.14-.26,2.15-.38,3.16Z" fill="#996244"/>
    <path d="m407.07,342.8c.26,1.52.38,3.03.38,4.55v22.76c-.76,13.41-11.76,23.9-25.29,23.9H125.98c-1.78,0-3.42-.13-5.19-.51-1.13-.37-2.4-.62-3.53-1-.39-.14-.76-.26-1.14-.51-1.14-.38-2.15-1.01-3.29-1.65-.39-.12-.64-.38-1-.63-1.14-.76-2.29-1.64-3.29-2.65-1.01-1.01-2.02-2.14-2.91-3.3-1.14-1.64-2.15-3.28-2.91-5.17-1.13-2.54-1.76-5.44-1.9-8.35v-.13c-.11-.51-.11-.88-.11-1.4l-2.53-33.63-3.03-42.11L75.39,25.29c0-13.91,11.26-25.29,25.3-25.29h126.19c13.91,0,25.29,11.38,25.29,25.29v254.03l31.11,10.25,35.78,11.76,33.76,11.14c4.43-1.26,9.23-2.02,14.28-2.02,22.25,0,40.34,13.14,40.34,29.21,0,1.14-.26,2.15-.38,3.16Z" opacity=".2"/>
    <path d="m264.03,127c0,7.67-6.22,13.87-13.88,13.87H82.33c-7.67,0-13.88-6.21-13.88-13.87V13.87c0-7.66,6.21-13.87,13.88-13.87h167.83c7.66,0,13.88,6.21,13.88,13.87v113.13Z" fill="#704429"/>
    <path d="m254.63,12.65c0,6.98-5.66,12.65-12.65,12.65H90.5c-6.98,0-12.65-5.66-12.65-12.65h0c0-6.98,5.66-12.65,12.65-12.65h151.49c6.99,0,12.65,5.66,12.65,12.65h0Z" fill="#5d2c10"/>
  </g>
  <g>
    <path d="m303,461.04h-94.59c-9.48,0-17.83-5.31-21.75-13.26-1.76-3.16-2.77-6.84-2.9-10.76v-.63c0-6.71,2.79-12.9,7.21-17.46,3.16-3.16,7.2-5.56,11.89-6.57,1.76-.38,3.65-.63,5.55-.63h94.59c13.66,0,24.66-39.44,24.66-25.91l11.39,27.19v.12c0,13.53,3.66,49.19-36.04,47.91Z" fill="#7d4c2e"/>
    <path d="m140.8,436.41c0,13.61-11.04,24.64-24.64,24.64h-59.28c-26.31-1.14-24.59-34.13-24.59-47.75l20.61-17.4c0-13.6-9.64,15.87,3.98,15.87h59.28c13.6,0,24.64,11.03,24.64,24.64h0Z" fill="#7d4c2e"/>
    <path d="m338.61,385.86c.26,1.52.38,3.03.38,4.55v22.76c-.76,13.4-11.76,23.9-25.29,23.9H57.52c-1.77,0-3.41-.13-5.19-.51-1.13-.38-2.4-.63-3.54-1-.37-.13-.76-.26-1.13-.51-1.13-.39-2.16-1.01-3.28-1.65-.38-.12-.64-.38-1.01-.63-1.14-.76-2.29-1.64-3.29-2.65-1.01-1-2.02-2.14-2.91-3.3-1.14-1.64-2.15-3.28-2.92-5.17-1.13-2.53-1.75-5.44-1.9-8.34v-.13c-.11-.51-.11-.89-.11-1.4l-2.53-33.63-3.03-42.11L6.94,68.35c0-13.91,11.26-25.29,25.29-25.29h126.19c13.91,0,25.29,11.38,25.29,25.29v254.03l31.11,10.24,35.79,11.76,33.76,11.14c4.43-1.26,9.23-2.03,14.29-2.03,22.24,0,40.34,13.15,40.34,29.22,0,1.13-.26,2.14-.38,3.16Z" fill="#996244"/>
    <path d="m13.87,43.06h167.82c7.66,0,13.87,6.22,13.87,13.87v113.13c0,7.66-6.22,13.87-13.87,13.87H13.87c-7.66,0-13.87-6.22-13.87-13.87V56.93c0-7.66,6.22-13.87,13.87-13.87Z" fill="#8d5c3e"/>
    <path d="m186.18,55.71c0,6.98-5.67,12.65-12.65,12.65H22.04c-6.98,0-12.65-5.66-12.65-12.65h0c0-6.99,5.67-12.65,12.65-12.65h151.48c6.98,0,12.65,5.66,12.65,12.65h0Z" fill="#6d3c1f"/>
  </g>
</svg>