<?xml version="1.0" encoding="UTF-8"?>
<svg xmlns="http://www.w3.org/2000/svg" width="266.88" height="408.75" viewBox="0 0 266.88 408.75">
  <g>
    <path d="m74.94,97.09s-2.53,1.96-1.64,5.66c1.37,5.67,2.57,10.41,18.8,16.75,16.23,6.34,67.93,9.97,71.44-.54,3.5-10.51-2.04-16.62,7.29-10.31,9.33,6.31,12.51,14.6,23.88,3.83,11.37-10.78,7.22-18.56,6.22-22.12-1-3.56,4.65-6.28-15.62-6.18-14.67.07-66.47,3.84-93.67,7.55-10.39,1.42-16.7,5.35-16.7,5.35h0Z" fill="#70cbff"/>
    <path d="m100.49,64.78s8.98,41.75-2.58,47.23c-24.46,11.61-43.03,4.81-55.48,19.24C24.82,151.68-5.76,388.99.94,400.6c6.7,11.61,249.11,9.02,263.41,3.25,14.29-5.77-36.55-258.6-42.15-272.79-5.6-14.2-44.72-15.06-55.26-18.38-10.54-3.32-10.18-38.97-7.07-47.77,2.26-6.39,13.67-.2,19.56-5.51,5.89-5.31,10.89-37.19,5.71-43.65-8.4-10.48-103.37-7.96-111.41-.6-8.03,7.36-1.95,38.24,4.83,44.55,7.7,7.16,17.5-3.62,21.92,5.08h0Z"/>
    <path d="m131.05,13.99c-12.85.12-25.73.8-35.67,1.89-4.97.54-9.23,1.19-12.21,1.86-1.69.38-2.97.99-3.56,1.23-.22.49-.77,1.68-1.04,4.08-.36,3.15-.2,7.44.42,11.72.62,4.29,1.69,8.61,2.9,11.98,1.21,3.37,2.96,5.82,2.84,5.71.67.63.67.57,1.47.62.8.05,2.32-.16,4.4-.53,2.08-.37,4.76-1.03,8.37-.33s7.63,3.71,9.55,7.48c.3.58.52,1.2.65,1.84,0,0,2.37,10.94,3.23,22.87.43,5.96.53,12.19-.43,17.96-.97,5.77-2.94,12.25-9.56,15.39-13.57,6.44-25.59,7.77-34.65,9.29s-14.36,2.84-19.07,8.29c-.22.25-3.24,6.15-5.68,14.38s-5.06,19.2-7.69,31.88c-5.25,25.35-10.57,57.57-15.12,89.5-4.55,31.93-8.33,63.61-10.54,87.92-1.11,12.15-1.82,22.48-2.04,29.94-.11,3.73-.1,6.77.02,8.8,0,.05.02.07.02.12,1.63.43,3.96.92,7.15,1.37,7,.99,17.07,1.82,29.05,2.48,23.97,1.3,55.67,1.9,87.61,1.94,31.94.04,64.13-.46,89.17-1.34,12.52-.44,23.26-.97,31.2-1.57,3.97-.3,7.25-.61,9.63-.92.62-.08.39-.05.91-.15.2-1.49.39-3.4.38-6.33-.03-7.05-.85-17.43-2.27-29.8-2.85-24.74-8.09-57.64-13.96-90.8-5.87-33.16-12.38-66.62-17.76-92.64-2.69-13.01-5.1-24.17-7.01-32.47-1.9-8.3-3.7-14.61-3.72-14.66-.32-.82-1.99-2.67-5.77-4.41-3.78-1.74-9.15-3.24-14.82-4.39-11.35-2.31-22.91-2.94-30.62-5.37-6.37-2-9.14-7.39-10.92-12.39-1.78-5-2.65-10.59-3.11-16.29-.46-5.7-.45-11.45-.12-16.52.33-5.06.82-9.16,2.12-12.85,1.36-3.86,5.33-6.8,8.37-7.62,3.04-.82,5.41-.66,7.45-.62,3.8.08,5.53-.28,5.86-.4.19-.49,1.43-2.45,2.23-4.96,1.06-3.35,2.03-7.76,2.66-12.18.63-4.41.91-8.87.77-12.24-.08-1.89-.5-3.36-.7-4.16-.57-.3-1.49-.79-2.82-1.15-2.85-.77-7.05-1.48-11.98-2.03-9.87-1.08-22.74-1.53-35.59-1.41h0Z" fill="#fff"/>
    <path d="m38.29,201.92c4.77-27.26,130.1,4.8,130.1,4.8l-48.49,26s-70.45,4.72-81.62-30.8Z" fill="currentColor"/>
    <path d="m38.29,201.92c4.77-27.26,130.1,4.8,130.1,4.8l-48.49,26s-70.45,4.72-81.62-30.8Z" opacity=".1"/>
    <path d="m38.29,201.92c-3.68,20.44-7.27,43.57-10.47,66.56-4.29,30.9-7.86,61.55-9.95,85.07-1.04,11.76-1.71,21.75-1.93,28.97-.11,3.61-.09,6.55.02,8.51,0,.05.02.07.02.12,1.54.42,3.74.89,6.75,1.32,6.61.95,16.12,1.77,27.43,2.4,22.63,1.26,52.57,1.83,82.73,1.87,30.16.04,60.56-.45,84.2-1.3,11.82-.43,21.96-.94,29.46-1.52,3.75-.29,6.85-.59,9.09-.89.59-.08.37-.05.86-.14.19-1.44.37-3.29.36-6.13-.03-6.82-.8-16.86-2.15-28.83-2.69-23.94-7.64-55.77-13.18-87.86-3.86-22.33-7.9-43.87-11.78-63.95-61.58-34.44-83.01,26.12-191.48-4.2Z" fill="currentColor"/>
    <path d="m119.88,78.75s-.48,37.92-11,43c-22.27,10.76-45.03,6.17-56.37,19.55-16.03,18.93-43.88,238.89-37.77,249.65,6.11,10.76,226.83,8.36,239.84,3.01,13.02-5.35-33.28-239.69-38.37-252.85-5.1-13.16-49.73-12.29-59.33-15.37-9.59-3.07-14.83-39.84-12-48" fill="none" stroke="#000" stroke-miterlimit="10" stroke-width="4"/>
    <path d="m115.28.85c-17.09.97-39.97,3.59-46.98,11.51-7.02,7.92-.67,45.32,4.44,50.99,5.11,5.67,21.79,4.2,21.87,11.82.07,7.62-14.81,19.2-19.59,21.92,14.74-3.56,18.43-5.27,23.4,6.68,4.96,11.95,19.14,21.52,20.9,10.88,1.75-10.64-8.77-19.2,5.04-19.47,13.81-.27,18.77,3.63,18.32,14.43-.45,10.81,3.88,14.8,11.23,9.1,7.35-5.71-3.58-14.9,7.2-19.44,10.78-4.53,15.6-5.2,17.5,2.18,1.9,7.38,5.56,11.78,10.49,5.94,4.93-5.84-8.62-9.1-4.03-17.14,3.49-6.11,13.43-5.24,13.43-5.24,0,0-34.07-5.49-28.06-14.42,6.01-8.93,15.86-4.97,20.37-12.86,4.52-7.89,5.56-39.81,2.61-47.23-2.95-7.42-34.59-12.65-78.14-9.67h0Z" fill="#b5e4ff"/>
    <path d="m194.5,39.9c-5.99,3.07-9.75,12.91-15.5,15.56-2.44,1.12-5.15,1.68-7.7,2.47-9.58,2.97-1.46-12.7-7.36-12.22-4.73.38-10.26,15.03-15.17,18.89-5.8,4.57-11.72-3.11-17.44-2.02-5.21.99-5.82,7.47-11.85,7.93-1.85.14-3.33-.02-4.72-.82.4-5.2-2.34-5.65-4.38-4.11-2.11,1.59-5.17-3.32-5.14-8.38.03-5.06-1.45-4.51-4.91-.5-3.46,4.01-3.77,4.51-11.29,5.63-5.21.77-14.88-5.38-20.38-9.26,1.27,4.92,2.72,8.77,4.1,10.29,5,5.54,21,4.28,21.79,11.33l5.54.57s1.79,5.01.82,12.82c-.56,4.45-1.84,10.38-2.88,14.84.14.31.27.52.4.85,4.96,11.95,19.14,21.52,20.9,10.88,1.28-7.77-3.94-14.41-1.51-17.54-1.03-5.75-2.26-13.88-2.84-19.91.06.04.11.1.17.13,6.01,3.6,20.99-3.04,23.85,4.7,1.54,4.14,1.11,10.38.55,16.84,2.39,2.31,3.34,5.8,3.13,10.75-.45,10.81,3.88,14.8,11.23,9.1,6.17-4.79-.49-12.03,3.56-16.91-1.95-5.68-4.34-10.8-5.63-13.25-.69-1.31-4.59-7.88-2.03-9.12,8.86-4.29,12.46,6.98,17.31,12.63,1.29,1.51,2.87,2.69,4.42,3.89,3.79-.4,5.94,1.14,7.06,5.5,1.9,7.38,5.56,11.78,10.49,5.94,4.14-4.91-4.74-8.01-4.95-13.65-3.24-3.24-5.83-6.99-9.13-10.23-1.2-1.18-5.93-5.15-4.59-7.31.16-.26.38-.5.62-.73-1.37-1.48-1.79-3.11-.61-4.87,6.01-8.93,15.86-4.97,20.37-12.86,1.8-3.15,3.02-10.14,3.69-17.85h0Z" fill="#99d8fc"/>
    <path d="m192.62,52.6c-2.42,2.62-5.25,5.4-7.28,6.48-4.24,2.25-10.43,2.72-14.82,4.75s-4.23,4.75-10.54,4.5c-4.24-.17-2.14-5.95-.31-9.74-1.84,3.42-4.77,8.57-6.97,10.73-3.36,3.31-7.01,1.43-11.75.67-4.74-.76-2.41-1.8-8.53-1.02-6.12.77-5.65,3.11-13.28,3.27-7.63.17-8.27-.84-11.66-2.37-3.4-1.53-3.04,1.83-7.31-1.13-4.27-2.95-15.91-3.07-15.91-3.07-2.76-.33-4.68.11-6.02.82,6.86,2.36,16.32,2.94,16.38,8.68,0,.12-.04.26-.04.39.63.09,1.15.18,1.48.28,2.48.79,6.27.12,8.4,1.31,2.13,1.19,1.7,23.53,2.13,26.69.43,3.16,3.64,4.18,7.33,2.27,3.69-1.91-1.85-27.96-1.85-27.96,0,0,13.32-.55,14.66-.55s14.29.7,14.29.7c0,0,4.33,26.15,4.18,27.69-.15,1.54,7.48,4.33,7.27-1.33-.21-5.66-7.8-27.06-7.8-27.06,0,0,10.78-1.58,12.93-1.37,2.15.2,3.04,2.75,4.14,4.56,1.1,1.81,3.86,3.37,9.33,9,5.47,5.62,8.53,8.98,9.42,11.66.9,2.69,3.64,3.04,4.53,1.53.9-1.51-10.23-14.25-12.78-17.44-2.56-3.19-6.34-8.32-6.47-9.52-.05-.49,1.92-1.25,4.26-1.99-.47-1.08-.41-2.22.4-3.43,6.01-8.93,15.86-4.97,20.37-12.86.69-1.2,1.29-3.01,1.81-5.15h0Zm-32.94,5.98c.97-1.81,1.73-3.26,1.73-3.26,0,0-.84,1.42-1.73,3.26Z" fill="#70cbff"/>
    <path d="m93.59,72.92s59.18,1.75,77.51-2.42c5.9-.37,6.53,4.73,1.94,6.68-4.59,1.95-38.92,7.59-80.49,1.78-9.11-1.48-7.46-7.02,1.04-6.04Z" fill="#784421"/>
  </g>
</svg>
