<?xml version="1.0" encoding="UTF-8"?>
<svg xmlns="http://www.w3.org/2000/svg" width="209.42" height="214.25" viewBox="0 0 209.42 214.25">
  <g isolation="isolate">
    <g id="a" data-name="Слой 1">
      <g>
        <g>
          <g>
            <path d="m85.2,0s-1.71,26.8,20.38,46.84l-26.6-12.24S62.85,14.82,85.2,0Z" fill="#4f9a3f"/>
            <g mix-blend-mode="multiply" opacity=".31">
              <path d="m102.38,45.36l3.2,1.47c-.58-.53-1.08-1.08-1.63-1.61l-1.58.14Z" fill="#4f9a3f"/>
            </g>
          </g>
          <g>
            <path d="m111.92,5.04s-11.83,24.13.83,51.21l-19.8-21.61s-7.28-24.54,18.98-29.6Z" fill="#4f9a3f"/>
            <g mix-blend-mode="multiply" opacity=".31">
              <path d="m110.37,53.65l2.39,2.6c-.33-.71-.58-1.41-.88-2.12l-1.5-.48Z" fill="#4f9a3f"/>
            </g>
          </g>
          <g>
            <path d="m121.82,17.73s-11.83,24.13.83,51.21l-19.8-21.61s-7.28-24.54,18.98-29.6Z" fill="#4f9a3f"/>
            <g mix-blend-mode="multiply" opacity=".31">
              <path d="m120.26,66.34l2.39,2.6c-.33-.71-.58-1.41-.88-2.12l-1.5-.48Z" fill="#4f9a3f"/>
            </g>
          </g>
          <g>
            <path d="m168.57,48.37s-22.35,14.82-50.69,5.61l23.83,17.02s25.15,4.17,26.85-22.63Z" fill="#4f9a3f"/>
            <g mix-blend-mode="multiply" opacity=".31">
              <path d="m120.75,56.02l-2.87-2.05c.75.24,1.47.4,2.2.61l.67,1.44Z" fill="#4f9a3f"/>
            </g>
          </g>
          <g>
            <path d="m150.9,27.65s-14.99,22.3-44.74,24.78l28.57,6.45s24.86-5.89,16.17-31.23Z" fill="#4f9a3f"/>
            <g mix-blend-mode="multiply" opacity=".31">
              <path d="m109.6,53.21l-3.44-.78c.78-.07,1.51-.2,2.27-.29l1.17,1.07Z" fill="#4f9a3f"/>
            </g>
          </g>
          <g>
            <path d="m134.99,25.37s-14.99,22.3-44.74,24.78l28.57,6.45s24.86-5.89,16.17-31.23Z" fill="#4f9a3f"/>
            <g mix-blend-mode="multiply" opacity=".31">
              <path d="m93.69,50.93l-3.44-.78c.78-.07,1.51-.2,2.27-.29l1.17,1.07Z" fill="#4f9a3f"/>
            </g>
          </g>
        </g>
        <g>
          <path d="m148.82,104.34c-9.75,9.16-25.5,8.43-35.17-1.65-9.67-10.07-9.6-25.67.15-34.83,9.75-9.16,25.5-8.43,35.17,1.65,9.67,10.07,9.6,25.67-.15,34.83Z" fill="#3a089b"/>
          <path d="m132.38,65.64s-12.18-5.08-21.8,14.31l21.8-14.31Z" fill="#fff" mix-blend-mode="screen" opacity=".1"/>
          <path d="m154.37,77.84c-.79,4.97-3.12,9.69-7.03,13.37-9.75,9.16-25.5,8.43-35.17-1.65-2.4-2.5-4.19-5.34-5.39-8.33-1.18,7.42,1.09,15.43,6.88,21.46,9.67,10.07,25.42,10.81,35.17,1.65,7.34-6.89,9.19-17.42,5.55-26.5Z" mix-blend-mode="multiply" opacity=".1"/>
        </g>
        <g>
          <ellipse cx="25.99" cy="54.59" rx="24.22" ry="25.3" transform="translate(-32.72 40.13) rotate(-50.7)" fill="#3a089b"/>
          <path d="m27.06,34.13s-12.18-5.08-21.8,14.31l21.8-14.31Z" fill="#fff" mix-blend-mode="screen" opacity=".1"/>
          <path d="m49.04,46.33c-.79,4.97-3.12,9.69-7.03,13.37-9.75,9.16-25.5,8.43-35.17-1.65-2.4-2.5-4.19-5.34-5.39-8.33-1.18,7.42,1.09,15.43,6.88,21.46,9.67,10.07,25.42,10.81,35.17,1.65,7.34-6.89,9.19-17.42,5.55-26.5Z" mix-blend-mode="multiply" opacity=".1"/>
        </g>
        <g>
          <path d="m42.38,120.64c-9.75,9.16-25.5,8.43-35.17-1.65-9.67-10.07-9.6-25.67.15-34.83,9.75-9.16,25.5-8.43,35.17,1.65,9.67,10.07,9.6,25.67-.15,34.83Z" fill="#3a089b"/>
          <path d="m25.94,81.94s-12.18-5.08-21.8,14.31l21.8-14.31Z" fill="#fff" mix-blend-mode="screen" opacity=".1"/>
          <path d="m47.93,94.14c-.79,4.97-3.12,9.69-7.03,13.37-9.75,9.16-25.5,8.43-35.17-1.65-2.4-2.5-4.19-5.34-5.39-8.33-1.18,7.42,1.09,15.43,6.88,21.46,9.67,10.07,25.42,10.81,35.17,1.65,7.34-6.89,9.19-17.42,5.55-26.5Z" mix-blend-mode="multiply" opacity=".1"/>
        </g>
        <g>
          <path d="m77.24,136.65c-9.75,9.16-25.5,8.43-35.17-1.65-9.67-10.07-9.6-25.67.15-34.83,9.75-9.16,25.5-8.43,35.17,1.65,9.67,10.07,9.6,25.67-.15,34.83Z" fill="#3a089b"/>
          <path d="m60.8,97.96s-12.18-5.08-21.8,14.31l21.8-14.31Z" fill="#fff" mix-blend-mode="screen" opacity=".1"/>
          <path d="m82.79,110.16c-.79,4.97-3.12,9.69-7.03,13.37-9.75,9.16-25.5,8.43-35.17-1.65-2.4-2.5-4.19-5.34-5.39-8.33-1.18,7.42,1.09,15.43,6.88,21.46,9.67,10.07,25.42,10.81,35.17,1.65,7.34-6.89,9.19-17.42,5.55-26.5Z" mix-blend-mode="multiply" opacity=".1"/>
        </g>
        <g>
          <ellipse cx="95.89" cy="140.15" rx="24.22" ry="25.3" transform="translate(-73.3 125.59) rotate(-50.7)" fill="#3a089b"/>
          <path d="m96.96,119.69s-12.18-5.08-21.8,14.31l21.8-14.31Z" fill="#fff" mix-blend-mode="screen" opacity=".1"/>
          <path d="m118.94,131.89c-.79,4.97-3.12,9.69-7.03,13.37-9.75,9.16-25.5,8.43-35.17-1.65-2.4-2.5-4.19-5.34-5.39-8.33-1.18,7.42,1.09,15.43,6.88,21.46,9.67,10.07,25.42,10.81,35.17,1.65,7.34-6.89,9.19-17.42,5.55-26.5Z" mix-blend-mode="multiply" opacity=".1"/>
        </g>
        <g>
          <path d="m78.82,176.56c-9.75,9.16-25.5,8.43-35.17-1.65-9.67-10.07-9.6-25.67.15-34.83,9.75-9.16,25.5-8.43,35.17,1.65,9.67,10.07,9.6,25.67-.15,34.83Z" fill="#3a089b"/>
          <path d="m62.38,137.86s-12.18-5.08-21.8,14.31l21.8-14.31Z" fill="#fff" mix-blend-mode="screen" opacity=".1"/>
          <path d="m84.37,150.06c-.79,4.97-3.12,9.69-7.03,13.37-9.75,9.16-25.5,8.43-35.17-1.65-2.4-2.5-4.19-5.34-5.39-8.33-1.18,7.42,1.09,15.43,6.88,21.46,9.67,10.07,25.42,10.81,35.17,1.65,7.34-6.89,9.19-17.42,5.55-26.5Z" mix-blend-mode="multiply" opacity=".1"/>
        </g>
        <g>
          <path d="m42.66,154.84c-9.75,9.16-25.5,8.43-35.17-1.65-9.67-10.07-9.6-25.67.15-34.83,9.75-9.16,25.5-8.43,35.17,1.65,9.67,10.07,9.6,25.67-.15,34.83Z" fill="#3a089b"/>
          <path d="m26.22,116.14s-12.18-5.08-21.8,14.31l21.8-14.31Z" fill="#fff" mix-blend-mode="screen" opacity=".1"/>
          <path d="m48.21,128.34c-.79,4.97-3.12,9.69-7.03,13.37-9.75,9.16-25.5,8.43-35.17-1.65-2.4-2.5-4.19-5.34-5.39-8.33-1.18,7.42,1.09,15.43,6.88,21.46,9.67,10.07,25.42,10.81,35.17,1.65,7.34-6.89,9.19-17.42,5.55-26.5Z" mix-blend-mode="multiply" opacity=".1"/>
        </g>
        <g>
          <path d="m85.75,62.2c-9.75,9.16-25.5,8.43-35.17-1.65-9.67-10.07-9.6-25.67.15-34.83,9.75-9.16,25.5-8.43,35.17,1.65,9.67,10.07,9.6,25.67-.15,34.83Z" fill="#3a089b"/>
          <path d="m69.31,23.5s-12.18-5.08-21.8,14.31l21.8-14.31Z" fill="#fff" mix-blend-mode="screen" opacity=".1"/>
          <path d="m91.3,35.7c-.79,4.97-3.12,9.69-7.03,13.37-9.75,9.16-25.5,8.43-35.17-1.65-2.4-2.5-4.19-5.34-5.39-8.33-1.18,7.42,1.09,15.43,6.88,21.46,9.67,10.07,25.42,10.81,35.17,1.65,7.34-6.89,9.19-17.42,5.55-26.5Z" mix-blend-mode="multiply" opacity=".1"/>
        </g>
        <g>
          <path d="m110.74,120.18c-9.75,9.16-25.5,8.43-35.17-1.65-9.67-10.07-9.6-25.67.15-34.83s25.5-8.43,35.17,1.65c9.67,10.07,9.6,25.67-.15,34.83Z" fill="#3a089b"/>
          <path d="m94.3,81.48s-12.18-5.08-21.8,14.31l21.8-14.31Z" fill="#fff" mix-blend-mode="screen" opacity=".1"/>
          <path d="m116.29,93.68c-.79,4.97-3.12,9.69-7.03,13.37-9.75,9.16-25.5,8.43-35.17-1.65-2.4-2.5-4.19-5.34-5.39-8.33-1.18,7.42,1.09,15.43,6.88,21.46,9.67,10.07,25.42,10.81,35.17,1.65,7.34-6.89,9.19-17.42,5.55-26.5Z" mix-blend-mode="multiply" opacity=".1"/>
        </g>
        <g>
          <ellipse cx="135.1" cy="122.62" rx="24.22" ry="25.3" transform="translate(-45.36 149.51) rotate(-50.7)" fill="#3a089b"/>
          <path d="m136.17,102.16s-12.18-5.08-21.8,14.31l21.8-14.31Z" fill="#fff" mix-blend-mode="screen" opacity=".1"/>
          <path d="m158.15,114.36c-.79,4.97-3.12,9.69-7.03,13.37-9.75,9.16-25.5,8.43-35.17-1.65-2.4-2.5-4.19-5.34-5.39-8.33-1.18,7.42,1.09,15.43,6.88,21.46,9.67,10.07,25.42,10.81,35.17,1.65,7.34-6.89,9.19-17.42,5.55-26.5Z" mix-blend-mode="multiply" opacity=".1"/>
        </g>
        <g>
          <path d="m78.55,96.24c-9.75,9.16-25.5,8.43-35.17-1.65-9.67-10.07-9.6-25.67.15-34.83s25.5-8.43,35.17,1.65c9.67,10.07,9.6,25.67-.15,34.83Z" fill="#3a089b"/>
          <path d="m62.11,57.55s-12.18-5.08-21.8,14.31l21.8-14.31Z" fill="#fff" mix-blend-mode="screen" opacity=".1"/>
          <path d="m84.09,69.75c-.79,4.97-3.12,9.69-7.03,13.37-9.75,9.16-25.5,8.43-35.17-1.65-2.4-2.5-4.19-5.34-5.39-8.33-1.18,7.42,1.09,15.43,6.88,21.46,9.67,10.07,25.42,10.81,35.17,1.65,7.34-6.89,9.19-17.42,5.55-26.5Z" mix-blend-mode="multiply" opacity=".1"/>
        </g>
        <g>
          <path d="m118.86,77.03c-9.75,9.16-25.5,8.43-35.17-1.65-9.67-10.07-9.6-25.67.15-34.83s25.5-8.43,35.17,1.65c9.67,10.07,9.6,25.67-.15,34.83Z" fill="#3a089b"/>
          <path d="m102.42,38.34s-12.18-5.08-21.8,14.31l21.8-14.31Z" fill="#fff" mix-blend-mode="screen" opacity=".1"/>
          <path d="m124.41,50.54c-.79,4.97-3.12,9.69-7.03,13.37-9.75,9.16-25.5,8.43-35.17-1.65-2.4-2.5-4.19-5.34-5.39-8.33-1.18,7.42,1.09,15.43,6.88,21.46,9.67,10.07,25.42,10.81,35.17,1.65,7.34-6.89,9.19-17.42,5.55-26.5Z" mix-blend-mode="multiply" opacity=".1"/>
        </g>
      </g>
      <g>
        <circle cx="149.44" cy="154.28" r="59.98"/>
        <g>
          <path d="m170.07,121.15c-1.97-3.53-4.13-6.11-8.87-8.84-15.89-8.41-40.21,4.73-35.94,24.46.61,2.83,1.87,5.61,1.55,8.49-.2,1.81-1.03,3.64-.53,5.39,1.45,4.98,11.04,3.34,11.71,8.72.4,3.2,2.04,3.41,3.09,2.78.37-.22.83-.16,1.12.15.49.53,1.46.67,2.12.15.34-.27.83-.21,1.14.09.63.61,1.69.68,2.4.17.33-.24.77-.24,1.07.03.55.49,1.55.54,2.19-.02.32-.28.8-.33,1.13-.05.66.57,1.77.52,2.4-.07.29-.27.7-.35,1.05-.16.4.21.9.16,1.25-.11.31-.24.73-.2,1.06.02,1.24.86,3.44-1.61,3.13-3.13-.91-4.51,6.41-5.52,8.42-6.51,4.59-2.25,2.43-5.7,2.2-6.34-1.63-4.43,4.96-13.28-1.69-25.21Zm-25.92,23.81c-6.85,5.47-15.23.72-8.71-5.61,6.63-6.44,14.78.77,8.71,5.61Zm9.1,7.99c-.94,1.09-1.85.9-2.45.25-.44-.47-1.15-.48-1.66-.08-.28.22-.68.35-1.26.32-2.26-.13-1.94-4.99,1.75-7.94.38-.3.94-.22,1.23.17,1.45,1.93,3.98,5.45,2.39,7.29Zm12.57-6.83c-2.81,3.38-13-1.72-12.29-5.95,1.36-8.09,17.28-.05,12.29,5.95Z" fill="#fff"/>
          <path d="m129.59,167.98c-6.68-2.47-3.62-5.55-5.89-8.43-2.44-3.09-7.84-.16-6.17,4.15.63,1.63,2.2,2.77,2.8,4.42-1.53.87-3.63.46-5.01,1.57-2.73,2.2.04,7.56,5.38,5.77,6.31-2.11,1.55-4.58,9.11-1.92,3.34,1.17,41.11,15.11,42.52,18.3.54,1.21.52,2.69,1.37,3.71,1.4,1.69,4.56,1.47,5.95-.63,2.85-4.31-5.06-6.99.84-7.8,2.24-.31,3.72-3.05,2.87-5.15-.85-2.1-3.66-3.06-5.69-2.06-8.48,4.2,6.75,8.33-48.09-11.94Z" fill="#fff"/>
          <path d="m168.34,167.98c6.68-2.47,3.62-5.55,5.89-8.43,2.44-3.09,7.84-.16,6.17,4.15-.63,1.63-2.2,2.77-2.8,4.42,1.53.87,3.63.46,5.01,1.57,2.73,2.2-.04,7.56-5.38,5.77-6.31-2.11-1.55-4.58-9.11-1.92-3.34,1.17-41.11,15.11-42.52,18.3-.54,1.21-.52,2.69-1.37,3.71-1.4,1.69-4.56,1.47-5.95-.63-2.85-4.31,5.06-6.99-.84-7.8-2.24-.31-3.72-3.05-2.87-5.15.85-2.1,3.66-3.06,5.69-2.06,8.48,4.2-6.75,8.33,48.09-11.94Z" fill="#fff"/>
        </g>
      </g>
    </g>
  </g>
</svg>