<?xml version="1.0" encoding="UTF-8"?>
<svg id="a" data-name="Слой 1" xmlns="http://www.w3.org/2000/svg" width="228.25" height="252.74" viewBox="0 0 228.25 252.74">
  <g>
    <path d="m108.47,251.2c-14.39-97.67,59.1-190.72,59.86-191.67l-2.91-2.34c-.77.96-74.98,94.94-60.72,194.01h3.78Z" fill="#42a743"/>
    <g>
      <g>
        <path d="m190.87.5c-4.53,0-8.38,3.72-9.85,8.91-1.47-5.2-5.32-8.91-9.85-8.91-5.8,0-10.49,6.08-10.49,13.57,0,18.09,20.34,32.57,20.34,32.57,0,0,20.34-14.47,20.34-32.57,0-7.49-4.7-13.57-10.49-13.57Z" fill="#57b747" stroke="#5dc647" stroke-miterlimit="10"/>
        <path d="m171.17,91.59c4.53,0,8.38-3.72,9.85-8.91,1.47,5.2,5.32,8.91,9.85,8.91,5.8,0,10.49-6.08,10.49-13.57,0-18.09-20.34-32.57-20.34-32.57,0,0-20.34,14.47-20.34,32.57,0,7.49,4.7,13.57,10.49,13.57Z" fill="#57b747" stroke="#5dc647" stroke-miterlimit="10"/>
      </g>
      <g>
        <path d="m135.47,36.2c0,4.53,3.72,8.38,8.91,9.85-5.2,1.47-8.91,5.32-8.91,9.85,0,5.8,6.08,10.49,13.57,10.49,18.09,0,32.57-20.34,32.57-20.34,0,0-14.47-20.34-32.57-20.34-7.49,0-13.57,4.7-13.57,10.49Z" fill="#57b747" stroke="#5dc647" stroke-miterlimit="10"/>
        <path d="m227.75,55.89c0-4.53-3.72-8.38-8.91-9.85,5.2-1.47,8.91-5.32,8.91-9.85,0-5.8-6.08-10.49-13.57-10.49-18.09,0-32.57,20.34-32.57,20.34,0,0,14.47,20.34,32.57,20.34,7.49,0,13.57-4.7,13.57-10.49Z" fill="#57b747" stroke="#5dc647" stroke-miterlimit="10"/>
      </g>
    </g>
  </g>
  <g>
    <path d="m113.27,250.95c-28.1-74.01,14.16-159.48,14.6-160.35l-2.66-1.34c-.45.89-43.57,88.07-14.45,163.47l2.51-1.79Z" fill="#42a743"/>
    <g>
      <g>
        <path d="m115.89,55.28c-2.97,1.65-4.14,5.48-3.22,9.42-2.85-2.87-6.72-3.91-9.69-2.27-3.8,2.11-4.67,7.8-1.95,12.71,6.57,11.86,25.17,13.96,25.17,13.96,0,0,8.07-16.88,1.5-28.74-2.72-4.91-8.01-7.19-11.81-5.08Z" fill="#57b747" stroke="#5dc647" stroke-miterlimit="10"/>
        <path d="m136.08,122.14c2.97-1.65,4.14-5.48,3.22-9.42,2.85,2.87,6.72,3.91,9.69,2.27,3.8-2.11,4.67-7.8,1.95-12.71-6.57-11.86-25.17-13.96-25.17-13.96,0,0-8.07,16.88-1.5,28.74,2.72,4.91,8.01,7.19,11.81,5.08Z" fill="#57b747" stroke="#5dc647" stroke-miterlimit="10"/>
      </g>
      <g>
        <path d="m92.55,98.81c1.65,2.97,5.48,4.14,9.42,3.22-2.87,2.85-3.91,6.72-2.27,9.69,2.11,3.8,7.8,4.67,12.71,1.95,11.86-6.57,13.96-25.17,13.96-25.17,0,0-16.88-8.07-28.74-1.5-4.91,2.72-7.19,8.01-5.08,11.81Z" fill="#57b747" stroke="#5dc647" stroke-miterlimit="10"/>
        <path d="m160.19,78.19c-1.65-2.97-5.48-4.14-9.42-3.22,2.87-2.85,3.91-6.72,2.27-9.69-2.11-3.8-7.8-4.67-12.71-1.95-11.86,6.57-13.96,25.17-13.96,25.17,0,0,16.88,8.07,28.74,1.5,4.91-2.72,7.19-8.01,5.08-11.81Z" fill="#57b747" stroke="#5dc647" stroke-miterlimit="10"/>
      </g>
    </g>
  </g>
  <g>
    <path d="m109.39,249.04c38.1-38.01,53.48-89.75,53.68-90.43l-2.6-.75c-.19.66-15.28,51.41-52.54,88.84l1.46,2.34Z" fill="#42a743"/>
    <g>
      <g>
        <path d="m196.2,145.16c-1.53-3.19-5.45-4.65-9.61-3.93,3.16-2.79,4.48-6.76,2.95-9.95-1.96-4.08-7.83-5.34-13.11-2.81-12.75,6.11-16.08,25.33-16.08,25.33,0,0,17.07,9.44,29.82,3.33,5.28-2.53,7.97-7.89,6.02-11.98Z" fill="#57b747" stroke="#5dc647" stroke-miterlimit="10"/>
        <path d="m125.37,162.05c1.53,3.19,5.45,4.65,9.61,3.93-3.16,2.79-4.48,6.76-2.95,9.95,1.96,4.08,7.83,5.34,13.11,2.81,12.75-6.11,16.08-25.33,16.08-25.33,0,0-17.07-9.44-29.82-3.33-5.28,2.53-7.97,7.89-6.02,11.98Z" fill="#57b747" stroke="#5dc647" stroke-miterlimit="10"/>
      </g>
      <g>
        <path d="m152.34,118.19c-3.19,1.53-4.65,5.45-3.93,9.61-2.79-3.16-6.76-4.48-9.95-2.95-4.08,1.96-5.34,7.83-2.81,13.11,6.11,12.75,25.33,16.08,25.33,16.08,0,0,9.44-17.07,3.33-29.82-2.53-5.28-7.89-7.97-11.98-6.02Z" fill="#57b747" stroke="#5dc647" stroke-miterlimit="10"/>
        <path d="m169.63,189.86c3.19-1.53,4.65-5.45,3.93-9.61,2.79,3.16,6.76,4.48,9.95,2.95,4.08-1.96,5.34-7.83,2.81-13.11-6.11-12.75-25.33-16.08-25.33-16.08,0,0-9.44,17.07-3.33,29.82,2.53,5.28,7.89,7.97,11.98,6.02Z" fill="#57b747" stroke="#5dc647" stroke-miterlimit="10"/>
      </g>
    </g>
  </g>
  <g>
    <path d="m108.83,251.2h3.79c17.16-100.66-59.25-197.42-60.03-198.4l-2.91,2.34c.77.96,76.46,96.81,59.15,196.06Z" fill="#42a743"/>
    <g>
      <g>
        <path d="m64.63,7.85c-4.71-.53-9.14,2.88-11.28,8.12-.92-5.58-4.49-9.89-9.19-10.42-6.03-.68-11.62,5.09-12.5,12.88-2.12,18.81,17.34,36.24,17.34,36.24,0,0,22.84-12.67,24.96-31.48.88-7.79-3.3-14.66-9.32-15.34Z" fill="#57b747" stroke="#5dc647" stroke-miterlimit="10"/>
        <path d="m33.5,100.26c4.71.53,9.14-2.88,11.28-8.12.92,5.58,4.49,9.89,9.19,10.42,6.03.68,11.62-5.09,12.5-12.88,2.12-18.81-17.34-36.24-17.34-36.24,0,0-22.84,12.67-24.96,31.48-.88,7.79,3.3,14.66,9.32,15.34Z" fill="#57b747" stroke="#5dc647" stroke-miterlimit="10"/>
      </g>
      <g>
        <path d="m2.86,38.49c-.53,4.71,2.88,9.14,8.11,11.28-5.58.92-9.89,4.49-10.42,9.19-.68,6.03,5.09,11.62,12.88,12.5,18.81,2.12,36.24-17.34,36.24-17.34,0,0-12.67-22.84-31.48-24.96-7.79-.88-14.66,3.3-15.34,9.32Z" fill="#57b747" stroke="#5dc647" stroke-miterlimit="10"/>
        <path d="m96.5,69.76c.53-4.71-2.88-9.14-8.12-11.28,5.58-.92,9.89-4.49,10.42-9.19.68-6.03-5.09-11.62-12.88-12.5-18.81-2.12-36.24,17.34-36.24,17.34,0,0,12.67,22.84,31.48,24.96,7.79.88,14.66-3.3,15.34-9.32Z" fill="#57b747" stroke="#5dc647" stroke-miterlimit="10"/>
      </g>
    </g>
  </g>
</svg>