<?xml version="1.0" encoding="UTF-8"?>
<svg id="a" data-name="Слой 1" xmlns="http://www.w3.org/2000/svg" width="225.53" height="256.29" viewBox="0 0 225.53 256.29">
  <g>
    <path d="m73.35,159.43c-19.35-17.54-43.89-15.46-43.89-15.46,0,0,7.42,6.14,19.86,28.6,12.44,22.46,27.61,22.2,36.89,21.56,9.28-.65,12.37,13.09,12.37,13.09h0s-1.59-5.13-4.62-12.59c-2.79-14.77-9.52-25.15-20.6-35.2Z" fill="#00bb6b" stroke="#00bb6b" stroke-linecap="round" stroke-linejoin="round" stroke-width=".58"/>
    <path d="m29.46,143.97s59.28,25.71,69.12,63.25" fill="none" stroke="#008347" stroke-linecap="round" stroke-linejoin="round" stroke-width=".58"/>
    <polyline points="66.08 190.65 84.91 182.62 84.53 172.29" fill="none" stroke="#008347" stroke-linecap="round" stroke-linejoin="round" stroke-width=".58"/>
    <polyline points="54.15 180.05 75.07 173.05 73.35 159.43" fill="none" stroke="#008347" stroke-linecap="round" stroke-linejoin="round" stroke-width=".58"/>
    <polyline points="47.62 169.56 63.95 164.1 61.06 150.94" fill="none" stroke="#008347" stroke-linecap="round" stroke-linejoin="round" stroke-width=".58"/>
    <polyline points="41.93 160.12 51.09 155.51 49.47 146.39" fill="none" stroke="#008347" stroke-linecap="round" stroke-linejoin="round" stroke-width=".58"/>
  </g>
  <g>
    <path d="m96.58,181.82s-22.38-15.63-14.11-42.93c8.26-27.3,12.64-34.05,13.03-44.27,28.89,35.37,30.13,67.48,1.08,87.2Z" fill="#009c4a" stroke="#009c4a" stroke-linecap="round" stroke-linejoin="round" stroke-width=".58"/>
    <path d="m95.5,94.61s13.72,43.89-1.33,92.83" fill="none" stroke="#008347" stroke-linecap="round" stroke-linejoin="round" stroke-width=".58"/>
    <polyline points="90.27 115.14 100.05 121.04 107.8 112.3" fill="none" stroke="#008347" stroke-linecap="round" stroke-linejoin="round" stroke-width=".58"/>
    <polyline points="85.24 130.02 101.02 137.24 114.78 127.67" fill="none" stroke="#008347" stroke-linecap="round" stroke-linejoin="round" stroke-width=".58"/>
    <polyline points="81 144.69 100.77 152.6 117.77 144.44" fill="none" stroke="#008347" stroke-linecap="round" stroke-linejoin="round" stroke-width=".58"/>
    <polyline points="82.09 160.98 99.53 166.43 114.32 161.64" fill="none" stroke="#008347" stroke-linecap="round" stroke-linejoin="round" stroke-width=".58"/>
  </g>
  <g>
    <path d="m60.8,110.54s-27.24,1.66-37.73-24.86C12.57,59.16,11.81,51.15,5.76,42.9c44.62,9.76,65.54,34.14,55.04,67.65Z" fill="#009c4a" stroke="#009c4a" stroke-linecap="round" stroke-linejoin="round" stroke-width=".58"/>
    <path d="m5.76,42.9s38.02,25.86,56.65,73.56" fill="none" stroke="#008347" stroke-linecap="round" stroke-linejoin="round" stroke-width=".58"/>
    <polyline points="14.42 62.22 25.75 60.77 26.39 49.11" fill="none" stroke="#008347" stroke-linecap="round" stroke-linejoin="round" stroke-width=".58"/>
    <polyline points="19.72 77.01 36.57 72.86 41.41 56.81" fill="none" stroke="#008347" stroke-linecap="round" stroke-linejoin="round" stroke-width=".58"/>
    <polyline points="25.51 91.14 45.92 85.05 54.17 68.09" fill="none" stroke="#008347" stroke-linecap="round" stroke-linejoin="round" stroke-width=".58"/>
    <polyline points="36.5 103.22 53.54 96.66 62.16 83.72" fill="none" stroke="#008347" stroke-linecap="round" stroke-linejoin="round" stroke-width=".58"/>
  </g>
  <path d="m97.48,214.04c-.04-.43-3.9-43.92-30.86-83.01l2.85-1.96c27.5,39.87,31.43,84.24,31.46,84.69l-3.45.28Z" fill="#008347"/>
  <g>
    <path d="m90.73,89.06c-1.08-26.09-19.78-42.12-19.78-42.12,0,0,.83,9.59-6.45,34.21-7.27,24.62,3.55,35.25,10.52,41.41,6.97,6.16-.65,18-.65,18h0s2.54-4.73,5.73-12.13c8.57-12.35,11.24-24.43,10.63-39.38Z" fill="#00bb6b" stroke="#00bb6b" stroke-linecap="round" stroke-linejoin="round" stroke-width=".58"/>
    <path d="m70.95,46.94s23.27,60.28,3.42,93.63" fill="none" stroke="#008347" stroke-linecap="round" stroke-linejoin="round" stroke-width=".58"/>
    <polyline points="63.38 105.79 82.31 113.57 89.41 106.05" fill="none" stroke="#008347" stroke-linecap="round" stroke-linejoin="round" stroke-width=".58"/>
    <polyline points="62.56 89.85 82.23 99.85 90.73 89.06" fill="none" stroke="#008347" stroke-linecap="round" stroke-linejoin="round" stroke-width=".58"/>
    <polyline points="65.45 77.84 80.8 85.64 88.15 74.35" fill="none" stroke="#008347" stroke-linecap="round" stroke-linejoin="round" stroke-width=".58"/>
    <polyline points="68.19 67.16 77.9 70.45 83.26 62.9" fill="none" stroke="#008347" stroke-linecap="round" stroke-linejoin="round" stroke-width=".58"/>
  </g>
  <g>
    <path d="m77.36,147.63s-24.44,12.16-44.44-8.17C12.91,119.13,9.08,112.06.29,106.81c44.89-8.42,73.67,5.87,77.07,40.81Z" fill="#00bb6b" stroke="#00bb6b" stroke-linecap="round" stroke-linejoin="round" stroke-width=".58"/>
    <path d="m.29,106.81s45.1,8.98,80.86,45.63" fill="none" stroke="#008347" stroke-linecap="round" stroke-linejoin="round" stroke-width=".58"/>
    <polyline points="15.81 121.23 25.67 115.48 21.72 104.48" fill="none" stroke="#008347" stroke-linecap="round" stroke-linejoin="round" stroke-width=".58"/>
    <polyline points="26.46 132.77 40.35 122.38 38.55 105.72" fill="none" stroke="#008347" stroke-linecap="round" stroke-linejoin="round" stroke-width=".58"/>
    <polyline points="37.3 143.52 53.72 129.96 54.7 111.13" fill="none" stroke="#008347" stroke-linecap="round" stroke-linejoin="round" stroke-width=".58"/>
    <polyline points="52.13 150.37 65.27 137.67 68.15 122.4" fill="none" stroke="#008347" stroke-linecap="round" stroke-linejoin="round" stroke-width=".58"/>
  </g>
  <g>
    <path d="m154.69,168.93s-1.66-27.24,24.86-37.73c26.52-10.49,34.53-11.26,42.78-17.31-9.76,44.62-34.14,65.54-67.65,55.04Z" fill="#009c4a" stroke="#009c4a" stroke-linecap="round" stroke-linejoin="round" stroke-width=".58"/>
    <path d="m222.33,113.88s-25.86,38.02-73.56,56.65" fill="none" stroke="#008347" stroke-linecap="round" stroke-linejoin="round" stroke-width=".58"/>
    <polyline points="203.01 122.55 204.46 133.88 216.12 134.52" fill="none" stroke="#008347" stroke-linecap="round" stroke-linejoin="round" stroke-width=".58"/>
    <polyline points="188.22 127.85 192.37 144.7 208.42 149.54" fill="none" stroke="#008347" stroke-linecap="round" stroke-linejoin="round" stroke-width=".58"/>
    <polyline points="174.1 133.64 180.18 154.05 197.14 162.3" fill="none" stroke="#008347" stroke-linecap="round" stroke-linejoin="round" stroke-width=".58"/>
    <polyline points="162.01 144.62 168.57 161.67 181.52 170.28" fill="none" stroke="#008347" stroke-linecap="round" stroke-linejoin="round" stroke-width=".58"/>
  </g>
  <g>
    <path d="m183.12,195.37c26.09-1.08,42.12-19.78,42.12-19.78,0,0-9.59.83-34.21-6.45-24.62-7.27-35.25,3.55-41.41,10.52-6.16,6.97-18-.65-18-.65h0s4.73,2.54,12.13,5.73c12.35,8.57,24.43,11.24,39.38,10.63Z" fill="#00bb6b" stroke="#00bb6b" stroke-linecap="round" stroke-linejoin="round" stroke-width=".58"/>
    <path d="m225.24,175.59s-60.28,23.27-93.63,3.42" fill="none" stroke="#008347" stroke-linecap="round" stroke-linejoin="round" stroke-width=".58"/>
    <polyline points="166.39 168.03 158.61 186.96 166.13 194.06" fill="none" stroke="#008347" stroke-linecap="round" stroke-linejoin="round" stroke-width=".58"/>
    <polyline points="182.33 167.21 172.33 186.88 183.12 195.37" fill="none" stroke="#008347" stroke-linecap="round" stroke-linejoin="round" stroke-width=".58"/>
    <polyline points="194.34 170.1 186.54 185.45 197.83 192.8" fill="none" stroke="#008347" stroke-linecap="round" stroke-linejoin="round" stroke-width=".58"/>
    <polyline points="205.02 172.84 201.73 182.55 209.28 187.91" fill="none" stroke="#008347" stroke-linecap="round" stroke-linejoin="round" stroke-width=".58"/>
  </g>
  <g>
    <path d="m117.6,185.49s-12.16-24.44,8.17-44.44c20.33-20.01,27.4-23.84,32.64-32.63,8.42,44.89-5.87,73.67-40.81,77.07Z" fill="#00bb6b" stroke="#00bb6b" stroke-linecap="round" stroke-linejoin="round" stroke-width=".58"/>
    <path d="m158.42,108.42s-8.98,45.1-45.63,80.86" fill="none" stroke="#008347" stroke-linecap="round" stroke-linejoin="round" stroke-width=".58"/>
    <polyline points="144 123.94 149.75 133.8 160.75 129.84" fill="none" stroke="#008347" stroke-linecap="round" stroke-linejoin="round" stroke-width=".58"/>
    <polyline points="132.46 134.58 142.85 148.48 159.51 146.67" fill="none" stroke="#008347" stroke-linecap="round" stroke-linejoin="round" stroke-width=".58"/>
    <polyline points="121.71 145.43 135.27 161.85 154.1 162.82" fill="none" stroke="#008347" stroke-linecap="round" stroke-linejoin="round" stroke-width=".58"/>
    <polyline points="114.86 160.26 127.56 173.39 142.83 176.27" fill="none" stroke="#008347" stroke-linecap="round" stroke-linejoin="round" stroke-width=".58"/>
  </g>
  <path d="m134.07,72.54l-1.73.07c0,.59.59,59.58-18.12,105.72-18.7,46.13-42.76,72.14-43,72.4l-.32.35.12.46c.61,2.37,1.65,3.87,3.09,4.48.48.2.96.28,1.39.28,1.07,0,1.86-.45,1.91-.48l.23-.2c.21-.26,21.58-26.22,40.8-75.48,19.24-49.31,15.67-107.02,15.63-107.59Z" fill="#008347"/>
  <g>
    <g>
      <path d="m133.21,76.6l-.28-1.09c-.11.7.28,1.09.28,1.09Z" fill="#00a752"/>
      <path d="m135.17,33.93c-5.34,13.97-6.65,26.28-2.46,40.71l.22.88c.16-1.01,1.39-2.69,6.46-4.83,8.57-3.62,22.21-10.25,23.15-35.91.94-25.65,4.78-34.49,4.78-34.49,0,0-22.83,9.24-32.16,33.63Z" fill="#009c4a" stroke="#009c4a" stroke-linecap="round" stroke-linejoin="round" stroke-width=".58"/>
    </g>
    <path d="m167.33.29s-34.21,41.25-34.13,77.27" fill="none" stroke="#008347" stroke-linecap="round" stroke-linejoin="round" stroke-width=".58"/>
    <polyline points="155.77 58.49 135.35 59.83 131.01 50.45" fill="none" stroke="#008347" stroke-linecap="round" stroke-linejoin="round" stroke-width=".58"/>
    <polyline points="161.62 43.64 139.79 46.86 135.17 33.93" fill="none" stroke="#008347" stroke-linecap="round" stroke-linejoin="round" stroke-width=".58"/>
    <polyline points="162.7 31.33 145.67 33.84 142.3 20.8" fill="none" stroke="#008347" stroke-linecap="round" stroke-linejoin="round" stroke-width=".58"/>
    <polyline points="163.51 20.34 153.25 20.36 150.58 11.5" fill="none" stroke="#008347" stroke-linecap="round" stroke-linejoin="round" stroke-width=".58"/>
  </g>
  <g>
    <path d="m130.41,78.25s-26.43,6.83-41.79-17.2c-15.36-24.03-17.64-31.74-25.16-38.69,45.66,1.06,70.85,21,66.95,55.89Z" fill="#00bb6b" stroke="#00bb6b" stroke-linecap="round" stroke-linejoin="round" stroke-width=".58"/>
    <path d="m63.47,22.36s42.26,18.12,69.66,61.38" fill="none" stroke="#008347" stroke-linecap="round" stroke-linejoin="round" stroke-width=".58"/>
    <polyline points="75.66 39.68 86.5 36.09 84.91 24.51" fill="none" stroke="#008347" stroke-linecap="round" stroke-linejoin="round" stroke-width=".58"/>
    <polyline points="83.69 53.17 99.44 45.89 101.12 29.21" fill="none" stroke="#008347" stroke-linecap="round" stroke-linejoin="round" stroke-width=".58"/>
    <polyline points="92.07 65.94 110.94 56.07 115.8 37.84" fill="none" stroke="#008347" stroke-linecap="round" stroke-linejoin="round" stroke-width=".58"/>
    <polyline points="105.16 75.7 120.64 66 126.62 51.65" fill="none" stroke="#008347" stroke-linecap="round" stroke-linejoin="round" stroke-width=".58"/>
  </g>
  <path d="m128.08,142.98s11.97-40.03,51.76-52.45c-42.02,10.87-51.82,41.82-51.76,52.45Z" fill="#008347"/>
  <path d="m154.53,75.66s3.17,18.26-3.09,28.79l5.3-3.22s2.78-16.29-2.21-25.58Z" fill="#008347"/>
  <g>
    <path d="m180.49,93.29l-9.5-1.22s-1.21,7.16,3.87,11.47c5.55-2.8,5.63-10.25,5.63-10.25Z" fill="#e15339"/>
    <path d="m171.69,86.99l9.5,1.22s1.21-7.16-3.87-11.47c-5.55,2.8-5.63,10.25-5.63,10.25Z" fill="#e15339"/>
    <path d="m172.94,94.54l1.22-9.5s-7.16-1.21-11.47,3.87c2.8,5.55,10.25,5.63,10.25,5.63Z" fill="#e15339"/>
    <path d="m179.24,85.74l-1.22,9.5s7.16,1.21,11.47-3.87c-2.8-5.55-10.25-5.63-10.25-5.63Z" fill="#e15339"/>
    <path d="m170.94,89.48c-.36,2.84,1.64,5.44,4.49,5.81,2.84.36,5.44-1.64,5.81-4.49.36-2.84-1.64-5.44-4.49-5.81-2.84-.36-5.44,1.64-5.81,4.49Z" fill="#ffd43d"/>
    <path d="m174.3,89.91c-.13.99.57,1.89,1.56,2.02.99.13,1.89-.57,2.02-1.56.13-.99-.57-1.89-1.56-2.02-.99-.13-1.89.57-2.02,1.56Z" fill="#fff"/>
  </g>
  <g>
    <path d="m151.33,63.75s-4.88,2.84-2.13,9.25c3.48,4.95,5.34,2.66,5.34,2.66l-3.2-11.91Z" fill="#ed6a50"/>
    <path d="m151.45,63.72s5.65.12,6.35,7.06c-.64,6.02-3.38,4.91-3.38,4.91l-2.97-11.97Z" fill="#ed6a50"/>
    <path d="m154.42,75.69s-9.05-10.4-2.97-11.97c6.08-1.57,2.97,11.97,2.97,11.97Z" fill="#ed6a50"/>
    <path d="m149.2,73.01s2.76-.69,5.34,2.66c.3-4.5,3.05-5.21,3.05-5.21,0,0,3.14,8.85-1.9,10.15s-6.49-7.6-6.49-7.6Z" fill="#008347"/>
  </g>
  <g>
    <path d="m165.78,69.36s-5.46-1.45-8.05,5.03c-1.04,5.96,1.89,5.65,1.89,5.65l6.16-10.69Z" fill="#e15339"/>
    <path d="m165.88,69.42s3.91,4.07-.5,9.48c-4.71,3.8-5.86,1.09-5.86,1.09l6.36-10.57Z" fill="#e15339"/>
    <path d="m159.52,79.99s.96-13.75,6.36-10.57c5.41,3.18-6.36,10.57-6.36,10.57Z" fill="#e15339"/>
    <path d="m157.73,74.39s2.44,1.46,1.89,5.65c3.4-2.97,5.85-1.53,5.85-1.53,0,0-4.03,8.48-8.52,5.84-4.49-2.64.78-9.96.78-9.96Z" fill="#008347"/>
  </g>
  <g>
    <path d="m130.69,88.68s-1.45,5.46,5.03,8.05c5.96,1.04,5.65-1.89,5.65-1.89l-10.69-6.16Z" fill="#ed6a50"/>
    <path d="m130.75,88.58s4.07-3.91,9.48.5c3.8,4.71,1.09,5.86,1.09,5.86l-10.57-6.36Z" fill="#ed6a50"/>
    <path d="m141.32,94.94s-13.75-.96-10.57-6.36c3.18-5.41,10.57,6.36,10.57,6.36Z" fill="#ed6a50"/>
    <path d="m135.73,96.73s1.46-2.44,5.65-1.89c-2.97-3.4-1.53-5.85-1.53-5.85,0,0,8.48,4.03,5.84,8.52-2.64,4.49-9.96-.78-9.96-.78Z" fill="#008347"/>
  </g>
  <g>
    <path d="m144.88,82.43s-4.88,2.84-2.13,9.25c3.48,4.95,5.34,2.66,5.34,2.66l-3.2-11.91Z" fill="#e15339"/>
    <path d="m144.99,82.4s5.65.12,6.35,7.06c-.64,6.02-3.38,4.91-3.38,4.91l-2.97-11.97Z" fill="#e15339"/>
    <path d="m147.96,94.37s-9.05-10.4-2.97-11.97c6.08-1.57,2.97,11.97,2.97,11.97Z" fill="#e15339"/>
    <path d="m142.74,91.68s2.76-.69,5.34,2.66c.3-4.5,3.05-5.21,3.05-5.21,0,0,3.14,8.85-1.9,10.15-5.04,1.3-6.49-7.6-6.49-7.6Z" fill="#008347"/>
  </g>
  <g>
    <path d="m165.47,109.49l1.22-9.5s-7.16-1.21-11.47,3.87c2.8,5.55,10.25,5.63,10.25,5.63Z" fill="#ed6a50"/>
    <path d="m171.78,100.69l-1.22,9.5s7.16,1.21,11.47-3.87c-2.8-5.55-10.25-5.63-10.25-5.63Z" fill="#ed6a50"/>
    <path d="m164.23,101.94l9.5,1.22s1.21-7.16-3.87-11.47c-5.55,2.8-5.63,10.25-5.63,10.25Z" fill="#ed6a50"/>
    <path d="m173.02,108.24l-9.5-1.22s-1.21,7.16,3.87,11.47c5.55-2.8,5.63-10.25,5.63-10.25Z" fill="#ed6a50"/>
    <path d="m169.28,99.94c-2.84-.36-5.44,1.64-5.81,4.49-.36,2.84,1.64,5.44,4.49,5.81,2.84.36,5.44-1.64,5.81-4.49.36-2.84-1.64-5.44-4.49-5.81Z" fill="#ffd43d"/>
    <path d="m168.85,103.3c-.99-.13-1.89.57-2.02,1.56-.13.99.57,1.89,1.56,2.02.99.13,1.89-.57,2.02-1.56.13-.99-.57-1.89-1.56-2.02Z" fill="#fff"/>
  </g>
  <g>
    <path d="m150.81,117.05l-7.58,5.86s4.2,5.92,10.84,5.37c1.95-5.91-3.27-11.23-3.27-11.23Z" fill="#ed6a50"/>
    <path d="m140.13,118.81l7.58-5.86s-4.2-5.92-10.84-5.37c-1.95,5.91,3.27,11.23,3.27,11.23Z" fill="#ed6a50"/>
    <path d="m146.35,123.27l-5.86-7.58s-5.92,4.2-5.37,10.84c5.91,1.95,11.23-3.27,11.23-3.27Z" fill="#ed6a50"/>
    <path d="m144.59,112.59l5.86,7.58s5.92-4.2,5.37-10.84c-5.91-1.95-11.23,3.27-11.23,3.27Z" fill="#ed6a50"/>
    <path d="m141.36,121.1c1.75,2.27,5.01,2.69,7.28.93,2.27-1.75,2.69-5.01.93-7.28-1.75-2.27-5.01-2.69-7.28-.93s-2.69,5.01-.93,7.28Z" fill="#ffd43d"/>
    <path d="m144.05,119.03c.61.79,1.74.93,2.53.32.79-.61.93-1.74.32-2.53-.61-.79-1.74-.93-2.53-.32-.79.61-.93,1.74-.32,2.53Z" fill="#fff"/>
  </g>
  <path d="m143.23,96.25s3.34,1.88,6.7,10.57c0-6.85-1.06-10.4-1.06-10.4" fill="none" stroke="#008347" stroke-linecap="round" stroke-linejoin="round" stroke-width=".58"/>
  <g>
    <path d="m139.3,103.26l4.89-3.78s-2.71-3.82-7-3.47c-1.26,3.81,2.11,7.25,2.11,7.25Z" fill="#e15339"/>
    <path d="m146.19,102.12l-4.89,3.78s2.71,3.82,7,3.47c1.26-3.81-2.11-7.25-2.11-7.25Z" fill="#e15339"/>
    <path d="m142.18,99.25l3.78,4.89s3.82-2.71,3.47-7c-3.81-1.26-7.25,2.11-7.25,2.11Z" fill="#e15339"/>
    <path d="m143.31,106.14l-3.78-4.89s-3.82,2.71-3.47,7c3.81,1.26,7.25-2.11,7.25-2.11Z" fill="#e15339"/>
    <path d="m145.4,100.64c-1.13-1.46-3.24-1.73-4.7-.6-1.46,1.13-1.73,3.24-.6,4.7s3.24,1.73,4.7.6,1.73-3.24.6-4.7Z" fill="#ffd43d"/>
    <path d="m143.67,101.98c-.39-.51-1.12-.6-1.63-.21s-.6,1.12-.21,1.63c.39.51,1.12.6,1.63.21.51-.39.6-1.12.21-1.63Z" fill="#fff"/>
  </g>
</svg>