<?xml version="1.0" encoding="UTF-8"?>
<svg id="a" data-name="Слой 1" xmlns="http://www.w3.org/2000/svg" width="225.56" height="257.14" xmlns:xlink="http://www.w3.org/1999/xlink" viewBox="0 0 225.56 257.14">
  <defs>
    <clipPath id="b">
      <path d="m213.84,26.92c-21.06,1.69-41.01.1-62.12-.73-46.5-1.83-93,1.36-139.5-.47,3.26,15.64,14.78,23.65,28.57,31.73,13.79,8.08,29.72,11.74,45.54,13.95,31.02,4.34,63.2,3.43,92.88-6.56,9-3.03,31.01-20.41,34.61-37.92Z" fill="#f7e4c9"/>
    </clipPath>
  </defs>
  <g>
    <path d="m122.03,256.85c5.32.64,11.53.65,14.96-4.53,2.82-4.26,2.62-10.43,2.28-15.97-2.78-44.75-5.55-89.5-8.33-134.26-8.66,1.92-17.56,2.15-26.27.69-4.79,40.07-4.28,80.81-3.76,121.33.13,9.75.71,20.79,6.64,27.03,3.95,4.15,9.37,5.1,14.48,5.71Z" fill="#f7e4c9"/>
    <path d="m132.5,127.24c-.52-8.38-1.04-16.77-1.56-25.15-8.66,1.92-17.56,2.15-26.27.69-1.32,11.03-2.23,22.1-2.86,33.21,0,1.51,0,3.02,0,4.54,1.39-3.21,2.77-6.41,4.16-9.62.67,4.85,2.15,9.48,4.31,13.51,3.23-6.93,5.74-14.37,7.43-22.06,2.38,5.47,5.94,11.91,8.32,17.37.16-7.01.9-14.42,1.06-21.43,1.78,3.81,2.51,6.48,5.41,8.94Z" fill="#ead09e"/>
    <path d="m105.97,126.22c.67,4.85,2.15,9.48,4.31,13.51,3.23-6.93,5.74-14.37,7.43-22.06,2.38,5.47,4.76,10.94,7.15,16.4.16-7.01.32-14.03.48-21.04,2.88,6.15,7.56,10.87,12.96,13.09-5.2-18.11-7.09-37.86-5.49-57.32-10.77.72-21.56.25-32.21-1.4,3.86,21.16.56,44.56-8.92,63.3,3.64-.84,7.14-2.79,10.12-5.64,0,3.59,0,7.18,0,10.77,1.39-3.21,2.77-6.41,4.16-9.62Z" fill="#f7e4c9"/>
    <path d="m132.31,86.52c-.15-5.9,0-11.82.5-17.72-10.77.72-21.56.25-32.2-1.4,1.97,10.81,2.07,22.2.44,33.26,7.02-10.04,19.08-14.53,31.27-14.14Z" fill="#ead09e"/>
    <g>
      <path d="m213.84,26.92c-21.06,1.69-41.01.1-62.12-.73-46.5-1.83-93,1.36-139.5-.47,3.26,15.64,14.78,23.65,28.57,31.73,13.79,8.08,29.72,11.74,45.54,13.95,31.02,4.34,63.2,3.43,92.88-6.56,9-3.03,31.01-20.41,34.61-37.92Z" fill="#f7e4c9"/>
      <g clip-path="url(#b)">
        <g>
          <path d="m211.67.36c.73,1.08.03,3.22-1.54,6.47-.4.81-.83,1.7-1.34,2.63-.51.91-1.07,1.89-1.67,2.94-.59,1.05-1.23,2.17-1.89,3.35-.68,1.15-1.4,2.36-2.15,3.63-4.44,7.67-10.47,16.46-17.29,24.4-6.8,7.98-14.38,15.09-21.51,20.4-7.13,5.36-13.79,8.91-18.64,11.03-.61.27-1.18.52-1.73.77-.27.12-.54.24-.79.35-.26.09-.51.19-.75.27-.97.34-1.8.64-2.48.88-.68.23-1.21.41-1.57.52s-.55.15-.55.12c0-.03.18-.15.53-.36.35-.2.86-.49,1.53-.84.67-.35,1.48-.78,2.42-1.28.24-.12.48-.25.73-.38.25-.15.51-.3.77-.46.53-.31,1.09-.64,1.68-.99,4.72-2.73,11.18-6.96,18.05-12.84,6.88-5.84,14.14-13.3,20.71-21.34,6.58-8.01,12.45-16.58,16.98-23.75.75-1.2,1.48-2.34,2.15-3.47.65-1.16,1.26-2.27,1.84-3.3.58-1.04,1.12-2.01,1.62-2.91.5-.9.93-1.76,1.35-2.5,1.66-2.98,2.8-4.4,3.53-3.32Z" fill="#b59978"/>
          <path d="m225.05.44c.45.3.59,1.11.47,2.43-.05.66-.19,1.42-.4,2.3-.1.43-.21.91-.35,1.39-.14.48-.3.98-.47,1.51-1.35,4.25-3.92,9.58-7.29,15.21-2.53,4.25-5.61,8.51-9.03,12.61-.86,1.02-1.73,2.06-2.61,3.11-.89,1.03-1.81,2.02-2.74,3.05-.46.51-.93,1.02-1.4,1.53-.48.49-.95.98-1.44,1.47-.48.49-.96.98-1.45,1.48-.48.5-.97,1-1.47,1.46-3.94,3.86-8.1,7.38-12.27,10.58-1.05.77-2.09,1.55-3.13,2.32-1.05.71-2.1,1.42-3.14,2.13-1.03.72-2.08,1.35-3.11,1.98-.52.32-1.03.63-1.54.94-.26.16-.51.31-.76.47-.26.14-.51.28-.77.43-8.12,4.62-15.61,7.5-21.04,9.02-1.36.35-2.59.66-3.67.94-.54.15-1.04.25-1.5.33-.46.09-.89.17-1.27.24-.76.14-1.35.24-1.75.3-.4.06-.61.07-.61.04s.2-.13.6-.28.98-.37,1.73-.63c.38-.13.79-.27,1.25-.43.46-.15.95-.32,1.48-.54,1.06-.41,2.27-.88,3.61-1.39,5.34-2.15,12.67-5.74,20.56-10.92.25-.16.5-.32.74-.48.25-.17.49-.34.74-.52.5-.35.99-.69,1.49-1.04,1-.7,2.01-1.39,3.02-2.17,1.01-.76,2.02-1.53,3.04-2.3,1.01-.82,2.02-1.64,3.04-2.46,4.04-3.38,8.07-7.02,11.89-10.93.48-.47.95-.97,1.42-1.47.47-.5.94-.99,1.41-1.49.47-.49.93-.98,1.39-1.47.45-.51.91-1.02,1.36-1.52.9-1.02,1.8-1.99,2.67-3.01.86-1.03,1.72-2.04,2.55-3.04,3.35-4,6.34-8,8.83-11.86,3.33-5.14,5.49-10.34,6.84-14.03,1.37-3.68,2.14-5.85,3.07-5.25Z" fill="#b59978"/>
          <path d="m181.6,12.42c1.59,1.76-1,6.61-4.35,14.38-2.52,5.85-6.05,12.68-10.14,19.1-4.09,6.44-8.73,12.46-13.16,17.25-4.43,4.81-8.65,8.38-11.74,10.68-1.54,1.19-2.81,2-3.69,2.55-.88.56-1.37.83-1.38.77-.01-.06.43-.52,1.26-1.3.82-.79,2.02-1.86,3.47-3.33,2.91-2.86,6.86-7.04,11-12.29,4.14-5.23,8.45-11.53,12.31-17.99,3.87-6.44,7.27-13.04,9.92-18.43,3.55-7.21,4.87-13.23,6.52-11.39Z" fill="#b59978"/>
          <path d="m160.23,24.33c1.81,1.06.29,4.9-1.26,11-1.17,4.6-3.01,10.08-5.33,15.34-2.3,5.28-5.07,10.31-7.81,14.39-2.73,4.1-5.43,7.23-7.43,9.27-.99,1.05-1.83,1.78-2.4,2.28-.58.5-.9.75-.92.69-.02-.05.25-.47.75-1.18.5-.71,1.24-1.68,2.11-2.98,1.76-2.54,4.13-6.18,6.52-10.61,2.39-4.41,4.79-9.58,6.85-14.76,2.07-5.17,3.8-10.34,5.15-14.52,1.81-5.61,1.92-10.03,3.78-8.93Z" fill="#b59978"/>
          <path d="m150.34,20.38c1.91.36.9,4.5.11,10.76-.59,4.72-1.74,10.5-3.4,16.2-1.64,5.71-3.78,11.32-6.01,15.98-2.22,4.68-4.51,8.41-6.24,10.88-.85,1.27-1.59,2.18-2.1,2.81-.51.63-.8.95-.82.9-.02-.05.19-.52.61-1.33.41-.81,1.03-1.93,1.74-3.41,1.45-2.89,3.36-7.01,5.19-11.89,1.84-4.87,3.59-10.47,5-15.98,1.42-5.51,2.5-10.91,3.31-15.28,1.09-5.86.65-10.02,2.61-9.64Z" fill="#b59978"/>
          <path d="m140.12,24.5c.95.33,1.13,1.29.99,2.81-.07.76-.21,1.67-.37,2.7-.08.52-.17,1.07-.25,1.65-.09.58-.19,1.19-.27,1.84-.13.97-.27,1.99-.43,3.06-.16,1.07-.33,2.19-.55,3.32-.21,1.14-.43,2.31-.67,3.51-.12.6-.24,1.2-.36,1.81-.13.6-.27,1.21-.4,1.82-.56,2.43-1.11,4.92-1.77,7.32-.32,1.2-.64,2.39-.95,3.57-.32,1.17-.67,2.3-1,3.4-.33,1.1-.66,2.18-.97,3.21-.34,1.02-.66,1.99-.97,2.93-.62,1.86-1.18,3.52-1.7,4.86-1.02,2.71-1.68,4.33-1.75,4.28s.32-1.93,1-4.9c.35-1.47.72-3.27,1.16-5.25.22-.99.45-2.02.68-3.09.22-1.08.45-2.2.69-3.36.23-1.15.49-2.32.73-3.51.23-1.2.47-2.42.71-3.64.5-2.43.93-4.93,1.39-7.35.12-.6.23-1.2.34-1.8.11-.6.21-1.19.31-1.78.21-1.17.42-2.32.63-3.43.22-1.1.4-2.18.59-3.21.19-1.03.38-2.01.56-2.92.12-.61.23-1.2.32-1.77.08-.57.16-1.11.22-1.62.14-1.02.25-1.91.4-2.63.29-1.43.72-2.16,1.67-1.83Z" fill="#b59978"/>
          <path d="m127.54,61.47c-.2,1.05-.4,2.08-.58,3.07-.17,1-.33,1.96-.48,2.88-.31,1.84-.6,3.49-.85,4.87-.5,2.77-.86,4.47-.93,4.45-.07-.02-.03-1.79.1-4.68.07-1.44.16-3.16.27-5.07.06-.96.12-1.96.19-3.01.1-1.04.2-2.11.3-3.21.44-4.4.88-9.27,1.62-13.8.34-2.28.69-4.49,1.05-6.56.17-1.04.38-2.02.58-2.96.2-.94.4-1.83.6-2.66,1.06-4.43.98-7.85,2.81-6.78,1.83,1.07.57,3.64-.14,8.19-.13.85-.28,1.75-.45,2.69-.17.94-.36,1.91-.51,2.93-.34,2.04-.72,4.19-1.14,6.39" fill="#b59978"/>
          <path d="m122.69,30.26c1.95.11,1.11,2.99,1.12,7.38.03,13.18-2.66,39.4-2.96,39.38-.29-.02-.92-26.41.14-39.54.35-4.37-.26-7.34,1.69-7.23Z" fill="#b59978"/>
          <path d="m116.28,30.45c1.96-.24,1.26,2.89,1.49,7.44.68,13.64-.72,41.25-1.01,41.29-.29.04-2.22-27.17-1.81-40.94.14-4.59-.62-7.55,1.34-7.79Z" fill="#b59978"/>
          <path d="m109.54,27.98c.98.05,1.27.82,1.32,2.14.03.66,0,1.46-.04,2.37-.02.46-.03.95-.05,1.46,0,.51.01,1.05.04,1.62.04.84.07,1.74.09,2.68.02.94.03,1.92.08,2.93.04,1.01.07,2.06.09,3.13.01.54.02,1.08.04,1.62.02.54.05,1.09.07,1.64.1,2.2.15,4.48.3,6.71.06,1.12.12,2.23.18,3.33.06,1.1.16,2.17.24,3.22.08,1.06.15,2.08.22,3.08.09.99.18,1.94.27,2.84.17,1.81.3,3.47.47,4.82.3,2.73.45,4.46.38,4.51-.07.05-.52-1.48-1.19-4.03-.35-1.26-.68-2.83-1.06-4.58-.19-.88-.38-1.79-.58-2.76-.17-.98-.34-1.99-.52-3.03-.17-1.04-.37-2.11-.52-3.21-.14-1.11-.29-2.23-.43-3.36-.31-2.26-.49-4.59-.68-6.87-.04-.57-.09-1.14-.13-1.7-.03-.57-.05-1.13-.08-1.68-.05-1.11-.09-2.2-.12-3.26-.04-1.05-.03-2.08-.02-3.06.01-.98.03-1.92.06-2.8.02-.59.02-1.15.03-1.68.01-.53.02-1.04.03-1.52.01-.95.02-1.79.08-2.47.12-1.37.44-2.13,1.42-2.08Z" fill="#b59978"/>
          <path d="m101.21,30.55c1.97-.4,1.29,2.97,1.83,7.68.41,3.5.88,7.87,1.52,12.4.64,4.52,1.45,9.2,2.33,13.35,1.75,8.33,3.83,14.45,3.69,14.69-.03.05-.22-.23-.53-.78-.32-.55-.77-1.36-1.28-2.46-1.05-2.16-2.41-5.38-3.68-9.35-1.28-3.95-2.46-8.63-3.31-13.36-.86-4.72-1.37-9.46-1.53-13.33-.21-5.12-.98-8.45.96-8.84Z" fill="#b59978"/>
          <path d="m94.17,28.18c.97-.28,1.33.43,1.51,1.8.09.69.13,1.54.18,2.52.03.49.05,1.01.09,1.56.05.54.12,1.1.2,1.68.12.87.25,1.8.36,2.77.12.97.22,2,.39,3.03.15,1.04.3,2.12.44,3.22.07.55.14,1.11.21,1.68.08.56.18,1.11.27,1.67.37,2.24.67,4.6,1.12,6.82.2,1.13.41,2.25.61,3.36.21,1.1.46,2.14.67,3.19.22,1.05.43,2.07.64,3.06.24.96.46,1.88.68,2.76.43,1.76.8,3.4,1.18,4.67.72,2.6,1.14,4.29,1.09,4.39-.06.1-.73-1.16-1.78-3.34-.55-1.06-1.09-2.48-1.72-4.06-.31-.79-.64-1.62-.97-2.51-.3-.92-.61-1.88-.93-2.86-.31-.99-.66-1.99-.96-3.06-.29-1.09-.58-2.19-.87-3.3-.62-2.2-1.06-4.6-1.54-6.92-.11-.58-.23-1.16-.34-1.74-.09-.59-.18-1.18-.27-1.76-.17-1.17-.34-2.31-.49-3.42-.17-1.1-.26-2.21-.35-3.27-.09-1.06-.17-2.07-.23-3.03-.04-.64-.1-1.24-.15-1.82-.04-.58-.08-1.13-.12-1.64-.08-1.03-.15-1.93-.16-2.69-.01-1.52.24-2.45,1.21-2.74Z" fill="#b59978"/>
          <path d="m85.06,30.97c1.92-1.17,1.59,2.68,2.7,7.46.82,3.55,1.85,7.96,3.12,12.41,1.26,4.45,2.76,8.93,4.29,12.77,3.05,7.74,6.25,12.72,6.14,13.04-.02.06-.26-.12-.68-.51-.42-.39-1.02-.97-1.73-1.84-1.43-1.66-3.34-4.27-5.24-7.76-1.9-3.47-3.78-7.81-5.28-12.39-1.51-4.57-2.63-9.37-3.25-13.41-.83-5.35-1.94-8.62-.06-9.77Z" fill="#b59978"/>
          <path d="m69.28,31.07c1.75-1.75,2.2,2.59,4.41,7.51,1.65,3.67,3.75,8.19,6.17,12.61,2.42,4.43,5.16,8.75,7.83,12.33,2.67,3.6,5.26,6.44,7.18,8.39.95,1.01,1.75,1.73,2.29,2.28.54.54.84.87.82.93-.01.06-.35-.08-.96-.39-.61-.31-1.48-.76-2.54-1.49-2.12-1.37-5-3.6-7.99-6.76-2.99-3.13-6.09-7.19-8.75-11.63-2.67-4.42-4.89-9.21-6.39-13.35-1.99-5.49-3.79-8.75-2.09-10.44Z" fill="#b59978"/>
          <path d="m55.69,34.49c.81-1.02,1.5-.31,2.35,1.39.21.42.43.92.67,1.44.25.52.52,1.09.8,1.69.29.6.59,1.24.91,1.92.34.65.71,1.31,1.11,1.98,2.36,4.05,5.42,8.91,8.95,13.36,3.52,4.48,7.48,8.54,11.3,11.58,3.81,3.08,7.45,5.11,10.12,6.36.33.16.65.31.95.46.15.07.3.15.44.21.14.06.28.11.42.16.54.22,1,.41,1.38.56.76.32,1.17.53,1.17.6,0,.06-.44.05-1.23-.02-.39-.04-.87-.1-1.43-.16-.14-.02-.28-.04-.43-.05-.15-.03-.3-.07-.46-.1-.31-.07-.65-.15-1-.23-2.8-.62-6.66-1.95-10.75-4.5-4.1-2.51-8.42-6.23-12.21-10.67-3.8-4.42-7.05-9.55-9.31-14.14-3.02-6.09-5.33-9.87-3.75-11.85Z" fill="#b59978"/>
          <path d="m38.84,27.38c.82-.97,1.63.07,2.65,2.32.26.56.52,1.22.82,1.9.31.68.64,1.41,1,2.19.36.78.74,1.61,1.14,2.49.42.85.9,1.69,1.39,2.57,2.95,5.29,6.88,11.5,11.48,16.99,4.58,5.53,9.79,10.32,14.81,13.65,1.26.81,2.5,1.53,3.7,2.27,1.21.63,2.39,1.2,3.51,1.77,2.27.95,4.32,1.8,6.07,2.24.44.13.85.26,1.25.38.2.06.39.12.57.18.19.04.37.07.54.11.7.15,1.3.28,1.8.38.99.22,1.53.38,1.53.44,0,.06-.55.11-1.56.14-.5,0-1.12.02-1.83.03-.18,0-.36,0-.56,0-.19-.02-.39-.04-.59-.06-.4-.04-.83-.09-1.28-.14-1.81-.13-3.93-.63-6.3-1.25-1.17-.41-2.41-.81-3.68-1.29-1.26-.59-2.57-1.16-3.9-1.83-5.3-2.79-10.9-7.23-15.77-12.75-.61-.69-1.22-1.36-1.81-2.07-.58-.74-1.15-1.48-1.71-2.21-.28-.37-.56-.73-.84-1.09-.28-.36-.56-.72-.81-1.12-.52-.78-1.04-1.54-1.54-2.3-.25-.38-.5-.75-.75-1.13-.12-.19-.25-.37-.37-.56-.12-.2-.23-.39-.35-.59-.46-.79-.91-1.56-1.34-2.31-.43-.76-.87-1.48-1.26-2.24-.38-.77-.76-1.52-1.12-2.25-.49-.96-.95-1.89-1.4-2.77-.43-.91-.83-1.77-1.21-2.57-.38-.81-.73-1.56-1.06-2.26-.32-.71-.57-1.42-.81-2.05-.93-2.54-1.23-4.24-.41-5.21Z" fill="#b59978"/>
          <path d="m19.23,19.72c.83-.96,1.59,0,2.54,2.15.24.53.48,1.15.76,1.81.28.65.59,1.36.91,2.11.33.75.67,1.55,1.04,2.4.38.82.81,1.65,1.26,2.51,2.68,5.16,6.18,11.36,10.22,17.17,4.03,5.83,8.6,11.26,13.02,15.48,4.41,4.26,8.64,7.3,11.76,9.25.39.25.76.49,1.11.71.17.11.35.22.51.33.17.09.33.18.49.27.63.36,1.17.66,1.61.91.88.51,1.37.83,1.36.89,0,.06-.52-.06-1.45-.33-.46-.14-1.03-.31-1.68-.52-.16-.05-.33-.11-.51-.16-.17-.07-.35-.14-.53-.22-.37-.15-.76-.32-1.16-.49-3.27-1.34-7.75-3.71-12.45-7.47-4.71-3.73-9.63-8.83-13.93-14.65-4.31-5.79-7.97-12.26-10.53-17.93-3.41-7.53-5.95-12.34-4.33-14.22Z" fill="#b59978"/>
        </g>
      </g>
    </g>
    <path d="m213.84,26.92c.47-4.41-2.7-8.46-6.44-10.84-8.78-5.58-20.13-4.37-30.13-7.24-4.05-1.16-26.39-7.93-49.26-7.69-25.09.26-50.83,7.61-53.79,8.32-11.75,2.81-24.38-5.63-35.8-1.68-4.91,1.7-28.22,3.38-27.76,10.91.46,7.53,6.07,19.27,15.41,22.58,9.34,3.32,19.67,1.85,29.33-.37,9.66-2.22,19.36-5.16,29.27-4.68,18.88.91,36.39,14.16,55.1,11.41,8.69-1.28,16.56-5.95,25.21-7.49,7.39-1.31,14.97-.27,22.47-.13,7.51.15,15.47-.78,21.43-5.35,2.5-1.92,4.63-4.62,4.96-7.75Z" fill="#fc3f2b"/>
    <path d="m161.72,26.31c-12.22-.11-23.19,9.67-35.35,8.45-7.04-.71-13.12-5-19.74-7.48-10.61-3.98-22.36-3.24-33.59-1.79-11.24,1.44-22.59,3.52-33.82,2.03-3.48-.46-7.09-1.36-9.62-3.79-2.53-2.43-3.47-6.8-1.2-9.47,1.41-1.66,3.67-2.31,5.83-2.66,14.14-2.32,28.48,4.5,42.7,2.8,8.96-1.07,17.19-5.46,26-7.4,15.99-3.52,32.59,1.2,48.96.73,12.46-.35,22.1,1.2,33.78,5.55,5.32,1.99,13.84,1.65,13.52,7.32-.27,4.79-4.58,8.6-9.24,9.74-4.66,1.14-9.56.15-14.18-1.12-4.62-1.27-9.25-2.85-14.04-2.89Z" fill="#ef2414"/>
    <g>
      <path d="m86.15,33.67c.82-.14,2.07-.4,3.34-.81.63-.21,1.27-.45,1.85-.73.58-.28,1.11-.61,1.52-1,.83-.77.25-1.54-.72-2.11-.97-.57-2.33-1.01-3.08-.96-1.5.09-3.78.2-5.41.97-.82.38-1.52,1.01-1.92,1.66-.4.65-.49,1.36-.08,1.97.76,1.14,2.78,1.29,4.51,1.01Z" fill="#fff"/>
      <path d="m80.51,24.67c-.85-1.01-2.47-1.47-4.04-1.55-1.15-.05-2.37.08-3.34.62-.97.54-2.59,1.31-1.24,2.39,1.36,1.08,4.55.49,6.88.48.67,0,1.45-.05,1.87-.48.42-.43.24-1.04-.12-1.47Z" fill="#fff"/>
      <path d="m75.59,30.65c-.83-.53-2.08-.47-3.2-.33-1.02.13-2.08.25-2.94.7-.86.44-2.04,2.41-.73,3.4,1.31.99,2.51.35,3.77.23,1.26-.15,2.55-.62,3.29-1.43.73-.81.73-1.99-.18-2.58Z" fill="#fff"/>
      <path d="m105.56,6.54c-.85-.43-1.98-.23-2.98.05-.91.25-1.84.56-2.55,1.13-.71.57-1.44,2.7-.1,3.48,1.35.77,2.33-.06,3.46-.35,1.13-.3,2.24-.91,2.77-1.79.54-.88.34-2.04-.6-2.51Z" fill="#fff"/>
      <path d="m70.67,18.26c.55-.84.02-1.86-.91-2.37-.93-.51-2.13-.56-3.25-.45s-1.05.14-3.35.44c-.57.07-1.18.24-1.7.46-.53.22-.98.46-1.24.74-.52.54-.29,1.22,1.61,1.63l4.8.46c.73.07,1.48.14,2.22.03.74-.11,1.47-.42,1.82-.94Z" fill="#fff"/>
      <path d="m52.8,22.67c1.69.44,3.46.64,5.32.4,1.85-.24.26-2.21-.82-2.86-1.09-.65-2.53-.77-3.89-.79-.53,0-1.11.04-1.62.16-.51.11-.94.33-1.16.71-.29.5-.06,1.12.4,1.54.46.42,1.12.68,1.78.84Z" fill="#fff"/>
      <path d="m113.68,17.6c1.01-.12,2-.31,2.95-.59.95-.31,1.87-.74,2.74-1.29,1.73-1.09-1.05-2.41-2.52-2.58-.74-.07-1.5-.03-2.25.13-.75.15-1.49.41-2.2.68-1.1.43-2.34,1.13-2.34,2.13,0,.65.59,1.19,1.31,1.42.72.23,1.54.19,2.32.1Z" fill="#fff"/>
      <path d="m100.97,22.81c-.95.13-1.91.31-2.8.6-.54.19-2.8,1.55-1.64,2.34,1.16.91,9.09,1.05,10.25.36,1.16-.7.41-1.7-.21-2.36-.63-.66-1.63-1.01-2.62-1.11-.99-.1-1.99.03-2.98.17Z" fill="#fff"/>
      <path d="m40.89,10.92c-.94-.07-1.88-.04-2.81-.01-.53.02-1.11.05-1.52.32-.44.29-1.7,2.36-.02,2.63.84.13,2.52.49,4.18.74.83.12,1.66.24,2.37.25.71,0,1.31-.06,1.69-.22,1.51-.63.33-2.02-.55-2.69-.44-.34-.98-.55-1.55-.71-.57-.17-1.18-.27-1.78-.31Z" fill="#fff"/>
      <path d="m89.58,13.8c-.45.18-.9.36-1.34.53-.44.18-.88.38-1.31.57-.49.22-1.02.47-1.28.88-.28.43-.46,2.77,1.25,2.37.86-.21,2.62-.48,4.28-1,1.67-.48,3.26-1.05,3.82-1.62,1.11-1.14-.66-1.93-1.81-2.19-1.16-.26-2.44.02-3.6.46Z" fill="#fff"/>
      <path d="m42.35,27.19c-.13-.89-1.46-1.37-2.58-1.6-1.8-.36-3.67-.88-5.48-.65-1.8.23-2.49,2.35-.3,2.32,2.18-.03,2.51.67,3.77,1.01.92.25,1.9.5,2.85.38.95-.11,1.84-.72,1.74-1.46Z" fill="#fff"/>
      <path d="m82.09,10.64c-.58-.74-1.9-.64-2.94-.39-1.66.39-3.46.68-4.83,1.6-.69.43-.89,1.17-.7,1.72.19.54.79.89,1.68.43,1.78-.89,2.42-.4,3.64-.6.89-.15,1.81-.31,2.52-.78.71-.47,1.1-1.36.63-1.97Z" fill="#fff"/>
      <path d="m135.93,8.88c-1.61.09-5,.46-6.8,1.74-.9.65-.43,1.5.45,2.19.88.69,2.16,1.27,2.89,1.31,1.48.08,3.72.24,5.4-.34,1.68-.6,3.01-2.09,2.33-3.39-.62-1.2-2.57-1.59-4.27-1.51Z" fill="#fff"/>
      <path d="m140.49,18.46c.73,1.09,2.29,1.71,3.84,1.94,1.13.17,2.36.15,3.37-.29,1.01-.44,2.68-1.05,1.44-2.26-1.24-1.21-4.44-.93-6.74-1.15-.66-.06-1.43-.09-1.89.29-.46.39-.34,1.01-.03,1.47Z" fill="#fff"/>
      <path d="m145.92,12.98c.76.61,1.99.67,3.1.63,1.01-.03,2.06-.08,2.95-.45.88-.37,2.19-2.24,1-3.33-1.2-1.09-2.41-.55-3.65-.54-1.24.03-2.54.37-3.33,1.11-.79.74-.9,1.91-.06,2.59Z" fill="#fff"/>
      <path d="m113.2,33.19c.78.55,1.95.51,3,.39.95-.11,1.93-.29,2.74-.75.8-.46,1.84-2.46.61-3.42-1.24-.96-2.33-.29-3.5-.16-1.18.13-2.37.57-3.04,1.36-.67.79-.66,1.97.2,2.58Z" fill="#fff"/>
      <path d="m149.65,25.79c-.62.78-.19,1.85.7,2.44.89.58,2.1.73,3.23.71,1.14-.02,1.07-.05,3.41-.16,1.17-.06,2.49-.47,3.05-.97.56-.51.37-1.19-1.5-1.74l-4.77-.85c-.73-.13-1.47-.26-2.22-.21-.74.05-1.5.3-1.91.79Z" fill="#fff"/>
      <path d="m167.84,22.68c-1.66-.54-3.41-.86-5.27-.74-1.86.12-.41,2.19.64,2.91,1.05.72,2.48.93,3.85,1.03,1.06.06,2.36.02,2.84-.71.31-.48.12-1.11-.32-1.55-.44-.44-1.08-.73-1.73-.93Z" fill="#fff"/>
      <path d="m134.43,31.81c-1.03,0-2.05.08-3.05.25-1,.19-1.98.5-2.93.92-1.89.86.74,2.53,2.22,2.89,1.48.36,3.12.11,4.62-.29,1.17-.3,2.51-.86,2.63-1.85.08-.65-.46-1.25-1.16-1.56-.7-.31-1.53-.36-2.33-.36Z" fill="#fff"/>
      <path d="m165.87,38.61c.98-.07,1.98-.17,2.91-.43.57-.17,2.95-1.41,1.8-2.26-1.15-.92-9.22-1.6-10.45-.98-1.23.63-.54,1.67.05,2.37.6.7,1.6,1.11,2.61,1.28,1.01.16,2.05.1,3.08.02Z" fill="#fff"/>
      <path d="m179.32,34.97c.95.1,1.91.1,2.87.1.55,0,1.13-.02,1.56-.28.46-.28,1.78-2.31.08-2.63-1.69-.3-6.77-1.67-8.33-1.06-1.55.56-.42,2,.45,2.71.44.36.97.6,1.55.78.58.19,1.2.3,1.81.37Z" fill="#fff"/>
      <path d="m130.24,28.21c.95-.23,1.87-.49,2.78-.78.52-.16,1.08-.35,1.39-.73.33-.4.78-2.7-.97-2.5-1.75.15-7.11.59-8.38,1.58-1.26.98.4,2,1.52,2.41,1.12.41,2.45.3,3.66.02Z" fill="#fff"/>
      <path d="m178.44,18.66c.09.89,1.39,1.41,2.51,1.67,1.78.42,3.62.99,5.42.81,1.8-.18,2.51-2.28.36-2.31-2.15-.03-2.46-.74-3.7-1.12-.91-.27-1.86-.55-2.8-.46-.94.09-1.85.67-1.77,1.41Z" fill="#fff"/>
      <path d="m141.59,34.76c.51.79,1.87.82,2.95.67,1.73-.23,3.6-.34,5.07-1.13,1.48-.73,1.09-2.94-.8-2.23-1.88.71-2.49.17-3.74.25-.91.06-1.87.13-2.64.53-.77.4-1.26,1.25-.84,1.9Z" fill="#fff"/>
    </g>
  </g>
  <g>
    <circle cx="59.98" cy="191.27" r="59.98"/>
    <g>
      <path d="m80.6,158.14c-1.97-3.53-4.13-6.11-8.87-8.84-15.89-8.41-40.21,4.73-35.94,24.46.61,2.83,1.87,5.61,1.55,8.49-.2,1.81-1.03,3.64-.53,5.39,1.45,4.98,11.04,3.34,11.71,8.72.4,3.2,2.04,3.41,3.09,2.78.37-.22.83-.16,1.12.15.49.53,1.46.67,2.12.15.34-.27.83-.21,1.14.09.63.61,1.69.68,2.4.17.33-.24.77-.24,1.07.03.55.49,1.55.54,2.19-.02.32-.28.8-.33,1.13-.05.66.57,1.77.52,2.4-.07.29-.27.7-.35,1.05-.16.4.21.9.16,1.25-.11.31-.24.73-.2,1.06.02,1.24.86,3.44-1.61,3.13-3.13-.91-4.51,6.41-5.52,8.42-6.51,4.59-2.25,2.43-5.7,2.2-6.34-1.63-4.43,4.96-13.28-1.69-25.21Zm-25.92,23.81c-6.85,5.47-15.23.72-8.71-5.61,6.63-6.44,14.78.77,8.71,5.61Zm9.1,7.99c-.94,1.09-1.85.9-2.45.25-.44-.47-1.15-.48-1.66-.08-.28.22-.68.35-1.26.32-2.26-.13-1.94-4.99,1.75-7.94.38-.3.94-.22,1.23.17,1.45,1.93,3.98,5.45,2.39,7.29Zm12.57-6.83c-2.81,3.38-13-1.72-12.29-5.95,1.36-8.09,17.28-.05,12.29,5.95Z" fill="#fff"/>
      <path d="m40.12,204.97c-6.68-2.47-3.62-5.55-5.89-8.43-2.44-3.09-7.84-.16-6.17,4.15.63,1.63,2.2,2.77,2.8,4.42-1.53.87-3.63.46-5.01,1.57-2.73,2.2.04,7.56,5.38,5.77,6.31-2.11,1.55-4.58,9.11-1.92,3.34,1.17,41.11,15.11,42.52,18.3.54,1.21.52,2.69,1.37,3.71,1.4,1.69,4.56,1.47,5.95-.63,2.85-4.31-5.06-6.99.84-7.8,2.24-.31,3.72-3.05,2.87-5.15-.85-2.1-3.66-3.06-5.69-2.06-8.48,4.2,6.75,8.33-48.09-11.94Z" fill="#fff"/>
      <path d="m78.88,204.97c6.68-2.47,3.62-5.55,5.89-8.43,2.44-3.09,7.84-.16,6.17,4.15-.63,1.63-2.2,2.77-2.8,4.42,1.53.87,3.63.46,5.01,1.57,2.73,2.2-.04,7.56-5.38,5.77-6.31-2.11-1.55-4.58-9.11-1.92-3.34,1.17-41.11,15.11-42.52,18.3-.54,1.21-.52,2.69-1.37,3.71-1.4,1.69-4.56,1.47-5.95-.63-2.85-4.31,5.06-6.99-.84-7.8-2.24-.31-3.72-3.05-2.87-5.15.85-2.1,3.66-3.06,5.69-2.06,8.48,4.2-6.75,8.33,48.09-11.94Z" fill="#fff"/>
    </g>
  </g>
</svg>