<?xml version="1.0" encoding="UTF-8"?>
<svg id="a" data-name="Слой 1" xmlns="http://www.w3.org/2000/svg" width="223.69" height="256" viewBox="0 0 223.69 256">
  <path d="m63.06,107.4s-8.5,17.32-12.91,47.24c-4.41,29.92-5.36,64.88,15.75,88.81,11.83,13.42,36.83,14.07,59.23,11.1,41-5.42,65.02-11.36,55.72-61.18-4.41-23.62-22.68-79.37-31.5-86.92-8.82-7.56-86.29.94-86.29.94Z" fill="#efc7a0" fill-rule="evenodd"/>
  <path d="m63.06,107.4s-5.7,11.62-10.19,32.27c3.2-4.15,12.28-13.02,31.19-12.56,24.65.59,70.2,8.38,84.31,21.51-6.64-19.69-14.22-38.05-19.02-42.16-8.82-7.56-86.29.94-86.29.94Z" fill="#d3a780" fill-rule="evenodd"/>
  <path d="m49.91,210.19c.28,1.34.59,2.67.93,3.99-.28-1.82-.59-3.12-.93-3.99h0Zm5.94,17.94c2.59,5.45,5.89,10.6,10.05,15.32,11.83,13.42,36.83,14.07,59.23,11.1,41-5.42,65.02-11.36,55.72-61.18-1.74-9.3-5.62-23.58-10.23-37.94.22.8,8.13,29.57,8.75,48.82.63,19.53-6.77,27.4-10.08,28.35-3.31.94-5.67-.63-10.08-.16-4.41.47-14.8-5.98-21.1-3.78-6.3,2.2-8.82,2.83-11.65,6.61-2.83,3.78.32,8.82-6.93,8.82s-6.93-.31-12.28-.94c-5.35-.63-7.87.31-16.38,2.2-8.5,1.89-14.17,3.78-17.95-.31-2.7-2.93-11.3-7.42-17.07-16.91Z" fill="#daac83" fill-rule="evenodd"/>
  <g>
    <path d="m33.15,112.75C2.91,102.36-4.02,86.29,1.97,62.36,7.95,38.42,36.61,0,104.64,0s119.68,46.3,119.05,87.55c-.7,45.92-150.99,38.79-190.54,25.2Z" fill="#a25f32" fill-rule="evenodd"/>
    <path d="m33.15,112.75C2.91,102.36-4.02,86.29,1.97,62.36c1.71-6.84,5.28-14.87,11.09-22.85-2.5,3.57-11.43,17.93-6.4,34.82,5.83,19.53,23.3,31.18,47.4,35.59,24.09,4.41,22.2-10.08,30.86-9.13,8.66.94,11.18,11.18,20.16,12.76,8.98,1.57,39.05,6.46,53.22,2.99,14.17-3.46,15.74-3.46,19.84-1.73,4.1,1.73,21.06-4.12,26.4-7.18,1.46-.83,1.74.25,1.25,2.29-41.15,20.27-141.42,13.57-172.65,2.84Z" fill="#8e4d23" fill-rule="evenodd"/>
    <path d="m84.13,3.16c32.11-4.54,73.93-.07,94.8,29.92,20.87,29.99-11.97,40.63-33.38,40-21.42-.63-20.47-11.65-45.04-16.38-24.57-4.72-31.5,8.82-47.56,9.76C-7.39,70.01,16.07,12.79,84.13,3.16Z" fill="#b56d3e" fill-rule="evenodd"/>
  </g>
</svg>