<?xml version="1.0" encoding="UTF-8"?>
<svg xmlns="http://www.w3.org/2000/svg" width="230.05" height="224.06" xmlns:xlink="http://www.w3.org/1999/xlink" viewBox="0 0 230.05 224.06">
  <defs>
    <linearGradient id="coin-svg-linearGradient-b" x1="22.19" y1="238.06" x2="221.84" y2="64.82" gradientUnits="userSpaceOnUse">
      <stop offset="0" stop-color="#d13f05"/>
      <stop offset=".29" stop-color="#f67205"/>
      <stop offset=".37" stop-color="#f67605"/>
      <stop offset=".45" stop-color="#f68405"/>
      <stop offset=".54" stop-color="#f69b05"/>
      <stop offset=".56" stop-color="#f6a205"/>
      <stop offset=".6" stop-color="#f69005"/>
      <stop offset=".64" stop-color="#f67f05"/>
      <stop offset=".69" stop-color="#f67505"/>
      <stop offset=".76" stop-color="#f67205"/>
      <stop offset="1" stop-color="#d13f05"/>
    </linearGradient>
    <linearGradient id="coin-svg-linearGradient-c" x1="52.61" y1="224.46" x2="250.14" y2="53.07" xlink:href="#coin-svg-linearGradient-b"/>
    <linearGradient id="coin-svg-linearGradient-d" x1="74.78" y1="252.53" x2="254.65" y2="96.46" xlink:href="#coin-svg-linearGradient-b"/>
    <linearGradient id="coin-svg-linearGradient-e" x1="35.39" y1="34.7" x2="149.29" y2="143.57" gradientUnits="userSpaceOnUse">
      <stop offset="0" stop-color="#fff" stop-opacity="0"/>
      <stop offset=".26" stop-color="#fff"/>
      <stop offset=".76" stop-color="#fff"/>
      <stop offset="1" stop-color="#fff" stop-opacity="0"/>
    </linearGradient>
    <linearGradient id="coin-svg-linearGradient-f" x1="29.16" y1="101.88" x2="185.34" y2="101.88" gradientUnits="userSpaceOnUse">
      <stop offset="0" stop-color="#cf4505"/>
      <stop offset="1" stop-color="#e45905"/>
    </linearGradient>
  </defs>
  <g>
    <path d="m198.55,35.4c5.18,7.14,10.37,14.27,15.56,21.41,10.37,14.27,15.96,31.78,15.94,50.53l-16.29-13.8c.02-18.75-4.84-43.87-15.21-58.14Z" fill="url(#coin-svg-linearGradient-b)"/>
    <path d="m140.94,191.77l15.56,21.41c-22.6,8.5-55.76,14.63-78.52,8.23-17.47-4.92-31.73-14.18-42.19-26.29l-15.56-21.41c10.46,12.11,24.72,21.37,42.19,26.29,22.76,6.4,78.52-8.23,78.52-8.23Z" fill="url(#coin-svg-linearGradient-c)"/>
    <path d="m213.76,93.54c-.98,11.61-4.08,23.56-9.51,35.43-12.87,28.16-36.26,50.21-63.32,62.8l15.56,21.41c27.06-12.59,50.45-34.63,63.32-62.8,5.42-11.86,8.52-23.82,9.5-35.43l.74-7.61" fill="url(#coin-svg-linearGradient-d)"/>
    <path d="m163.12,7.63c32.58,13.7,51.41,43.92,51.37,78.3l-.32,7.94c-.98,11.61-4.08,23.56-9.51,35.43-12.87,28.16-36.26,50.21-63.32,62.8l-9.06,3.8c-22.6,8.49-47.11,10.5-69.87,4.1-17.47-4.92-31.73-14.18-42.19-26.29l-8.49-11.81c-14.36-24.32-16.17-56.2-1.9-87.43,4.25-9.31,9.68-17.96,15.97-25.81l11.2-12.22C63.35,11.07,99.88-2.9,134.57.51l28.55,7.12Z" fill="#ffb600"/>
    <path d="m137.87,30.01c39.16,11.02,56.31,51.95,38.28,91.4-18.02,39.44-64.41,62.5-103.57,51.48-39.16-11.02-56.31-51.95-38.29-91.4,18.02-39.44,64.41-62.5,103.57-51.48Z" fill="url(#coin-svg-linearGradient-e)" mix-blend-mode="overlay" opacity=".7"/>
    <path d="m139.89,30.45c39.16,11.02,56.31,51.95,38.28,91.39-18.02,39.44-64.41,62.49-103.57,51.48-39.16-11.02-56.31-51.95-38.29-91.39,18.02-39.44,64.41-62.5,103.57-51.48Z" fill="url(#coin-svg-linearGradient-f)"/>
    <path d="m80.82,174.53c-39.16-11.02-56.31-51.95-38.29-91.39,16.69-36.53,57.7-58.98,94.78-53.35-38.6-9.33-83.36,13.55-100.99,52.13-18.02,39.44-.88,80.37,38.29,91.39,2.89.82,5.83,1.42,8.79,1.87-.86-.21-1.72-.41-2.58-.65Z" fill="#ba3e05"/>
  </g>
</svg>
