<?xml version="1.0" encoding="UTF-8"?>
<svg xmlns="http://www.w3.org/2000/svg" width="288.76" height="455.61" xmlns:xlink="http://www.w3.org/1999/xlink" viewBox="0 0 288.76 455.61">
  <defs>
    <linearGradient id="linearGradient-cap" x1="97.47" y1="31.78" x2="191.3" y2="31.78" gradientUnits="userSpaceOnUse">
      <stop offset="0" stop-color="#844d28"/>
      <stop offset="1" stop-color="#63311f"/>
    </linearGradient>
  </defs>
  <path d="m286.76,311.22c0,78.18-63.01,141.64-141.02,142.38-78.57.74-143.75-63.81-143.75-142.38,0-58.08,34.77-108.03,84.64-130.18,10.02-4.45,16.38-14.48,16.38-25.44v-77.44h82.73v77.44c0,10.98,6.4,21,16.42,25.46,49.84,22.16,84.6,72.1,84.6,130.16Z" fill="#fff" stroke="#000" stroke-miterlimit="10" stroke-width="4"/>
  <path d="m20.89,279.35s30.69-27.58,75.32-13.46,79.35,60.93,133.99,32.52,18.64,28.59,18.64,28.59l-166,40-59-60s-5.89-10.31-2.95-27.65Z" fill="#90EE90"/>
  <path d="m20.89,279.35s30.69-27.58,75.32-13.46,79.35,60.93,133.99,32.52,18.64,28.59,18.64,28.59l-166,40-59-60s-5.89-10.31-2.95-27.65Z" opacity=".1"/>
  <path d="m20.89,279.35s9.69,45.48,75.32,50.07,79.2-37.62,139.76-69.61c12.87-6.8,24.01,0,24.01,0,0,0,9.58,26.01,10.22,38.6s-2.87,50.23-13.12,68.91-28.27,40.41-41.76,48.05-61.23,32.46-101.86,19.05-73.44-43.64-80.04-60.53c-6.6-16.88-23.49-49.19-12.54-94.54Z" fill="#90EE90"/>
  <path d="m270.83,311.15c0,69.43-55.96,125.79-125.24,126.45-69.77.66-127.67-56.67-127.67-126.45,0-51.58,30.88-95.95,75.17-115.61,8.89-3.95,23.73-12.86,23.73-22.59v-90.94h56v90.95c0,9.75,13.96,18.65,22.87,22.61,44.26,19.68,75.13,64.03,75.13,115.6Z" fill="none" stroke="#000" stroke-miterlimit="10" stroke-width="4"/>
  <path d="m201.65,52.31v22.67c0,8.57-25.64,15.51-57.27,15.51s-57.27-6.94-57.27-15.51v-22.67h114.54Z" fill="#f4f4f4" stroke="#000" stroke-miterlimit="10" stroke-width="4"/>
  <ellipse cx="144.38" cy="52.31" rx="57.27" ry="15.51" fill="#fff" stroke="#000" stroke-miterlimit="10" stroke-width="4"/>
  <path d="m186.73,12.32c3.3,2.38,5.02,6.4,4.47,10.44l-3.45,25.44c-.39,2.86-2.18,5.32-4.78,6.56-5.75,2.74-17.76,6.8-38.58,6.8s-32.84-4.06-38.58-6.8c-2.59-1.24-4.39-3.7-4.78-6.56l-3.45-25.44c-.55-4.04,1.17-8.05,4.47-10.44,12.62-9.11,27.48-10.32,42.35-10.32s29.73,1.21,42.35,10.32Z" fill="url(#linearGradient-cap)" stroke="#000" stroke-miterlimit="10" stroke-width="4"/>
</svg>
