<?xml version="1.0" encoding="UTF-8"?>
<svg xmlns="http://www.w3.org/2000/svg" width="473.07" height="489.84" viewBox="0 0 473.07 489.84">
  <g isolation="isolate">
    <g id="a" data-name="Слой 1">
      <g>
        <path d="m62.63,62.45s-12.26.48-23.04,2.77c-10.29,2.19-45.11,18.66-38.84,46.11,6.42,28.07,29.15,27.95,40.93,23.3,20.66-8.15,150.34-43.75,150.34-43.75L62.63,62.45Z" fill="#de9e6c"/>
        <path id="b" data-name="background" d="m45.67,106.89c8.36,2.73,12.04,8.66,10.37,14.64-1.33,4.81-5.43,9.64-15.91,13.75.74-.13,151.9-44.4,151.9-44.4l-52.54-11.54-93.82,27.56Z" fill="#ffe4d2"/>
        <path d="m93.79,107.69c1.26,3.61,2.24,7.31,2.95,11.08,43.18-12.63,95.29-27.89,95.29-27.89l-52.54-11.54-52.78,15.5c.23.25.44.5.65.74" fill="#c17759"/>
        <path id="c" data-name="background" d="m334.44,10.56s-22.02-15.38-59.35-9.03c-15.3,2.6-172.48,50.14-190.73,54.06-12.63,2.7-25.22,5.5-37.87,7.99-13.45,2.66-14.21,4.19-14.21,4.19,6.37-1.41,16.9-2.01,24.5.2,96.05,27.8,23.77,236.39,24.12,292.53.19,31.29,6.62,74.48,33.73,107.79,27.1,33.3,78.26,18.07,78.26,18.07l243.26-78.89c-123.18-6.62-87.6-141.2-74.36-200.84,13.02-58.63,42.08-152.21-27.36-196.07Z" fill="#ffe4d2"/>
        <path d="m198.31,436.42s-5.57.29-10.33,2.18c-4.77,1.89-12.8,10.39-8.52,16.86,0,0,4.47,7.28,15.28,3.47l35.22-12.9s-17.99-12.52-31.65-9.61Z" fill="#de9e6c" mix-blend-mode="multiply"/>
        <path d="m449.78,362.36c-5.97-.59-11.41.65-11.41.65l-22.74,6.83c-6.9,2.59-13.78,5.23-20.69,7.81-17.31,6.47-34.95,12.35-52.5,18.29-17.66,5.96-35.36,11.43-53.39,16.22-17.96,4.77-35.95,9.47-53.97,13.9-8.85,2.18-17.73,4.2-26.58,6.35-6.07,1.48-12.04,3.56-18.07,5.2l-2.44.99c25.01-6.86,39.47,13.63,33.35,27.91-6.11,14.27-35.76,21.46-35.76,21.46,39.82-7.62,255.79-80.68,267.64-84.22,14.14-4.23,18.06-12.51,18.06-12.51,7.32-21.48-9.31-27.67-21.5-28.87Z" fill="#edc49c"/>
      </g>
    </g>
  </g>
</svg>