<svg width="64" height="52" viewBox="0 0 64 52" fill="none" xmlns="http://www.w3.org/2000/svg">
<path fill-rule="evenodd" clip-rule="evenodd" d="M34.7391 1.08077C34.1995 1.67523 33.7577 2.93445 33.7577 3.87991C33.7577 5.29927 35.1755 7.01409 41.9035 13.731L50.0488 21.8636H26.1894C3.11985 21.8636 2.29026 21.9026 1.14343 23.0455C-0.381142 24.5647 -0.381142 27.4353 1.14343 28.9545C2.29026 30.0974 3.11985 30.1364 26.1894 30.1364H50.0488L41.9035 38.269C34.965 45.1963 33.7577 46.6718 33.7577 48.2229C33.7577 50.4666 35.3487 52 37.6773 52C39.1669 52 41.2631 50.164 51.7139 39.7067C60.8352 30.5795 64 27.0489 64 26C64 24.9511 60.8352 21.4205 51.7139 12.2933C40.9554 1.52809 39.1977 0 37.5741 0C36.5317 0 35.2911 0.472728 34.7391 1.08077Z" fill="currentColor"/>
</svg>
