<svg width="16" height="28" viewBox="0 0 16 28" fill="none" xmlns="http://www.w3.org/2000/svg">
<path fill-rule="evenodd" clip-rule="evenodd" d="M14.1961 0.108798C14.5114 0.247672 15.6635 1.40537 15.8472 1.76795C16.0185 2.10597 16.0302 2.76683 15.8708 3.09437C15.808 3.22342 13.4172 5.72938 10.5578 8.66325L5.3589 13.9975L10.5578 19.3318C13.4172 22.2656 15.8127 24.7807 15.8811 24.921C16.0381 25.2426 16.0399 25.8249 15.885 26.2016C15.7372 26.5611 14.6261 27.6785 14.2319 27.8642C14.0744 27.9384 13.8168 27.9994 13.6594 27.9999C12.9952 28.002 13.042 28.0456 6.45697 21.2825C3.04668 17.7798 0.199635 14.7986 0.130365 14.6574C-0.0641327 14.2615 -0.038229 13.6475 0.189545 13.2549C0.292804 13.0769 3.15345 10.0953 6.62385 6.54862C12.045 1.00825 12.9112 0.151619 13.1668 0.0778556C13.5586 -0.0352819 13.8916 -0.0252366 14.1961 0.108798Z" fill="currentColor"/>
</svg>
