<svg width="28" height="20" viewBox="0 0 28 20" fill="none" xmlns="http://www.w3.org/2000/svg">
<path fill-rule="evenodd" clip-rule="evenodd" d="M15.607 0.616058C15.1159 1.37358 10.2856 17.7881 10.2856 18.7003C10.2856 20.0248 11.6833 20.4806 12.3927 19.3871C12.8816 18.6332 17.7696 2.0752 17.779 1.14054C17.791 -0.0680441 16.2867 -0.431508 15.607 0.616058ZM2.95845 6.43926C0.697592 8.60447 -0.00012207 9.44486 -0.00012207 10.0016C-0.00012207 10.5583 0.697592 11.3987 2.95845 13.5639C4.58559 15.1226 6.00845 16.3977 6.12016 16.3977C6.77759 16.3977 7.42845 15.7389 7.42845 15.0731C7.42845 14.5111 6.87759 13.785 5.22074 12.1629L3.01331 10.0016L5.22074 7.84028C6.87759 6.21818 7.42845 5.49209 7.42845 4.93007C7.42845 4.26432 6.77759 3.60553 6.12016 3.60553C6.00845 3.60553 4.58559 4.88057 2.95845 6.43926ZM21.0713 3.90586C20.0033 4.51154 20.4644 5.5744 22.779 7.84028L24.9864 10.0016L22.779 12.1629C21.1222 13.785 20.5713 14.5111 20.5713 15.0731C20.5713 15.7389 21.2222 16.3977 21.8796 16.3977C21.9913 16.3977 23.4142 15.1226 25.0413 13.5639C27.3022 11.3987 27.9999 10.5583 27.9999 10.0016C27.9999 9.44486 27.3022 8.60447 25.0413 6.43926C23.4142 4.88057 21.9676 3.60942 21.827 3.61387C21.6864 3.6186 21.3464 3.74986 21.0713 3.90586Z" fill="currentColor"/>
</svg>
