<svg width="24" height="25" viewBox="0 0 24 25" fill="none" xmlns="http://www.w3.org/2000/svg">
<path fill-rule="evenodd" clip-rule="evenodd" d="M10.434 0.564479C6.48771 1.12167 3.07694 3.52324 1.29925 6.99642C0.807427 7.9573 0.36901 9.20343 0.139211 10.2935C-0.0464038 11.1739 -0.0464038 13.8505 0.139211 14.7309C1.18788 19.7046 4.79929 23.3131 9.77709 24.3609C10.6582 24.5464 13.337 24.5464 14.2182 24.3609C17.9658 23.5721 21.0299 21.2831 22.696 18.028C23.6334 16.1963 24 14.6459 24 12.5122C24 10.8915 23.8887 10.1541 23.4321 8.7491C22.1164 4.70088 18.6585 1.61206 14.4478 0.723545C13.4536 0.513846 11.3761 0.431468 10.434 0.564479ZM11.4713 6.19016C10.7456 6.50579 10.745 6.50932 10.745 10.3831C10.745 12.7437 10.7867 13.9739 10.8722 14.1411C11.0958 14.5778 11.4553 14.7828 11.9976 14.7828C12.54 14.7828 12.8995 14.5778 13.1231 14.1411C13.2086 13.9739 13.2503 12.7437 13.2503 10.3831C13.2503 6.491 13.2518 6.49965 12.4988 6.18527C12.0364 5.99218 11.9253 5.99275 11.4713 6.19016ZM11.1567 16.5045C10.4967 17.0234 10.3446 17.7978 10.7769 18.4388C11.1012 18.9197 11.4647 19.1076 12.0743 19.1098C13.3736 19.1145 13.9171 17.4168 12.8923 16.5552C12.4429 16.1773 11.6042 16.1528 11.1567 16.5045Z" fill="currentColor"/>
</svg>
