<svg width="48" height="48" viewBox="0 0 48 48" fill="none" xmlns="http://www.w3.org/2000/svg">
<path fill-rule="evenodd" clip-rule="evenodd" d="M6.07711 0.211823C3.76417 0.701044 1.82136 2.21728 0.750268 4.3691C-0.0421548 5.96121 0.000443044 4.84632 0.000443044 23.9938C0.000443044 43.1527 -0.0439963 41.9997 0.757265 43.6378C1.8038 45.7773 3.78148 47.2923 6.16968 47.7839C7.55086 48.0683 23.4647 48.0736 24.8954 47.7902C27.465 47.281 29.6368 45.4707 30.5693 43.0605C31.0688 41.7693 31.2153 40.249 31.16 36.9298C31.1099 33.9173 31.0784 33.7807 30.2699 33.0732C29.5322 32.4276 28.3374 32.3887 27.5532 32.9848C26.6973 33.6356 26.7077 33.5847 26.6369 37.4483C26.5782 40.6431 26.5511 40.9886 26.3187 41.4922C25.959 42.2717 25.529 42.7356 24.8416 43.0856L24.2457 43.3889L15.8005 43.4228C10.2318 43.4451 7.19363 43.4133 6.88095 43.3293C6.02126 43.0985 5.25965 42.4811 4.8522 41.6845L4.48122 40.9588V23.9938V7.02885L4.8522 6.30322C5.25965 5.50661 6.02126 4.88915 6.88095 4.65837C7.19363 4.57443 10.2318 4.54261 15.8005 4.56488L24.2457 4.59878L24.8416 4.90212C25.5297 5.25246 25.9601 5.71708 26.3173 6.49546C26.5448 6.99104 26.5766 7.35912 26.6355 10.1764L26.701 13.3066L27.0457 13.7567C27.6934 14.6023 28.7884 14.9113 29.7372 14.5162C30.2399 14.3068 30.8936 13.6048 31.0266 13.1316C31.1916 12.5439 31.1292 6.87871 30.9487 6.06717C30.2961 3.13185 27.8339 0.748154 24.8794 0.191387C23.4629 -0.0756165 7.35285 -0.0581172 6.07711 0.211823ZM36.7448 13.9528C35.8172 14.3727 35.3228 15.4923 35.6021 16.5406C35.7252 17.0028 36.07 17.4053 38.006 19.348C39.249 20.5954 40.2661 21.6544 40.2661 21.7016C40.2661 21.7485 35.6904 21.8018 30.098 21.8198L19.93 21.8524L19.4791 22.1953C18.8621 22.6645 18.6113 23.184 18.6113 23.9938C18.6113 24.8037 18.8621 25.3232 19.4791 25.7924L19.93 26.1353L30.098 26.1679C35.6904 26.1859 40.2661 26.2391 40.2661 26.2863C40.2661 26.3334 39.2211 27.42 37.944 28.7009C35.7276 30.9239 35.6181 31.0562 35.5364 31.6096C35.432 32.3184 35.5228 32.7235 35.9236 33.3339C36.4672 34.1619 37.6576 34.4906 38.6434 34.0847C39.2084 33.8522 47.4106 25.7434 47.7628 25.0694C47.9063 24.7947 48 24.3699 48 23.9938C48 23.6178 47.9063 23.193 47.7628 22.9182C47.4106 22.2442 39.2084 14.1355 38.6434 13.903C38.0349 13.6524 37.3701 13.6699 36.7448 13.9528Z" fill="currentColor"/>
</svg>
