<svg width="36" height="36" viewBox="0 0 36 36" fill="none" xmlns="http://www.w3.org/2000/svg">
<path d="M34.8315 24.3739C34.6629 24.8177 34.3853 25.2119 34.0244 25.5204C33.6635 25.8288 33.2309 26.0416 32.7662 26.1391C32.2939 26.2431 31.803 26.226 31.3391 26.0894C30.8752 25.9528 30.4534 25.7011 30.1129 25.3577L29.9629 25.2078C29.2119 24.4569 28.2544 23.9465 27.2124 23.7416C26.1703 23.5367 25.0908 23.6466 24.1114 24.0572C23.1319 24.4678 22.2969 25.1606 21.7126 26.0474C21.1283 26.9341 20.8211 27.9747 20.8302 29.0366L20.8902 35.8095L19.5043 35.925C19.0079 35.967 18.5099 36 18.0045 36C14.4176 36.0012 10.9122 34.9307 7.93806 32.926C4.96388 30.9213 2.65656 28.0737 1.31214 24.7486C-0.0322757 21.4235 -0.352469 17.7726 0.392644 14.2643C1.13776 10.756 2.91419 7.55032 5.49402 5.05856C7.22608 3.37091 9.28346 2.05333 11.541 1.18598C13.7984 0.318639 16.2088 -0.0803189 18.6254 0.0133887C23.1921 0.226522 27.5121 2.14751 30.7291 5.3956C33.946 8.64369 35.8251 12.9818 35.9939 17.55C36.0546 19.8786 35.6598 22.1967 34.8315 24.3739ZM25.5473 12.0759C25.1173 12.1902 24.7308 12.4293 24.4367 12.7632C24.1426 13.0971 23.9542 13.5106 23.8951 13.9516C23.8361 14.3926 23.9091 14.8411 24.105 15.2406C24.3009 15.6401 24.6109 15.9725 24.9957 16.1958C25.3805 16.4191 25.8229 16.5233 26.267 16.4953C26.711 16.4672 27.1368 16.3081 27.4904 16.0381C27.844 15.7681 28.1097 15.3993 28.2537 14.9783C28.3977 14.5574 28.4137 14.1032 28.2996 13.6732C28.2238 13.3875 28.0925 13.1197 27.9131 12.8848C27.7338 12.65 27.5099 12.4528 27.2543 12.3044C26.9988 12.1561 26.7165 12.0596 26.4236 12.0204C26.1307 11.9812 25.8329 12 25.5473 12.0759ZM18.048 7.57665C17.6179 7.69089 17.2314 7.93007 16.9374 8.26393C16.6433 8.5978 16.4548 9.01136 16.3957 9.45233C16.3367 9.8933 16.4098 10.3419 16.6057 10.7413C16.8016 11.1408 17.1115 11.4732 17.4963 11.6965C17.8812 11.9199 18.3236 12.0241 18.7676 11.996C19.2117 11.9679 19.6374 11.8088 19.9911 11.5388C20.3447 11.2688 20.6103 10.9 20.7543 10.4791C20.8984 10.0581 20.9143 9.60391 20.8002 9.17389C20.7244 8.88828 20.5931 8.62041 20.4138 8.38556C20.2344 8.15071 20.0106 7.9535 19.755 7.80517C19.4994 7.65685 19.2171 7.56032 18.9242 7.52111C18.6313 7.4819 18.3336 7.50078 18.048 7.57665ZM10.5486 12.0759C10.1186 12.1902 9.73208 12.4293 9.43799 12.7632C9.14391 13.0971 8.95543 13.5106 8.89638 13.9516C8.83734 14.3926 8.91039 14.8411 9.10629 15.2406C9.30219 15.6401 9.61215 15.9725 9.99697 16.1958C10.3818 16.4191 10.8242 16.5233 11.2683 16.4953C11.7123 16.4672 12.1381 16.3081 12.4917 16.0381C12.8453 15.7681 13.1109 15.3993 13.255 14.9783C13.399 14.5574 13.415 14.1032 13.3009 13.6732C13.2251 13.3875 13.0937 13.1197 12.9144 12.8848C12.7351 12.65 12.5112 12.4528 12.2556 12.3044C12 12.1561 11.7177 12.0596 11.4248 12.0204C11.1319 11.9812 10.8342 12 10.5486 12.0759ZM10.5486 21.0744C10.1186 21.1887 9.73208 21.4279 9.43799 21.7617C9.14391 22.0956 8.95543 22.5092 8.89638 22.9501C8.83734 23.3911 8.91039 23.8397 9.10629 24.2391C9.30219 24.6386 9.61215 24.971 9.99697 25.1943C10.3818 25.4176 10.8242 25.5219 11.2683 25.4938C11.7123 25.4657 12.1381 25.3066 12.4917 25.0366C12.8453 24.7666 13.1109 24.3978 13.255 23.9769C13.399 23.5559 13.415 23.1017 13.3009 22.6717C13.2251 22.3861 13.0937 22.1182 12.9144 21.8834C12.7351 21.6485 12.5112 21.4513 12.2556 21.303C12 21.1546 11.7177 21.0581 11.4248 21.0189C11.1319 20.9797 10.8342 20.9986 10.5486 21.0744Z" fill="currentColor"/>
</svg>
