<svg width="28" height="28" viewBox="0 0 28 28" fill="none" xmlns="http://www.w3.org/2000/svg">
<path fill-rule="evenodd" clip-rule="evenodd" d="M12.8963 0.265066C12.677 0.416319 11.7388 2.14075 10.8116 4.09692C9.8844 6.05309 8.97673 7.75394 8.79434 7.87674C8.6116 7.99954 6.84557 8.32563 4.86913 8.60192C2.34766 8.95385 1.08408 9.30615 0.632728 9.78237C-0.574429 11.056 -0.176301 11.9853 2.89269 15.0586L5.80058 17.971L5.19771 21.9848C4.46745 26.8469 4.46816 26.7399 5.15939 27.4695C6.04435 28.4029 7.03648 28.1753 10.6253 26.2142L13.987 24.3771L17.4009 26.2176C21.0529 28.1858 21.9716 28.3969 22.8509 27.4695C23.5414 26.7406 23.5421 26.8417 22.8203 22.0361L22.2249 18.0732L25.1232 15.1043C28.1883 11.9643 28.5733 11.0441 27.3573 9.76103C26.8786 9.25598 25.697 8.92652 23.1205 8.58021C21.1555 8.31589 19.3983 7.99954 19.2159 7.87674C19.0335 7.75394 18.1259 6.05309 17.1987 4.09692C16.2715 2.14075 15.3333 0.416319 15.114 0.265066C14.6009 -0.0883554 13.4094 -0.0883554 12.8963 0.265066Z" fill="currentColor"/>
</svg>
