<svg width="49" height="163" viewBox="0 0 49 163" fill="none" xmlns="http://www.w3.org/2000/svg">
<path fill-rule="evenodd" clip-rule="evenodd" d="M19.3063 4.75C9.56226 16.558 0.0372654 30.102 0.00026538 32.202C-0.0207346 33.466 1.20727 48.337 2.73127 65.25L5.50127 96H13.2713H21.0403V72.535C21.0403 50.944 21.1843 48.993 22.8443 48.105C27.1683 45.791 27.5223 47.514 27.8413 72.462L28.1433 96H35.5913C41.8083 96 43.0403 95.731 43.0403 94.371C43.0403 92.043 47.9043 39.233 48.5263 34.806C49.0103 31.365 48.3203 30.135 38.4313 16.806C28.3473 3.215 25.5753 0 23.9423 0C23.5483 0 21.4623 2.138 19.3063 4.75ZM4.82427 104.738C1.71627 106.665 -0.276734 110.731 0.208266 114.155L0.540266 116.5L23.6533 116.768C49.8723 117.072 50.1833 116.992 48.0273 110.461C45.8613 103.898 42.9753 103.004 24.0403 103.03C10.3403 103.049 7.07927 103.339 4.82427 104.738ZM17.0403 131V138H24.0403H31.0403V131V124H24.0403H17.0403V131ZM12.6953 146.829C10.1823 149.606 10.6813 153.521 14.0353 157.342C20.1323 164.285 27.1303 164.613 33.2373 158.241C37.9903 153.282 38.5913 150.97 35.9853 147.657C33.9773 145.105 33.5093 145 24.1223 145C15.9253 145 14.0833 145.295 12.6953 146.829Z" fill="currentColor"/>
</svg>
