<svg width="36" height="36" viewBox="0 0 36 36" fill="none" xmlns="http://www.w3.org/2000/svg">
<path fill-rule="evenodd" clip-rule="evenodd" d="M8.13659 1.03558C7.92431 1.11334 7.72014 1.24772 7.58818 1.39654C7.50068 1.49521 7.16136 2.13827 6.51477 3.43092C5.99475 4.47046 5.5425 5.35961 5.50968 5.40682C5.4769 5.454 5.3983 5.51676 5.335 5.5463C5.26409 5.57936 4.38769 5.71907 3.04964 5.91059C0.670648 6.25114 0.672609 6.25068 0.3811 6.51477C-0.0492492 6.90459 -0.127114 7.60374 0.208914 8.0607C0.265666 8.13787 1.00032 8.85974 1.84147 9.66479C2.68262 10.4699 3.39873 11.1712 3.43284 11.2234C3.47174 11.2828 3.49438 11.3757 3.49358 11.4725C3.49288 11.5573 3.33303 12.531 3.13841 13.6361C2.74197 15.887 2.73293 15.9882 2.89859 16.3209C3.0123 16.5493 3.25417 16.7849 3.48594 16.8931C3.70377 16.9947 4.06866 17.0298 4.30375 16.9716C4.38863 16.9506 5.32805 16.4824 6.39136 15.9311C8.24192 14.9717 8.33245 14.9288 8.50749 14.928C8.6838 14.9272 8.75961 14.9631 10.6239 15.9304C11.6873 16.4821 12.6268 16.9507 12.7115 16.9717C12.9489 17.0304 13.3235 16.9947 13.5346 16.8932C13.7627 16.7835 14.0045 16.5456 14.1164 16.3209C14.2827 15.9868 14.2743 15.8942 13.8631 13.554C13.4545 11.2287 13.4619 11.3315 13.6863 11.0944C13.7545 11.0223 14.4537 10.3483 15.24 9.59673C16.0263 8.84513 16.7126 8.17845 16.765 8.11517C16.9439 7.89959 16.9971 7.73626 16.9997 7.3951C17.0019 7.10791 16.9939 7.06766 16.894 6.86835C16.8313 6.74309 16.7222 6.59475 16.6339 6.51477C16.3383 6.24702 16.3388 6.24715 13.9581 5.90733C12.6469 5.72018 11.7462 5.57717 11.6779 5.54528C11.6157 5.51634 11.5381 5.454 11.5053 5.40682C11.4725 5.35961 11.0202 4.46843 10.5002 3.42638C9.62147 1.66543 9.54187 1.519 9.37192 1.35024C9.11465 1.09481 8.93016 1.01597 8.55737 1.00215C8.36038 0.994833 8.21662 1.00624 8.13659 1.03558Z" fill="currentColor"/>
<path fill-rule="evenodd" clip-rule="evenodd" d="M27.1366 1.03558C26.9243 1.11334 26.7201 1.24772 26.5882 1.39654C26.5007 1.49521 26.1614 2.13827 25.5148 3.43092C24.9948 4.47046 24.5425 5.35961 24.5097 5.40682C24.4769 5.454 24.3983 5.51676 24.335 5.5463C24.2641 5.57936 23.3877 5.71907 22.0496 5.91059C19.6706 6.25114 19.6726 6.25068 19.3811 6.51477C18.9508 6.90459 18.8729 7.60374 19.2089 8.0607C19.2657 8.13787 20.0003 8.85974 20.8415 9.66479C21.6826 10.4699 22.3987 11.1712 22.4328 11.2234C22.4717 11.2828 22.4944 11.3757 22.4936 11.4725C22.4929 11.5573 22.333 12.531 22.1384 13.6361C21.742 15.887 21.7329 15.9882 21.8986 16.3209C22.0123 16.5493 22.2542 16.7849 22.4859 16.8931C22.7038 16.9947 23.0687 17.0298 23.3037 16.9716C23.3886 16.9506 24.3281 16.4824 25.3914 15.9311C27.2419 14.9717 27.3324 14.9288 27.5075 14.928C27.6838 14.9272 27.7596 14.9631 29.6239 15.9304C30.6873 16.4821 31.6268 16.9507 31.7115 16.9717C31.9489 17.0304 32.3235 16.9947 32.5346 16.8932C32.7627 16.7835 33.0045 16.5456 33.1164 16.3209C33.2827 15.9868 33.2743 15.8942 32.8631 13.554C32.4545 11.2287 32.4619 11.3315 32.6863 11.0944C32.7545 11.0223 33.4537 10.3483 34.24 9.59673C35.0263 8.84513 35.7126 8.17845 35.765 8.11517C35.9439 7.89959 35.9971 7.73626 35.9997 7.3951C36.0019 7.10791 35.9939 7.06766 35.894 6.86835C35.8313 6.74309 35.7222 6.59475 35.6339 6.51477C35.3383 6.24702 35.3388 6.24715 32.9581 5.90733C31.6469 5.72018 30.7462 5.57717 30.6779 5.54528C30.6157 5.51634 30.5381 5.454 30.5053 5.40682C30.4725 5.35961 30.0202 4.46843 29.5002 3.42638C28.6215 1.66543 28.5419 1.519 28.3719 1.35024C28.1147 1.09481 27.9302 1.01597 27.5574 1.00215C27.3604 0.994833 27.2166 1.00624 27.1366 1.03558Z" fill="currentColor"/>
<path fill-rule="evenodd" clip-rule="evenodd" d="M8.13659 19.0356C7.92431 19.1133 7.72014 19.2477 7.58818 19.3965C7.50068 19.4952 7.16136 20.1383 6.51477 21.4309C5.99475 22.4705 5.5425 23.3596 5.50968 23.4068C5.4769 23.454 5.3983 23.5168 5.335 23.5463C5.26409 23.5794 4.38769 23.7191 3.04964 23.9106C0.670648 24.2511 0.672609 24.2507 0.3811 24.5148C-0.0492492 24.9046 -0.127114 25.6037 0.208914 26.0607C0.265666 26.1379 1.00032 26.8597 1.84147 27.6648C2.68262 28.4699 3.39873 29.1712 3.43284 29.2234C3.47174 29.2828 3.49438 29.3757 3.49358 29.4725C3.49288 29.5573 3.33303 30.531 3.13841 31.6361C2.74197 33.887 2.73293 33.9882 2.89859 34.3209C3.0123 34.5493 3.25417 34.7849 3.48594 34.8931C3.70377 34.9947 4.06866 35.0298 4.30375 34.9716C4.38863 34.9506 5.32805 34.4824 6.39136 33.9311C8.24192 32.9717 8.33245 32.9288 8.50749 32.928C8.6838 32.9272 8.75961 32.9631 10.6239 33.9304C11.6873 34.4821 12.6268 34.9507 12.7115 34.9717C12.9489 35.0304 13.3235 34.9947 13.5346 34.8932C13.7627 34.7835 14.0045 34.5456 14.1164 34.3209C14.2827 33.9868 14.2743 33.8942 13.8631 31.554C13.4545 29.2287 13.4619 29.3315 13.6863 29.0944C13.7545 29.0223 14.4537 28.3483 15.24 27.5967C16.0263 26.8451 16.7126 26.1785 16.765 26.1152C16.9439 25.8996 16.9971 25.7363 16.9997 25.3951C17.0019 25.1079 16.9939 25.0677 16.894 24.8684C16.8313 24.7431 16.7222 24.5948 16.6339 24.5148C16.3383 24.247 16.3388 24.2472 13.9581 23.9073C12.6469 23.7202 11.7462 23.5772 11.6779 23.5453C11.6157 23.5163 11.5381 23.454 11.5053 23.4068C11.4725 23.3596 11.0202 22.4684 10.5002 21.4264C9.62147 19.6654 9.54187 19.519 9.37192 19.3502C9.11465 19.0948 8.93016 19.016 8.55737 19.0022C8.36038 18.9948 8.21662 19.0062 8.13659 19.0356Z" fill="currentColor"/>
<path fill-rule="evenodd" clip-rule="evenodd" d="M27.1366 19.0356C26.9243 19.1133 26.7201 19.2477 26.5882 19.3965C26.5007 19.4952 26.1614 20.1383 25.5148 21.4309C24.9948 22.4705 24.5425 23.3596 24.5097 23.4068C24.4769 23.454 24.3983 23.5168 24.335 23.5463C24.2641 23.5794 23.3877 23.7191 22.0496 23.9106C19.6706 24.2511 19.6726 24.2507 19.3811 24.5148C18.9508 24.9046 18.8729 25.6037 19.2089 26.0607C19.2657 26.1379 20.0003 26.8597 20.8415 27.6648C21.6826 28.4699 22.3987 29.1712 22.4328 29.2234C22.4717 29.2828 22.4944 29.3757 22.4936 29.4725C22.4929 29.5573 22.333 30.531 22.1384 31.6361C21.742 33.887 21.7329 33.9882 21.8986 34.3209C22.0123 34.5493 22.2542 34.7849 22.4859 34.8931C22.7038 34.9947 23.0687 35.0298 23.3037 34.9716C23.3886 34.9506 24.3281 34.4824 25.3914 33.9311C27.2419 32.9717 27.3324 32.9288 27.5075 32.928C27.6838 32.9272 27.7596 32.9631 29.6239 33.9304C30.6873 34.4821 31.6268 34.9507 31.7115 34.9717C31.9489 35.0304 32.3235 34.9947 32.5346 34.8932C32.7627 34.7835 33.0045 34.5456 33.1164 34.3209C33.2827 33.9868 33.2743 33.8942 32.8631 31.554C32.4545 29.2287 32.4619 29.3315 32.6863 29.0944C32.7545 29.0223 33.4537 28.3483 34.24 27.5967C35.0263 26.8451 35.7126 26.1785 35.765 26.1152C35.9439 25.8996 35.9971 25.7363 35.9997 25.3951C36.0019 25.1079 35.9939 25.0677 35.894 24.8684C35.8313 24.7431 35.7222 24.5948 35.6339 24.5148C35.3383 24.247 35.3388 24.2472 32.9581 23.9073C31.6469 23.7202 30.7462 23.5772 30.6779 23.5453C30.6157 23.5163 30.5381 23.454 30.5053 23.4068C30.4725 23.3596 30.0202 22.4684 29.5002 21.4264C28.6215 19.6654 28.5419 19.519 28.3719 19.3502C28.1147 19.0948 27.9302 19.016 27.5574 19.0022C27.3604 18.9948 27.2166 19.0062 27.1366 19.0356Z" fill="currentColor"/>
</svg>
