<svg width="36" height="36" viewBox="0 0 36 36" fill="none" xmlns="http://www.w3.org/2000/svg">
<path fill-rule="evenodd" clip-rule="evenodd" d="M17.79 0.0674996C17.7109 0.0997039 17.5456 0.241178 17.4226 0.381879L17.199 0.637826L17.1993 2.72724C17.1995 4.67553 17.2087 4.83184 17.3361 5.04173C17.7082 5.65488 18.7274 5.62612 19.053 4.99336C19.1489 4.80695 19.1615 4.48652 19.1439 2.67542L19.1234 0.573698L18.9485 0.385676C18.6195 0.0321311 18.1762 -0.0896547 17.79 0.0674996ZM6.21209 4.89534C5.79067 5.16064 5.60305 5.75592 5.81411 6.15855C5.87318 6.27133 6.56339 7.0043 7.34787 7.78747L8.77414 9.21135H9.17022C9.51194 9.21135 9.59962 9.18196 9.80935 8.99689C10.1008 8.73982 10.2324 8.38388 10.1673 8.029C10.1275 7.81187 9.89662 7.54383 8.74328 6.37582C7.98616 5.60904 7.28174 4.93668 7.17782 4.88163C6.92939 4.75 6.43176 4.7571 6.21209 4.89534ZM29.1306 4.91024C29.0151 4.98541 28.317 5.65959 27.5792 6.40838C26.1532 7.8556 26.0747 7.97408 26.1903 8.50292C26.2515 8.78285 26.5872 9.11804 26.8907 9.20221C27.4099 9.34628 27.5463 9.25459 29.0426 7.75695C29.8082 6.99059 30.4798 6.27815 30.5349 6.17374C30.7343 5.796 30.6283 5.34627 30.2575 4.99828C30.0068 4.76293 29.4267 4.71758 29.1306 4.91024ZM16.6391 8.5487C14.7922 8.88516 13.2804 9.68612 11.95 11.0334C10.2772 12.7272 9.4773 14.5821 9.3852 16.9812C9.33965 18.1668 9.45819 19.0145 9.82265 20.1101C10.2261 21.3228 10.751 22.2126 11.7158 23.3192C12.9851 24.7753 13.5637 25.8687 13.9069 27.4608C13.9875 27.8343 14.0991 28.2288 14.1551 28.3376C14.2965 28.6122 14.7341 28.9596 15.0451 29.0442C15.2064 29.088 16.4453 29.1074 18.2992 29.0951C21.1786 29.0761 21.3035 29.0697 21.5727 28.9286C21.9718 28.7192 22.2809 28.2825 22.3758 27.7936C22.7227 26.0086 23.3138 24.8273 24.5843 23.3798C25.9145 21.8646 26.6165 20.4196 26.9018 18.6095C27.0359 17.7586 26.9978 16.2744 26.8213 15.4694C26.0317 11.8692 23.2401 9.16853 19.6598 8.54125C18.9328 8.41384 17.3581 8.4177 16.6391 8.5487ZM17.3761 10.9777C15.0623 11.257 12.9674 12.9542 12.1953 15.175C12.0069 15.7166 11.8105 16.7344 11.8105 17.1684C11.8105 17.779 12.1647 18.2125 12.7064 18.2648C13.4005 18.3318 13.7233 17.9789 13.8025 17.0663C13.9998 14.7932 15.5879 13.1673 17.8392 12.9333C18.5239 12.8621 18.8168 12.7465 18.9915 12.4785C19.1662 12.2107 19.1882 11.7497 19.0398 11.4664C18.7797 10.9698 18.3899 10.8553 17.3761 10.9777ZM1.70565 16.3158C1.04923 16.5132 0.788415 17.3112 1.19262 17.8856C1.45358 18.2565 1.61796 18.282 3.7441 18.282C5.48864 18.282 5.7146 18.2688 5.93329 18.1542C6.26171 17.9819 6.52567 17.4648 6.46129 17.1198C6.39957 16.7894 6.05093 16.4037 5.73399 16.3153C5.42306 16.2285 1.99452 16.229 1.70565 16.3158ZM30.5898 16.3176C30.3032 16.4037 29.9546 16.8069 29.8961 17.1198C29.8317 17.4648 30.0957 17.9819 30.4241 18.1542C30.6429 18.2689 30.8689 18.282 32.6179 18.282C34.2721 18.282 34.6043 18.2647 34.8073 18.1679C35.5185 17.8288 35.5544 16.9315 34.8772 16.423C34.6942 16.2855 34.5833 16.2773 32.7471 16.2647C31.6818 16.2574 30.711 16.2813 30.5898 16.3176ZM8.69639 25.4465C8.58092 25.5193 7.8828 26.1916 7.145 26.9404C6.01447 28.0878 5.79585 28.3433 5.75512 28.5651C5.66051 29.0808 5.89312 29.5155 6.36535 29.7053C6.93065 29.9327 7.00098 29.888 8.60835 28.2815C10.1226 26.7682 10.2567 26.5831 10.1711 26.1247C10.0478 25.4643 9.24986 25.0974 8.69639 25.4465ZM26.6676 25.451C26.1739 25.7535 26.0286 26.3138 26.3166 26.8041C26.4143 26.9705 27.0717 27.6805 27.7775 28.3819C29.2468 29.8422 29.3959 29.9324 29.974 29.7105C30.4513 29.5274 30.6973 29.0787 30.6016 28.566C30.5604 28.3455 30.3334 28.0813 29.1768 26.9081C28.4201 26.1406 27.716 25.4678 27.612 25.413C27.3463 25.2731 26.9308 25.2898 26.6676 25.451ZM14.6097 30.5762C14.181 30.8078 14.0849 31.0674 14.0849 31.9935C14.0849 32.608 14.1155 32.882 14.2126 33.1348C14.3654 33.5326 14.8317 33.9718 15.228 34.0911C15.496 34.1718 15.5083 34.1894 15.6207 34.6503C15.7876 35.3343 15.9853 35.6548 16.3568 35.8432C16.6519 35.9928 16.7504 36.0013 18.176 35.9999C19.5015 35.9985 19.7183 35.9824 19.974 35.8657C20.3241 35.7059 20.5552 35.336 20.7349 34.6475C20.8536 34.1928 20.8704 34.1691 21.1289 34.0913C21.5 33.9796 21.9136 33.6055 22.1073 33.2062C22.2489 32.9146 22.2695 32.7657 22.2709 32.0286C22.2727 31.1091 22.2099 30.9093 21.8293 30.6223C21.6496 30.4868 21.5184 30.481 18.2487 30.4628C15.0388 30.4449 14.8414 30.451 14.6097 30.5762Z" fill="currentColor"/>
</svg>
