<svg width="36" height="36" viewBox="0 0 36 36" fill="none" xmlns="http://www.w3.org/2000/svg">
<g clip-path="url(#clip0_318_947)">
<path fill-rule="evenodd" clip-rule="evenodd" d="M32.223 0.0757983C29.4527 0.388499 25.7347 1.59447 22.4121 3.25794C17.7473 5.59342 14.2413 8.37376 11.6886 11.7618L11.2125 12.3938L10.0484 12.3828C7.61799 12.3598 5.92191 12.8716 4.27564 14.1245C2.36508 15.5786 0.883071 18.1514 0.186047 21.2244C-0.0707597 22.3568 -0.0658504 22.5547 0.226608 22.8472C0.405029 23.0256 0.536611 23.0824 0.771367 23.0824C0.941579 23.0824 2.56499 22.9195 4.37897 22.7204C6.19296 22.5213 7.71698 22.3583 7.76583 22.3582C7.82152 22.3581 7.87528 22.679 7.91029 23.2198C7.94634 23.7781 8.01789 24.1963 8.11325 24.4071C8.20975 24.6203 8.81189 25.2753 9.86004 26.3071C11.6524 28.0715 11.5762 28.0259 12.888 28.1194C13.3196 28.1501 13.6726 28.1975 13.6725 28.2247C13.6725 28.2518 13.5095 29.7503 13.3104 31.5548C12.8942 35.3275 12.8878 35.4595 13.1103 35.7424C13.3458 36.0419 13.6305 36.0692 14.5525 35.8814C17.3042 35.3205 19.9665 33.9514 21.398 32.361C23.0058 30.5748 23.6826 28.6101 23.6468 25.8333L23.634 24.837L24.5886 24.1016C25.8473 23.132 28.1629 20.8135 29.1197 19.5647C32.4925 15.1632 34.9556 9.77942 35.8142 4.93212C35.9618 4.09865 35.9996 3.59101 36 2.43695C36.0006 0.919809 35.9157 0.368618 35.6607 0.233557C35.2299 0.00537009 33.5355 -0.0723825 32.223 0.0757983ZM23.0169 8.44C22.3615 8.5687 21.6573 8.96471 21.1095 9.51252C19.5832 11.0391 19.5838 13.3915 21.1109 14.9188C23.3275 17.1358 27.0879 15.91 27.6106 12.7999C28.0482 10.1965 25.6522 7.92238 23.0169 8.44ZM5.41916 24.6C4.72592 24.8012 3.9151 25.2789 3.41098 25.7831C2.55388 26.6403 1.99464 28.2643 1.60086 31.0393C1.41471 32.3512 1.22953 34.6503 1.30405 34.7247C1.37914 34.7998 3.66513 34.6181 4.98103 34.4323C8.7265 33.9037 10.2214 33.1704 11.0819 31.44C11.4579 30.6839 11.6657 29.8365 11.5287 29.6179C11.4042 29.4192 11.1078 29.4039 10.9084 29.5861C10.4854 29.9725 9.32043 30.3265 8.47203 30.3265C6.99428 30.3265 5.80666 29.2141 5.72192 27.7508C5.67733 26.9806 5.83716 26.3188 6.28285 25.4283C6.54111 24.9125 6.6001 24.7251 6.53652 24.6234C6.422 24.4406 5.99876 24.4317 5.41916 24.6Z" fill="currentColor"/>
</g>
<defs>
<clipPath id="clip0_318_947">
<rect width="36" height="36" fill="white"/>
</clipPath>
</defs>
</svg>
