<svg width="36" height="36" viewBox="0 0 36 36" fill="none" xmlns="http://www.w3.org/2000/svg">
<path fill-rule="evenodd" clip-rule="evenodd" d="M17.2304 1.07724C16.7809 1.24606 16.3485 1.53781 16.0691 1.86091C15.8838 2.07513 15.1652 3.47124 13.796 6.27766C12.6948 8.53455 11.737 10.4649 11.6676 10.5674C11.5981 10.6699 11.4317 10.8061 11.2976 10.8702C11.1475 10.942 9.29159 11.2453 6.45805 11.6612C1.4202 12.4005 1.42435 12.3995 0.807035 12.9729C-0.104292 13.8192 -0.269182 15.3371 0.442405 16.3292C0.562587 16.4967 2.11834 18.0639 3.89959 19.8117C5.68085 21.5596 7.19731 23.0822 7.26954 23.1954C7.35192 23.3245 7.39987 23.5261 7.39818 23.7362C7.3967 23.9205 7.05819 26.0344 6.64603 28.4337C5.80652 33.3204 5.78737 33.5401 6.1382 34.2624C6.37899 34.7583 6.89119 35.2699 7.38198 35.5047C7.84328 35.7254 8.61598 35.8015 9.11381 35.6752C9.29356 35.6296 11.2829 34.6131 13.5346 33.4163C17.4535 31.3334 17.6452 31.2402 18.0159 31.2385C18.3892 31.2367 18.5498 31.3146 22.4977 33.4146C24.7497 34.6125 26.739 35.6298 26.9184 35.6754C27.4211 35.8029 28.2144 35.7253 28.6616 35.5049C29.1445 35.2668 29.6566 34.7504 29.8935 34.2624C30.2458 33.5371 30.2278 33.3362 29.3571 28.2554C28.4918 23.2072 28.5075 23.4302 28.9827 22.9155C29.1272 22.7589 30.6079 21.2957 32.273 19.664C33.938 18.0322 35.3914 16.5848 35.5025 16.4474C35.8812 15.9794 35.9939 15.6248 35.9994 14.8841C36.0041 14.2606 35.987 14.1732 35.7756 13.7405C35.6428 13.4685 35.4117 13.1465 35.2247 12.9729C34.5988 12.3916 34.5998 12.3918 29.5584 11.6541C26.7818 11.2478 24.8743 10.9373 24.7296 10.8681C24.598 10.8052 24.4336 10.6699 24.3642 10.5674C24.2947 10.4649 23.337 8.53015 22.2358 6.2678C20.3749 2.44469 20.2063 2.12677 19.8464 1.7604C19.3016 1.20584 18.9109 1.03468 18.1215 1.00467C17.7043 0.988782 17.3999 1.01354 17.2304 1.07724Z" fill="currentColor"/>
</svg>
