<svg width="36" height="36" viewBox="0 0 36 36" fill="none" xmlns="http://www.w3.org/2000/svg">
<g clip-path="url(#clip0_285_828)">
<path fill-rule="evenodd" clip-rule="evenodd" d="M8.13659 0.0355756C7.92431 0.113336 7.72014 0.247718 7.58818 0.39654C7.50068 0.495211 7.16136 1.13827 6.51477 2.43092C5.99475 3.47046 5.5425 4.35961 5.50968 4.40682C5.4769 4.454 5.3983 4.51676 5.335 4.5463C5.26409 4.57936 4.38769 4.71907 3.04964 4.91059C0.670648 5.25114 0.672609 5.25068 0.3811 5.51477C-0.0492492 5.90459 -0.127114 6.60374 0.208914 7.0607C0.265666 7.13787 1.00032 7.85974 1.84147 8.66479C2.68262 9.46987 3.39873 10.1712 3.43284 10.2234C3.47174 10.2828 3.49438 10.3757 3.49358 10.4725C3.49288 10.5573 3.33303 11.531 3.13841 12.6361C2.74197 14.887 2.73293 14.9882 2.89859 15.3209C3.0123 15.5493 3.25417 15.7849 3.48594 15.8931C3.70377 15.9947 4.06866 16.0298 4.30375 15.9716C4.38863 15.9506 5.32805 15.4824 6.39136 14.9311C8.24192 13.9717 8.33245 13.9288 8.50749 13.928C8.6838 13.9272 8.75961 13.9631 10.6239 14.9304C11.6873 15.4821 12.6268 15.9507 12.7115 15.9717C12.9489 16.0304 13.3235 15.9947 13.5346 15.8932C13.7627 15.7835 14.0045 15.5456 14.1164 15.3209C14.2827 14.9868 14.2743 14.8942 13.8631 12.554C13.4545 10.2287 13.4619 10.3315 13.6863 10.0944C13.7545 10.0223 14.4537 9.34833 15.24 8.59673C16.0263 7.84513 16.7126 7.17845 16.765 7.11517C16.9439 6.89959 16.9971 6.73626 16.9997 6.3951C17.0019 6.10791 16.9939 6.06766 16.894 5.86835C16.8313 5.74309 16.7222 5.59475 16.6339 5.51477C16.3383 5.24702 16.3388 5.24715 13.9581 4.90733C12.6469 4.72018 11.7462 4.57717 11.6779 4.54528C11.6157 4.51634 11.5381 4.454 11.5053 4.40682C11.4725 4.35961 11.0202 3.46843 10.5002 2.42638C9.62147 0.665434 9.54187 0.518997 9.37192 0.350244C9.11465 0.0948107 8.93016 0.0159721 8.55737 0.00215166C8.36038 -0.00516696 8.21662 0.0062358 8.13659 0.0355756Z" fill="currentColor"/>
<path fill-rule="evenodd" clip-rule="evenodd" d="M17.5725 17.0422C17.3227 17.1346 17.0825 17.2942 16.9273 17.4709C16.8243 17.5881 16.4251 18.3517 15.6644 19.8867C15.0527 21.1212 14.5206 22.177 14.482 22.2331C14.4434 22.2891 14.3509 22.3637 14.2765 22.3987C14.193 22.438 13.162 22.6039 11.5878 22.8313C8.789 23.2357 8.79131 23.2352 8.44835 23.5488C7.94206 24.0117 7.85045 24.8419 8.24578 25.3846C8.31255 25.4762 9.17685 26.3334 10.1664 27.2894C11.156 28.2455 11.9985 29.0783 12.0386 29.1402C12.0844 29.2109 12.111 29.3211 12.1101 29.436C12.1093 29.5368 11.9212 30.693 11.6922 32.0054C11.2258 34.6783 11.2152 34.7985 11.4101 35.1935C11.5439 35.4648 11.8284 35.7446 12.1011 35.873C12.3574 35.9938 12.7867 36.0354 13.0632 35.9663C13.1631 35.9413 14.2683 35.3854 15.5192 34.7307C17.6964 33.5914 17.8029 33.5405 18.0088 33.5395C18.2162 33.5386 18.3054 33.5812 20.4987 34.7298C21.7498 35.385 22.855 35.9415 22.9547 35.9664C23.234 36.0361 23.6747 35.9937 23.9231 35.8731C24.1914 35.7429 24.4759 35.4604 24.6075 35.1935C24.8032 34.7968 24.7932 34.6869 24.3095 31.9079C23.8288 29.1466 23.8375 29.2687 24.1015 28.9871C24.1818 28.9014 25.0044 28.1011 25.9294 27.2086C26.8545 26.3161 27.6619 25.5244 27.7236 25.4493C27.934 25.1933 27.9966 24.9993 27.9997 24.5942C28.0023 24.2531 27.9928 24.2053 27.8753 23.9687C27.8016 23.8199 27.6732 23.6438 27.5693 23.5488C27.2216 23.2308 27.2221 23.231 24.4213 22.8275C22.8788 22.6052 21.819 22.4354 21.7387 22.3975C21.6656 22.3631 21.5742 22.2891 21.5357 22.2331C21.4971 22.177 20.965 21.1188 20.3532 19.8813C19.3194 17.7902 19.2257 17.6163 19.0258 17.4159C18.7231 17.1126 18.5061 17.019 18.0675 17.0026C17.8357 16.9939 17.6666 17.0074 17.5725 17.0422Z" fill="currentColor"/>
<path fill-rule="evenodd" clip-rule="evenodd" d="M27.1366 0.0355756C26.9243 0.113336 26.7201 0.247718 26.5882 0.39654C26.5007 0.495211 26.1614 1.13827 25.5148 2.43092C24.9948 3.47046 24.5425 4.35961 24.5097 4.40682C24.4769 4.454 24.3983 4.51676 24.335 4.5463C24.2641 4.57936 23.3877 4.71907 22.0496 4.91059C19.6706 5.25114 19.6726 5.25068 19.3811 5.51477C18.9508 5.90459 18.8729 6.60374 19.2089 7.0607C19.2657 7.13787 20.0003 7.85974 20.8415 8.66479C21.6826 9.46987 22.3987 10.1712 22.4328 10.2234C22.4717 10.2828 22.4944 10.3757 22.4936 10.4725C22.4929 10.5573 22.333 11.531 22.1384 12.6361C21.742 14.887 21.7329 14.9882 21.8986 15.3209C22.0123 15.5493 22.2542 15.7849 22.4859 15.8931C22.7038 15.9947 23.0687 16.0298 23.3037 15.9716C23.3886 15.9506 24.3281 15.4824 25.3914 14.9311C27.2419 13.9717 27.3324 13.9288 27.5075 13.928C27.6838 13.9272 27.7596 13.9631 29.6239 14.9304C30.6873 15.4821 31.6268 15.9507 31.7115 15.9717C31.9489 16.0304 32.3235 15.9947 32.5346 15.8932C32.7627 15.7835 33.0045 15.5456 33.1164 15.3209C33.2827 14.9868 33.2743 14.8942 32.8631 12.554C32.4545 10.2287 32.4619 10.3315 32.6863 10.0944C32.7545 10.0223 33.4537 9.34833 34.24 8.59673C35.0263 7.84513 35.7126 7.17845 35.765 7.11517C35.9439 6.89959 35.9971 6.73626 35.9997 6.3951C36.0019 6.10791 35.9939 6.06766 35.894 5.86835C35.8313 5.74309 35.7222 5.59475 35.6339 5.51477C35.3383 5.24702 35.3388 5.24715 32.9581 4.90733C31.6469 4.72018 30.7462 4.57717 30.6779 4.54528C30.6157 4.51634 30.5381 4.454 30.5053 4.40682C30.4725 4.35961 30.0202 3.46843 29.5002 2.42638C28.6215 0.665434 28.5419 0.518997 28.3719 0.350244C28.1147 0.0948107 27.9302 0.0159721 27.5574 0.00215166C27.3604 -0.00516696 27.2166 0.0062358 27.1366 0.0355756Z" fill="currentColor"/>
</g>
<defs>
<clipPath id="clip0_285_828">
<rect width="36" height="36" fill="white"/>
</clipPath>
</defs>
</svg>
