<svg width="36" height="36" viewBox="0 0 36 36" fill="none" xmlns="http://www.w3.org/2000/svg">
<g clip-path="url(#clip0_346_42)">
<path fill-rule="evenodd" clip-rule="evenodd" d="M17.9017 0.0421102C16.3626 0.215833 14.2971 0.885817 12.4512 1.80997C9.85963 3.10745 7.91182 4.65209 6.49366 6.53433L6.22915 6.88544L5.58242 6.87932C4.23222 6.86657 3.28995 7.15088 2.37536 7.84693C1.31393 8.65478 0.490595 10.0841 0.103359 11.7913C-0.0393109 12.4204 -0.0365835 12.5304 0.125893 12.6929C0.225016 12.792 0.298117 12.8236 0.428537 12.8236C0.523099 12.8236 1.42499 12.7331 2.43276 12.6225C3.44053 12.5118 4.28721 12.4213 4.31435 12.4212C4.34529 12.4212 4.37515 12.5994 4.3946 12.8999C4.41463 13.2101 4.45438 13.4424 4.50736 13.5595C4.56097 13.6779 4.89549 14.0418 5.4778 14.6151C6.47354 15.5953 6.4312 15.57 7.16002 15.6219C7.3998 15.639 7.5959 15.6653 7.59586 15.6804C7.59581 15.6954 7.50527 16.528 7.39466 17.5305C7.16342 19.6264 7.15989 19.6997 7.28351 19.8569C7.41433 20.0233 7.57252 20.0385 8.08472 19.9341C9.61345 19.6225 11.0925 18.8619 11.8878 17.9783C12.781 16.986 13.157 15.8945 13.1371 14.3519L13.13 13.7984L13.6604 13.3898C14.3596 12.8511 15.6461 11.563 16.1776 10.8693C18.0514 8.424 19.4198 5.43301 19.8968 2.74007C19.9788 2.27703 19.9998 1.995 20 1.35386C20.0003 0.511005 19.9531 0.204788 19.8115 0.129754C19.5722 0.00298338 18.6308 -0.0402125 17.9017 0.0421102ZM12.7872 4.68889C12.423 4.76039 12.0318 4.9804 11.7275 5.28473C10.8796 6.13282 10.8799 7.43975 11.7283 8.28824C12.9597 9.5199 15.0488 8.83887 15.3392 7.11108C15.5824 5.66473 14.2512 4.40132 12.7872 4.68889ZM3.01064 13.6667C2.62551 13.7785 2.17505 14.0438 1.89499 14.3239C1.41882 14.8002 1.10813 15.7024 0.889366 17.2441C0.785951 17.9729 0.683073 19.2502 0.724474 19.2915C0.766189 19.3332 2.03618 19.2323 2.76724 19.1291C4.84806 18.8354 5.67855 18.428 6.15663 17.4667C6.36552 17.0466 6.48092 16.5759 6.40482 16.4544C6.33565 16.344 6.17099 16.3355 6.06024 16.4367C5.8252 16.6514 5.17802 16.848 4.70668 16.848C3.88571 16.848 3.22592 16.2301 3.17884 15.4171C3.15407 14.9892 3.24287 14.6216 3.49047 14.1268C3.63395 13.8403 3.66672 13.7362 3.6314 13.6797C3.56778 13.5781 3.33265 13.5732 3.01064 13.6667Z" fill="currentColor"/>
<path fill-rule="evenodd" clip-rule="evenodd" d="M33.9017 16.0421C32.3626 16.2158 30.2971 16.8858 28.4512 17.81C25.8596 19.1075 23.9118 20.6521 22.4937 22.5343L22.2292 22.8854L21.5824 22.8793C20.2322 22.8666 19.2899 23.1509 18.3754 23.8469C17.3139 24.6548 16.4906 26.0841 16.1034 27.7913C15.9607 28.4204 15.9634 28.5304 16.1259 28.6929C16.225 28.792 16.2981 28.8236 16.4285 28.8236C16.5231 28.8236 17.425 28.7331 18.4328 28.6225C19.4405 28.5118 20.2872 28.4213 20.3143 28.4212C20.3453 28.4212 20.3752 28.5994 20.3946 28.8999C20.4146 29.2101 20.4544 29.4424 20.5074 29.5595C20.561 29.6779 20.8955 30.0418 21.4778 30.6151C22.4735 31.5953 22.4312 31.57 23.16 31.6219C23.3998 31.639 23.5959 31.6653 23.5959 31.6804C23.5958 31.6954 23.5053 32.528 23.3947 33.5305C23.1634 35.6264 23.1599 35.6997 23.2835 35.8569C23.4143 36.0233 23.5725 36.0385 24.0847 35.9341C25.6135 35.6225 27.0925 34.8619 27.8878 33.9783C28.781 32.986 29.157 31.8945 29.1371 30.3519L29.13 29.7984L29.6604 29.3898C30.3596 28.8511 31.6461 27.563 32.1776 26.8693C34.0514 24.424 35.4198 21.433 35.8968 18.7401C35.9788 18.277 35.9998 17.995 36 17.3539C36.0003 16.511 35.9531 16.2048 35.8115 16.1298C35.5722 16.003 34.6308 15.9598 33.9017 16.0421ZM28.7872 20.6889C28.423 20.7604 28.0318 20.9804 27.7275 21.2847C26.8796 22.1328 26.8799 23.4397 27.7283 24.2882C28.9597 25.5199 31.0488 24.8389 31.3392 23.1111C31.5824 21.6647 30.2512 20.4013 28.7872 20.6889ZM19.0106 29.6667C18.6255 29.7785 18.1751 30.0438 17.895 30.3239C17.4188 30.8002 17.1081 31.7024 16.8894 33.2441C16.786 33.9729 16.6831 35.2502 16.7245 35.2915C16.7662 35.3332 18.0362 35.2323 18.7672 35.1291C20.8481 34.8354 21.6785 34.428 22.1566 33.4667C22.3655 33.0466 22.4809 32.5759 22.4048 32.4544C22.3357 32.344 22.171 32.3355 22.0602 32.4367C21.8252 32.6514 21.178 32.848 20.7067 32.848C19.8857 32.848 19.2259 32.2301 19.1788 31.4171C19.1541 30.9892 19.2429 30.6216 19.4905 30.1268C19.6339 29.8403 19.6667 29.7362 19.6314 29.6797C19.5678 29.5781 19.3326 29.5732 19.0106 29.6667Z" fill="currentColor"/>
</g>
<defs>
<clipPath id="clip0_346_42">
<rect width="36" height="36" fill="white"/>
</clipPath>
</defs>
</svg>
