<svg width="36" height="36" viewBox="0 0 36 36" fill="none" xmlns="http://www.w3.org/2000/svg">
<g clip-path="url(#clip0_285_825)">
<path fill-rule="evenodd" clip-rule="evenodd" d="M8.61521 0.0377991C8.39044 0.120419 8.17426 0.2632 8.03455 0.421324C7.94189 0.526162 7.58261 1.20941 6.89799 2.58285C6.34739 3.68736 5.86852 4.63208 5.83378 4.68224C5.79907 4.73237 5.71585 4.79906 5.64882 4.83044C5.57374 4.86557 4.64579 5.01401 3.22903 5.21751C0.710098 5.57934 0.712175 5.57885 0.403517 5.85945C-0.0521462 6.27362 -0.134591 7.01648 0.221203 7.50199C0.281294 7.58399 1.05917 8.35097 1.9498 9.20633C2.84042 10.0617 3.59865 10.8069 3.63477 10.8623C3.67596 10.9255 3.69993 11.0242 3.69909 11.127C3.69835 11.2172 3.52909 12.2517 3.32302 13.4259C2.90326 15.8174 2.89369 15.9249 3.0691 16.2784C3.18949 16.5211 3.44559 16.7715 3.69099 16.8864C3.92164 16.9944 4.30799 17.0317 4.55691 16.9698C4.64678 16.9475 5.64147 16.4501 6.76732 15.8643C8.72674 14.845 8.82259 14.7994 9.00794 14.7985C9.19461 14.7977 9.27488 14.8358 11.2488 15.8635C12.3748 16.4497 13.3695 16.9476 13.4592 16.9699C13.7106 17.0323 14.1072 16.9943 14.3308 16.8865C14.5722 16.77 14.8283 16.5172 14.9468 16.2784C15.1229 15.9235 15.1139 15.8251 14.6785 13.3386C14.2459 10.868 14.2537 10.9772 14.4914 10.7253C14.5636 10.6486 15.3039 9.9326 16.1365 9.13402C16.969 8.33545 17.6957 7.62711 17.7512 7.55986C17.9406 7.33082 17.9969 7.15728 17.9997 6.79479C18.002 6.48965 17.9935 6.44688 17.8878 6.23513C17.8214 6.10203 17.7059 5.94443 17.6124 5.85945C17.2994 5.57496 17.2999 5.5751 14.7792 5.21403C13.3909 5.01519 12.4371 4.86325 12.3648 4.82936C12.299 4.79861 12.2168 4.73237 12.1821 4.68224C12.1473 4.63208 11.6685 3.68521 11.1179 2.57803C10.1874 0.707024 10.1032 0.551434 9.92321 0.372134C9.65081 0.100736 9.45547 0.0169703 9.06074 0.00228614C8.85216 -0.0054899 8.69995 0.00662553 8.61521 0.0377991Z" fill="currentColor"/>
<path fill-rule="evenodd" clip-rule="evenodd" d="M25.5725 17.0422C25.3227 17.1346 25.0825 17.2942 24.9273 17.4709C24.8243 17.5881 24.4251 18.3517 23.6644 19.8867C23.0527 21.1212 22.5206 22.177 22.482 22.2331C22.4434 22.2891 22.3509 22.3637 22.2765 22.3987C22.193 22.438 21.162 22.6039 19.5878 22.8313C16.789 23.2357 16.7913 23.2352 16.4484 23.5488C15.9421 24.0117 15.8505 24.8419 16.2458 25.3846C16.3125 25.4762 17.1769 26.3334 18.1664 27.2894C19.156 28.2455 19.9985 29.0783 20.0386 29.1402C20.0844 29.2109 20.111 29.3211 20.1101 29.436C20.1093 29.5368 19.9212 30.693 19.6922 32.0054C19.2258 34.6783 19.2152 34.7985 19.4101 35.1935C19.5439 35.4648 19.8284 35.7446 20.1011 35.873C20.3574 35.9938 20.7867 36.0354 21.0632 35.9663C21.1631 35.9413 22.2683 35.3854 23.5192 34.7307C25.6964 33.5914 25.8029 33.5405 26.0088 33.5395C26.2162 33.5386 26.3054 33.5812 28.4987 34.7298C29.7498 35.385 30.855 35.9415 30.9547 35.9664C31.234 36.0361 31.6747 35.9937 31.9231 35.8731C32.1914 35.7429 32.4759 35.4604 32.6075 35.1935C32.8032 34.7968 32.7932 34.6869 32.3095 31.9079C31.8288 29.1466 31.8375 29.2687 32.1015 28.9871C32.1818 28.9014 33.0044 28.1011 33.9294 27.2086C34.8545 26.3161 35.6619 25.5244 35.7236 25.4493C35.934 25.1933 35.9966 24.9993 35.9997 24.5942C36.0023 24.2531 35.9928 24.2053 35.8753 23.9687C35.8016 23.8199 35.6732 23.6438 35.5693 23.5488C35.2216 23.2308 35.2221 23.231 32.4213 22.8275C30.8788 22.6052 29.819 22.4354 29.7387 22.3975C29.6656 22.3631 29.5742 22.2891 29.5357 22.2331C29.4971 22.177 28.965 21.1188 28.3532 19.8813C27.3194 17.7902 27.2257 17.6163 27.0258 17.4159C26.7231 17.1126 26.5061 17.019 26.0675 17.0026C25.8357 16.9939 25.6666 17.0074 25.5725 17.0422Z" fill="currentColor"/>
</g>
<defs>
<clipPath id="clip0_285_825">
<rect width="36" height="36" fill="white"/>
</clipPath>
</defs>
</svg>
