<?xml version="1.0" encoding="UTF-8"?>
<svg xmlns="http://www.w3.org/2000/svg" width="405.3" height="475.38" viewBox="0 0 405.3 475.38">
  <path d="m143.44,137.91c-1.41-.83-2.69-1.83-3.71-3.08-.87-1.07-1.39-2.36-1.73-3.71-.57-2.23-.68-4.65-.89-6.82-.46-4.67-.59-9.7-.47-14.71.08-3.56.31-7.07.6-10.49,3.4,3.43,9.31,5.85,13.04,6.97l4.82,1.31,6.09,1.28c9.81,1.79,19.92,2.48,30.03,2.34,10.09-.14,20.17-1.09,29.96-2.58,4.12-.62,8.07-.98,12.01-1.65,2.67-.45,5.34-1.05,8.04-1.95,1.31-.44,2.55-.94,3.77-1.5,1.8-.82,3.53-1.76,5.3-2.77,1.2-.68,2.39-1.4,3.5-2.21.77-.57,1.5-1.18,2.17-1.87,1.77-1.79,2.98-3.58,3.71-5.34.69,3.29,1.03,6.71,1.39,9.76.58,4.99.85,10.95-.11,16.47-.63,3.63-1.78,7.07-3.77,9.88-1.59,2.25-3.76,3.91-6.18,5.26-3.8,2.12-8.18,3.47-12.02,4.89-9.67,3.58-19.91,5.54-30.28,6.45-10.41.92-20.96.79-31.19.21-5.37-.31-10.92-.6-16.37-1.29-3.61-.46-7.17-1.1-10.62-2.04-2.36-.64-4.88-1.51-7.09-2.81Z" fill="#470000"/>
  <path d="m385.62,436.22c-.17.11-.31.26-.41.42-13.15,8.82-27.88,14.73-43.29,18.85-23.94,6.39-49.48,8.5-73.17,10.57-12.83,1.12-25.57,3-38.37,4.38-5.45.59-10.92,1.09-16.41,1.39-21.78,1.21-43.15.96-64.41-.57-21.31-1.53-42.52-4.34-63.92-8.24l-12.08-1.13c-.23-.43-.66-.74-1.19-.75-7.68-.15-15.57-.12-23.32-.91-5.11-.52-10.16-1.39-15.05-2.92-2.44-.77-4.79-1.88-7.05-3.18-2.3-1.32-4.49-2.83-6.57-4.36-10.6-7.83-15.62-17.23-17.1-27.35-2.29-15.64,3.75-32.95,10.56-48.9,5.9-13.81,12.81-26.82,20.35-39.43,11.37-18.99,24.16-37.06,37.1-55.52l47.53-69.41c8.57-12.03,19.3-23.59,26.3-36.56,4.7-8.71,7.7-18.05,7.4-28.57,2.72.62,5.49,1.14,8.29,1.49,5.52.7,11.13,1,16.56,1.31,10.36.6,21.05.72,31.59-.21,10.62-.94,21.1-2.95,31-6.62,2.99-1.11,6.3-2.19,9.42-3.59.04,6.21.24,12.72,1.07,19.07.64,4.84,1.63,9.58,3.18,14.01,3.54,10.16,9,19.63,15.35,28.63,9.36,13.27,20.67,25.52,30.57,37.51,4.03,4.88,7.76,9.95,11.38,15.1,8.5,12.14,16.31,24.76,25.43,36.47,9.5,12.2,19.47,22.98,28.24,34.8,5.75,7.75,10.99,15.96,15.23,25.32,7.67,16.92,20.65,37.33,22.48,55.93,1.22,12.38-2.65,23.91-16.69,32.96Z" fill="#3a0000"/>
  <path d="m28.31,386.46c-.13,0-.26-.04-.38-.11-.31-.18-.43-.56-.31-.89,1.42-3.72,2.88-7.16,4.13-10.08,7.51-17.53,17.5-35.88,29.67-54.53,10.47-16.04,22.55-32.4,36.94-50.01,4.75-5.82,10.12-11.3,15.31-16.61,1.65-1.69,3.31-3.38,4.94-5.08.14-.15.33-.23.53-.23.1,0,.2.02.3.06.28.13.46.41.43.72-.45,6.53,1.87,12.95,6.9,19.08,7.99,9.72,21.13,16.93,30.74,21.26,12.15,5.48,28.26,12,45.1,13.78,2.96.32,5.9.47,8.72.47,7.94,0,15.53-1.26,22.56-3.74,3.64-1.28,7.01-2.67,10.03-4.12,3.47-1.66,6.64-3.5,9.41-5.44,2.6-1.82,5.12-3.83,7.57-5.76,2.7-2.13,5.49-4.34,8.37-6.32,4.14-2.83,7.84-4.74,11.65-6.02,3.75-1.25,7.74-1.86,12.21-1.86h.89c3.59.08,7.5.55,11.96,1.46.15.03.3.11.4.23,7.82,8.7,15.47,18.42,23.48,29.78,10.03,14.23,19.33,29.19,28.33,43.66l3.14,5.04c1.85,2.97,4.12,6.26,6.52,9.74,3.87,5.61,8.25,11.96,11.62,18.13,2.72,4.97,4.46,9.22,5.31,13,.1.25.04.48-.14.69-.07.09-.19.27-.17.5,1.64,13.59-4.59,24.72-18.53,33.07-17.27,10.36-42.48,14.34-57.55,16.71,0,0-9.71,1.55-13.99,2.24-13.47,2.17-27.39,4.42-41.16,6.18-13.42,1.72-25.26,2.8-36.2,3.3-7.33.33-14.96.5-22.69.5-10.87,0-22-.32-34.04-.97-16.44-.89-34.41-2.42-56.57-4.79-5.2-.56-10.28-1.02-15.3-1.47-7.57-.69-14.71-1.33-22.02-2.28-9.2-1.2-16.97-2.69-24.47-4.67-.03,0-.06,0-.11,0-.18,0-.46-.02-.56-.07-4.32-1.85-7.6-3.65-10.32-5.69-2.91-2.17-5.11-4.54-6.74-7.24-3.17-5.28-4.05-12.21-2.71-21.2.66-4.4,1.87-9.21,3.69-14.72.09-.29.35-.48.65-.5.12,0,.34-.05.48-.25" fill="#00ff67"/>
  <path d="m186.31,91.55c-3.46-.01-6.61-.18-9.66-.5-1.7-.18-3.44-.32-5.18-.46-2.68-.21-5.38-.42-8.05-.8-3.33-.47-6.03-1.1-8.49-2-.21-.05-.39-.17-.49-.36-1.42-2.74-2.71-5.68-3.8-8.75-.05-.14-.15-.58-.1-.72.03-.11.05-.29-.04-.48-.11-.09-.37-.41-.42-.55-1.31-3.88-2.47-7.85-3.58-11.69l-1.4-4.8c-1.72-5.85-3.49-11.89-4.91-17.92-.61-2.6-1.15-5.31-1.66-8.3-.05-.29.08-.59.33-.74.12-.08.25-.11.39-.11.15,0,.29.05.42.13,1.11.78,2.22,1.33,3.42,1.69l7.59,1.88c1.13.24,2.28.41,3.43.53,1.35.15,2.71.23,4.06.32,1.3.08,2.61.16,3.92.29h0c.4,0,.68-.25.71-.58.03-.31-.28-.69-.58-.72-1.29-.13-2.58-.21-3.85-.29-1.38-.09-2.75-.17-4.12-.32-1.11-.12-2.21-.28-3.32-.52l-7.43-1.83c-2.68-.8-4.72-2.39-5.65-4.34l-.12-.56-.07-.47c-.09-.11-.28-.54-.3-.68-.16-1.68.52-3.37,1.97-4.9,1.98-2.09,4.71-4.13,8.36-6.25,3.35-1.96,7.02-3.72,10.25-5.27,1.39-.67,2.73-1.31,3.97-1.93,2.04-1.03,4.33-1.85,7.01-2.5,2.53-.62,5.15-1.04,7.68-1.45,1.17-.19,2.34-.38,3.51-.59,7.53-1.34,15.33-2.24,23.17-2.66,3.54-.19,7.13-.29,10.65-.29,4.26,0,8.52.14,12.67.42l9.83,1.07c.98.19,1.86.44,2.7.76.85.32,1.69.7,2.53,1.13,2.8,1.45,4.37,3.26,4.65,5.39,0,0,.05.97.05,1-.06,1.17-.48,2.39-1.25,3.62-3.34,5.37-11.31,10.37-15.14,12.77-.31.19-.4.6-.21.9.12.19.33.31.56.31,2.94-1.73,10.84-6.69,14.85-11.85.14-.18.36-.28.58-.28.08,0,.17.01.25.04.3.11.5.39.49.71-.06,2.55-.23,5.15-.51,7.92-.42,4.14-1.04,8.34-1.64,12.4-.52,3.52-1.04,7.05-1.45,10.61-.26,2.31-.46,4.65-.66,7-.39,4.63-.8,9.42-1.73,14.01-1.04,5.18-2.57,9.31-4.81,12.98-.07.1-.2.25-.31.31l-1.39.72c-1.66.86-3.32,1.72-5.01,2.49-1.82.83-3.38,1.41-4.91,1.86-2.77.8-5.68,1.35-9.14,1.73-3.13.34-6.32.5-9.41.64-1.55.08-3.1.15-4.66.25-4.75.3-9.41.57-14.1.57h-.45Z" fill="#663c00"/>
  <path d="m382.36,346.18c-4.33-9.55-9.66-17.92-15.53-25.83-8.78-11.84-18.76-22.64-28.27-34.85-9.09-11.67-16.87-24.25-25.34-36.35-3.65-5.22-7.44-10.35-11.51-15.28-9.85-11.94-21.12-24.13-30.44-37.34-6.2-8.78-11.53-18.02-14.99-27.94-1.48-4.25-2.43-8.81-3.04-13.45-.88-6.71-1.05-13.6-1.06-20.09.07-.04.14-.07.21-.1,2.78-1.56,5.27-3.5,7.09-6.09,2.22-3.14,3.54-6.97,4.24-11.01,1-5.79.73-12.04.13-17.26-.39-3.32-.73-7.1-1.54-10.67-.57-2.51-1.38-4.92-2.57-7.01-.1-.18-.24-.32-.4-.43-2.82-5.31-11.37-10.82-16.31-13.81-.07-.04-.14-.05-.21-.07,1.1-6.36,1.39-12.95,2.12-19.33.89-7.77,2.32-15.37,3.1-23.04.46-4.5.66-9.03.44-13.63.59-3.23-.83-6.36-5.85-8.95-.91-.47-1.82-.88-2.76-1.23-.95-.35-1.93-.64-2.95-.84l-10.15-1.11c-7.74-.52-15.67-.57-23.57-.14-7.91.43-15.79,1.33-23.42,2.69-3.82.68-7.62,1.16-11.31,2.07-2.54.62-5.03,1.45-7.44,2.66-4.26,2.14-9.56,4.49-14.34,7.27-3.36,1.96-6.47,4.15-8.82,6.61-2.7,2.84-3.07,5.86-2.04,8.46.56,4.37,1.36,8.69,2.36,12.96,1.63,6.96,3.71,13.82,5.71,20.69,1.31,4.5,2.62,9.12,4.14,13.65-.62.39-1.26.75-1.86,1.21-1.4,1.07-2.72,2.26-4.01,3.36-1.23,1.05-2.48,2.09-3.63,3.22-.81.79-1.57,1.63-2.24,2.54-2.1,2.84-2.37,5.4-1.55,7.69-.46,4.52-.79,9.32-.91,14.15-.12,5.13.01,10.27.49,15.05.23,2.3.36,4.86.96,7.23.45,1.75,1.14,3.39,2.27,4.78,1.22,1.51,2.76,2.73,4.46,3.73,2.4,1.41,5.13,2.36,7.69,3.07.46,10.3-2.49,19.41-7.06,27.89-6.95,12.88-17.61,24.33-26.11,36.27l-47.54,69.43c-12.98,18.51-25.81,36.64-37.21,55.69-7.61,12.71-14.57,25.84-20.53,39.76-7.02,16.43-13.11,34.28-10.76,50.4,1.58,10.8,6.89,20.84,18.2,29.19,2.59,1.92,5.37,3.79,8.29,5.34,1.99,1.05,4.05,1.96,6.15,2.62,5.07,1.59,10.31,2.5,15.6,3.04,6.7.68,13.49.76,20.18.86.19.21.42.38.72.44,1.06.22,2.13.38,3.21.49,4.07.43,8.22.23,12.27.97,21.5,3.92,42.81,6.74,64.22,8.28,21.38,1.53,42.87,1.79,64.77.57,5.53-.31,11.05-.81,16.55-1.4,12.78-1.38,25.5-3.26,38.31-4.38,23.84-2.08,49.54-4.22,73.64-10.65,16.24-4.33,31.75-10.62,45.49-20.12.18-.12.31-.29.41-.47,13.96-9.61,17.82-21.69,16.54-34.61-1.86-18.88-14.93-39.64-22.71-56.81ZM146.58,62.92c-1.99-6.83-4.05-13.64-5.68-20.55-.64-2.73-1.18-5.48-1.65-8.25,1.06.74,2.26,1.38,3.63,1.79l7.63,1.89c1.18.25,2.35.43,3.53.55,2.65.29,5.3.34,7.99.61.77.08,1.45-.48,1.53-1.24.08-.77-.48-1.45-1.24-1.53-2.68-.27-5.32-.32-7.97-.61-1.08-.12-2.16-.27-3.24-.51l-7.41-1.83c-2.41-.72-4.31-2.15-5.16-3.94-.03-.27-.09-.53-.12-.8-.03-.26-.15-.48-.29-.67-.13-1.39.4-2.88,1.77-4.32,2.18-2.29,5.07-4.3,8.2-6.12,4.73-2.76,9.97-5.07,14.18-7.19,2.23-1.12,4.52-1.87,6.86-2.45,3.64-.89,7.38-1.36,11.14-2.03,7.52-1.34,15.29-2.23,23.08-2.65,7.79-.42,15.61-.38,23.23.14l9.8,1.07c.88.17,1.71.42,2.52.72.83.31,1.64.68,2.45,1.1,2.79,1.44,4.03,3.1,4.26,4.84.02.29.02.57.04.86-.06,1.08-.46,2.18-1.14,3.28-3.21,5.17-11.07,10.13-14.91,12.54-.65.41-.85,1.27-.44,1.92.41.65,1.27.85,1.92.44,3.71-2.33,10.85-6.96,14.7-11.91-.06,2.64-.24,5.26-.51,7.87-.78,7.66-2.21,15.25-3.09,23-.79,6.93-1.01,14.11-2.39,20.95-.9,4.46-2.3,8.77-4.72,12.74,0,.01,0,.03-.01.04-2.11,1.08-4.21,2.2-6.38,3.19-1.56.71-3.15,1.34-4.8,1.82-3,.87-6,1.37-9.01,1.7-4.64.51-9.3.59-14.04.89-4.89.31-9.69.58-14.5.57-3.18-.01-6.36-.15-9.58-.49-4.32-.46-8.82-.64-13.21-1.25-2.85-.4-5.66-.98-8.34-1.96-.03-.01-.06,0-.09-.01-1.45-2.78-2.7-5.67-3.76-8.65-.03-.09-.06-.19-.09-.28.09-.33.07-.69-.1-1.01-.09-.18-.22-.33-.37-.44-1.55-4.57-2.86-9.25-4.19-13.79Zm91.22,20.49c2.18-3.77,3.56-7.79,4.48-11.96,4.87,2.96,13.02,8.11,14.97,12.96,1.24,3.09.2,6.59-3.26,10.1-.57.58-1.19,1.1-1.84,1.58-1.02.75-2.11,1.4-3.22,2.03-1.41.8-2.8,1.56-4.22,2.25-1.4.68-2.83,1.28-4.34,1.79-2.56.86-5.09,1.42-7.62,1.84-3.92.66-7.86,1.02-11.97,1.64-9.66,1.47-19.62,2.41-29.58,2.54-9.93.13-19.86-.54-29.5-2.3l-5.95-1.25-4.66-1.26c-3.55-1.07-9.38-3.33-12.33-6.72-.49-.56-.88-1.17-1.15-1.8,0-.01,0-.03,0-.04.04-.39-.09-.76-.33-1.04-.25-1.36.07-2.84,1.27-4.46.59-.8,1.25-1.52,1.96-2.21,1.11-1.09,2.32-2.08,3.49-3.09,1.24-1.07,2.53-2.23,3.88-3.26.35-.27.73-.47,1.1-.71,1.2,3.27,2.55,6.46,4.22,9.47.37.67,1.22.92,1.89.55.04-.02.06-.05.09-.08,2.58.86,5.24,1.45,7.96,1.83,4.42.62,8.95.8,13.3,1.26,3.32.35,6.59.49,9.86.51,4.88.02,9.74-.26,14.69-.57,4.79-.3,9.49-.39,14.17-.9,3.17-.34,6.32-.88,9.49-1.79,1.78-.51,3.5-1.19,5.18-1.96m-86.38,49.53c-1.41-.83-2.69-1.83-3.71-3.08-.87-1.07-1.39-2.36-1.73-3.71-.57-2.23-.68-4.65-.89-6.82-.46-4.67-.59-9.7-.47-14.71.08-3.56.31-7.07.6-10.49,3.4,3.43,9.31,5.85,13.04,6.97l4.82,1.31,6.09,1.28c9.81,1.79,19.92,2.48,30.03,2.34,10.09-.14,20.17-1.09,29.96-2.58,4.12-.62,8.07-.98,12.01-1.65,2.67-.45,5.34-1.05,8.04-1.95,1.31-.44,2.55-.94,3.77-1.5,1.8-.82,3.53-1.76,5.3-2.77,1.2-.68,2.39-1.4,3.5-2.21.77-.57,1.5-1.18,2.17-1.87,1.77-1.79,2.98-3.58,3.71-5.34.69,3.29,1.03,6.71,1.39,9.76.58,4.99.85,10.95-.11,16.47-.63,3.63-1.78,7.07-3.77,9.88-1.59,2.25-3.76,3.91-6.18,5.26-3.8,2.12-8.18,3.47-12.02,4.89-9.67,3.58-19.91,5.54-30.28,6.45-10.41.92-20.96.79-31.19.21-5.37-.31-10.92-.6-16.37-1.29-3.61-.46-7.17-1.1-10.62-2.04-2.36-.64-4.88-1.51-7.09-2.81Zm242.17,298.3c-.17.11-.31.26-.41.42-13.15,8.82-27.88,14.73-43.29,18.85-23.94,6.39-49.48,8.5-73.17,10.57-12.83,1.12-25.57,3-38.37,4.38-5.45.59-10.92,1.09-16.41,1.39-21.78,1.21-43.15.96-64.41-.57-21.31-1.53-42.52-4.34-63.92-8.24l-12.08-1.13c-.23-.43-.66-.74-1.19-.75-7.68-.15-15.57-.12-23.32-.91-5.11-.52-10.16-1.39-15.05-2.92-2.44-.77-4.79-1.88-7.05-3.18-2.3-1.32-4.49-2.83-6.57-4.36-10.6-7.83-15.62-17.23-17.1-27.35-2.29-15.64,3.75-32.95,10.56-48.9,5.9-13.81,12.81-26.82,20.35-39.43,11.37-18.99,24.16-37.06,37.1-55.52l47.53-69.41c8.57-12.03,19.3-23.59,26.3-36.56,4.7-8.71,7.7-18.05,7.4-28.57,2.72.62,5.49,1.14,8.29,1.49,5.52.7,11.13,1,16.56,1.31,10.36.6,21.05.72,31.59-.21,10.62-.94,21.1-2.95,31-6.62,2.99-1.11,6.3-2.19,9.42-3.59.04,6.21.24,12.72,1.07,19.07.64,4.84,1.63,9.58,3.18,14.01,3.54,10.16,9,19.63,15.35,28.63,9.36,13.27,20.67,25.52,30.57,37.51,4.03,4.88,7.76,9.95,11.38,15.1,8.5,12.14,16.31,24.76,25.43,36.47,9.5,12.2,19.47,22.98,28.24,34.8,5.75,7.75,10.99,15.96,15.23,25.32,7.67,16.92,20.65,37.33,22.48,55.93,1.22,12.38-2.65,23.91-16.69,32.96Z" fill="#291b06"/>
  <path d="m381.28,378.11c-5.42-9.9-13.26-20.04-18.2-27.96-10.1-16.2-20.34-32.9-31.54-48.8-7.12-10.1-14.65-19.86-22.76-28.98.12-.73-.33-1.43-1.06-1.59-.16-.03-.32-.06-.47-.09-1.95-2.12-3.84-4.02-5.98-5.52-1.77-1.24-3.72-2.27-6.04-3.07-3.58-1.23-7.02-2.59-10.59-3.5-2.44-.62-4.95-1.04-7.59-1.08-11.41-.17-22.27,2.9-33.4,3.83-4.59.38-9.24.39-13.98-.38-4.56-.75-8.75-2.25-12.76-4.14-6.18-2.91-11.93-6.74-17.94-10.21-12-6.94-26.52-14.2-41.07-16.4-9.27-1.4-18.53-.7-27.2,3.33-.54-.16-1.14,0-1.5.48-.1.14-.22.26-.33.4-.1.05-.21.09-.31.15-.41.22-.65.63-.7,1.06-1.55,1.94-3.11,3.86-4.76,5.71-.81.9-1.66,1.77-2.48,2.66-.26.14-.46.36-.59.64-7.73,8.29-16.08,16.14-23.24,24.9-12.95,15.86-25.61,32.64-37.07,50.19-11.46,17.57-21.72,35.9-29.84,54.85-3.53,8.24-8.61,20.4-10.35,32.01-1.25,8.3-.78,16.33,2.97,22.56,1.88,3.14,4.4,5.7,7.28,7.84,4.19,3.13,9.14,5.36,13.88,7.22.5.2,1.03.07,1.41-.25,7.14,1.72,14.15,2.93,21.13,3.84,12.24,1.6,24.44,2.37,37.36,3.76,18.86,2.03,37.75,3.78,56.68,4.81,18.94,1.03,37.91,1.33,56.93.47,12.14-.55,24.27-1.76,36.37-3.31,18.09-2.32,36.12-5.42,54.04-8.25,15.43-2.44,41.56-6.43,59.46-17.16,12.83-7.69,21.47-18.81,19.51-35.08,0-.07-.05-.13-.06-.19.28-.32.43-.75.32-1.2-.97-4.3-2.98-8.89-5.51-13.53Z" fill="#291b06"/>
  <path d="m122.5,246.06c.89-.96,1.8-1.89,2.67-2.86,1.89-2.12,3.69-4.31,5.44-6.53,8.52-4.33,17.7-5.07,26.87-3.69,14.21,2.14,28.37,9.28,40.09,16.05,6.08,3.52,11.9,7.38,18.15,10.32,4.24,2,8.67,3.58,13.5,4.37,4.98.81,9.85.81,14.66.41,11.04-.92,21.81-3.98,33.13-3.82,2.42.04,4.71.42,6.95.99,3.49.89,6.86,2.23,10.37,3.43,2.59.89,4.66,2.11,6.55,3.62.55.44,1.07.96,1.59,1.45-2.79-.44-5.59-.74-8.4-.79-4.65-.09-9.29.46-13.79,1.96-4.48,1.5-8.43,3.72-12.16,6.27-5.47,3.75-10.46,8.23-15.96,12.09-2.85,2-5.93,3.74-9.12,5.27-3.21,1.54-6.53,2.87-9.82,4.03-10,3.53-20.24,4.23-30.39,3.16-15.37-1.63-30.55-7.34-44.47-13.61-9.38-4.23-22.25-11.27-30-20.7-5.05-6.15-7.88-13.34-5.86-21.43Z" fill="#7f0000"/>
  <path d="m365.59,425.72c-17.59,10.55-43.29,14.4-58.46,16.8-17.9,2.83-35.9,5.92-53.96,8.24-12.03,1.54-24.08,2.74-36.14,3.29-18.93.86-37.81.55-56.65-.47-18.88-1.03-37.72-2.77-56.53-4.8-12.9-1.39-25.08-2.15-37.3-3.75-8.04-1.05-16.09-2.46-24.38-4.65-.19-.05-.38-.06-.56-.03-3.54-1.51-7.08-3.29-10.18-5.6-2.58-1.93-4.86-4.22-6.55-7.04-3.44-5.72-3.75-13.1-2.61-20.72.73-4.89,2.09-9.86,3.66-14.59.4-.03,5.26-13.82,6.5-16.74,8.06-18.8,18.23-36.99,29.61-54.42,11.4-17.46,24-34.17,36.89-49.95,6.22-7.62,13.37-14.52,20.21-21.65-.5,7.28,2.35,13.86,7.07,19.6,8.02,9.76,21.3,17.09,31.01,21.47,14.18,6.39,29.66,12.18,45.32,13.84,10.56,1.12,21.21.37,31.61-3.3,3.39-1.19,6.8-2.56,10.1-4.15,3.33-1.6,6.54-3.42,9.52-5.5,5.49-3.86,10.47-8.33,15.93-12.07,3.52-2.41,7.24-4.52,11.47-5.93,4.19-1.4,8.52-1.9,12.85-1.81,3.97.07,7.94.64,11.83,1.44.03.03.05.06.08.09,8.34,9.3,16.06,19.29,23.34,29.63,11.17,15.85,21.38,32.51,31.45,48.66,4.91,7.88,12.73,17.97,18.12,27.83,2.4,4.39,4.32,8.73,5.24,12.81,0,.02.02.03.02.05-.24.29-.38.66-.33,1.06,1.81,15.05-6.32,25.24-18.18,32.36Z" fill="#7f0000"/>
  <path d="m122.5,246.06c.89-.96,1.8-1.89,2.67-2.86,1.89-2.12,3.69-4.31,5.44-6.53,8.52-4.33,17.7-5.07,26.87-3.69,14.21,2.14,28.37,9.28,40.09,16.05,6.08,3.52,11.9,7.38,18.15,10.32,4.24,2,8.67,3.58,13.5,4.37,4.98.81,9.85.81,14.66.41,11.04-.92,21.81-3.98,33.13-3.82,2.42.04,4.71.42,6.95.99,3.49.89,6.86,2.23,10.37,3.43,2.59.89,4.66,2.11,6.55,3.62.55.44,1.07.96,1.59,1.45-2.79-.44-5.59-.74-8.4-.79-4.65-.09-9.29.46-13.79,1.96-4.48,1.5-8.43,3.72-12.16,6.27-5.47,3.75-10.46,8.23-15.96,12.09-2.85,2-5.93,3.74-9.12,5.27-3.21,1.54-6.53,2.87-9.82,4.03-10,3.53-20.24,4.23-30.39,3.16-15.37-1.63-30.55-7.34-44.47-13.61-9.38-4.23-22.25-11.27-30-20.7-5.05-6.15-7.88-13.34-5.86-21.43Z" opacity=".1"/>
  <path d="m237.8,83.41c2.18-3.77,3.56-7.79,4.48-11.96,4.87,2.96,13.02,8.11,14.97,12.96,1.24,3.09.2,6.59-3.26,10.1-.57.58-1.19,1.1-1.84,1.58-1.02.75-2.11,1.4-3.22,2.03-1.41.8-2.8,1.56-4.22,2.25-1.4.68-2.83,1.28-4.34,1.79-2.56.86-5.09,1.42-7.62,1.84-3.92.66-7.86,1.02-11.97,1.64-9.66,1.47-19.62,2.41-29.58,2.54-9.93.13-19.86-.54-29.5-2.3l-5.95-1.25-4.66-1.26c-3.55-1.07-9.38-3.33-12.33-6.72-.49-.56-.88-1.17-1.15-1.8,0-.01,0-.03,0-.04.04-.39-.09-.76-.33-1.04-.25-1.36.07-2.84,1.27-4.46.59-.8,1.25-1.52,1.96-2.21,1.11-1.09,2.32-2.08,3.49-3.09,1.24-1.07,2.53-2.23,3.88-3.26.35-.27.73-.47,1.1-.71,1.2,3.27,2.55,6.46,4.22,9.47.37.67,1.22.92,1.89.55.04-.02.06-.05.09-.08,2.58.86,5.24,1.45,7.96,1.83,4.42.62,8.95.8,13.3,1.26,3.32.35,6.59.49,9.86.51,4.88.02,9.74-.26,14.69-.57,4.79-.3,9.49-.39,14.17-.9,3.17-.34,6.32-.88,9.49-1.79,1.78-.51,3.5-1.19,5.18-1.96" fill="#3a0000"/>
  <path d="m257.85,226.61c-5.37-9.65-11.29-16.69-24.24-24.16-43.42-22.99-109.88,12.93-98.23,66.86,1.67,7.73,5.12,15.34,4.23,23.2-.56,4.95-2.82,9.95-1.44,14.73,3.95,13.62,30.17,9.13,32.01,23.82,1.1,8.74,5.59,9.31,8.46,7.58,1.01-.6,2.26-.44,3.06.41,1.35,1.45,3.99,1.84,5.79.4.93-.74,2.27-.58,3.13.25,1.73,1.66,4.61,1.85,6.55.46.9-.65,2.1-.65,2.93.09,1.5,1.35,4.22,1.49,5.97-.06.88-.78,2.2-.89,3.09-.13,1.81,1.55,4.85,1.42,6.57-.2.79-.74,1.92-.95,2.88-.43,1.08.59,2.45.45,3.41-.31.84-.66,2-.56,2.89.05,3.38,2.35,9.39-4.39,8.55-8.56-2.49-12.32,17.51-15.08,23.01-17.79,12.53-6.16,6.65-15.58,6-17.33-4.47-12.1,13.55-36.3-4.61-68.89Zm-70.83,65.07c-18.72,14.95-41.62,1.95-23.81-15.34,18.13-17.6,40.4,2.1,23.81,15.34Zm24.87,21.84c-2.58,2.97-5.05,2.47-6.7.69-1.2-1.3-3.15-1.3-4.54-.21-.77.61-1.85.95-3.43.86-6.18-.36-5.29-13.64,4.77-21.71,1.04-.83,2.56-.61,3.36.46,3.96,5.28,10.89,14.9,6.54,19.91Zm34.35-18.66c-7.67,9.23-35.53-4.7-33.59-16.27,3.71-22.12,47.23-.14,33.59,16.27Z" fill="#fff" stroke="#000" stroke-miterlimit="10" stroke-width="3"/>
  <path d="m147.22,354.58c-18.25-6.75-9.9-15.16-16.11-23.04-6.67-8.45-21.43-.44-16.86,11.35,1.73,4.46,6.01,7.58,7.66,12.07-4.19,2.39-9.92,1.25-13.68,4.28-7.45,6.01.1,20.67,14.71,15.78,17.24-5.78,4.23-12.51,24.9-5.24,9.13,3.21,112.35,41.31,116.22,50.01,1.48,3.32,1.43,7.36,3.76,10.15,3.83,4.61,12.45,4.01,16.25-1.73,7.8-11.79-13.83-19.1,2.31-21.31,6.13-.84,10.18-8.33,7.85-14.06-2.33-5.73-10.01-8.38-15.55-5.63-23.17,11.48,18.45,22.77-131.44-32.63Z" fill="#fff" stroke="#000" stroke-miterlimit="10" stroke-width="3"/>
  <path d="m253.13,354.58c18.25-6.75,9.9-15.16,16.11-23.04,6.67-8.45,21.43-.44,16.86,11.35-1.73,4.46-6.01,7.58-7.66,12.07,4.19,2.39,9.92,1.25,13.68,4.28,7.45,6.01-.1,20.67-14.71,15.78-17.24-5.78-4.23-12.51-24.9-5.24-9.13,3.21-112.35,41.31-116.22,50.01-1.48,3.32-1.43,7.36-3.76,10.15-3.83,4.61-12.45,4.01-16.25-1.73-7.8-11.79,13.83-19.1-2.31-21.31-6.13-.84-10.18-8.33-7.85-14.06,2.33-5.73,10.01-8.38,15.55-5.63,23.17,11.48-18.45,22.77,131.44-32.63Z" fill="#fff" stroke="#000" stroke-miterlimit="10" stroke-width="3"/>
</svg>
