<?xml version="1.0" standalone="no"?>
<!DOCTYPE svg PUBLIC "-//W3C//DTD SVG 20010904//EN"
 "http://www.w3.org/TR/2001/REC-SVG-20010904/DTD/svg10.dtd">
<svg version="1.0" xmlns="http://www.w3.org/2000/svg"
 width="700.000000pt" height="700.000000pt" viewBox="0 0 700.000000 700.000000"
 preserveAspectRatio="xMidYMid meet">
<metadata>
Created by potrace 1.14, written by Peter Selinger 2001-2017
</metadata>
<g transform="translate(0.000000,700.000000) scale(0.100000,-0.100000)"
fill="#000000" stroke="none">
<path d="M4468 5772 c-136 -71 -598 -378 -704 -468 -51 -43 -55 -50 -219 -421
-209 -472 -387 -887 -475 -1108 -79 -198 -367 -944 -372 -962 -2 -8 137 -79
357 -184 198 -94 370 -174 381 -179 20 -8 39 24 270 443 423 771 457 834 815
1527 l184 355 -2 150 c-1 160 -21 384 -53 605 -32 218 -53 280 -96 280 -7 0
-46 -17 -86 -38z"/>
<path d="M1638 4738 c-224 -197 -842 -808 -976 -966 -130 -153 -183 -257 -168
-333 9 -50 67 -141 161 -256 135 -165 863 -883 1028 -1014 27 -22 59 -39 71
-39 13 0 50 14 84 31 98 49 162 146 162 249 0 135 -93 253 -584 748 l-310 312
220 223 c458 462 577 596 639 721 58 114 45 211 -41 306 -45 50 -120 90 -169
90 -29 0 -48 -12 -117 -72z"/>
<path d="M5135 4777 c-92 -44 -130 -78 -151 -132 -32 -85 2 -189 111 -340 86
-119 146 -186 415 -460 135 -138 272 -278 304 -312 l60 -62 -300 -303 c-402
-407 -504 -525 -565 -653 -49 -101 -33 -195 48 -285 50 -56 101 -86 160 -95
36 -6 42 -3 130 74 260 228 846 811 988 982 192 232 199 303 52 498 -89 118
-331 373 -603 635 -380 366 -518 486 -557 486 -12 0 -54 -15 -92 -33z"/>
<path d="M2564 2680 c-97 -48 -154 -120 -154 -194 0 -29 7 -39 48 -69 134 -98
641 -338 826 -392 56 -16 59 -16 85 2 43 32 63 84 63 168 -1 99 -24 152 -87
195 -57 39 -433 223 -561 274 -105 42 -160 45 -220 16z"/>
<path d="M2664 2159 c-31 -50 -253 -508 -254 -525 0 -10 275 -144 295 -144 18
0 255 530 255 571 0 10 -13 27 -29 38 -41 30 -170 89 -208 97 -29 6 -34 3 -59
-37z"/>
<path d="M2249 1563 c-48 -44 -79 -100 -79 -145 0 -55 39 -198 67 -251 15 -27
43 -61 62 -76 30 -23 44 -26 110 -26 69 0 84 4 166 43 132 63 162 97 180 204
7 46 -12 87 -58 122 -68 52 -334 166 -387 166 -11 0 -38 -17 -61 -37z"/>
</g>
</svg>
